<svg width="116" height="72" fill="none" xmlns="http://www.w3.org/2000/svg">
  <path fill-rule="evenodd" clip-rule="evenodd" d="M30 10a4 4 0 0 1 4-4h48a4 4 0 0 1 4 4v4a4 4 0 0 1-4 4H34a4 4 0 0 1-4-4v-4Zm45.293.293a1 1 0 0 1 1.414 0L78 11.586l1.293-1.293a1 1 0 1 1 1.414 1.414L79.414 13a2 2 0 0 1-2.828 0l-1.293-1.293a1 1 0 0 1 0-1.414ZM35 12a1 1 0 0 1 1-1h14a1 1 0 1 1 0 2H36a1 1 0 0 1-1-1ZM30 26a4 4 0 0 1 4-4h48a4 4 0 0 1 4 4v4a4 4 0 0 1-4 4H34a4 4 0 0 1-4-4v-4Zm5 2a1 1 0 0 1 1-1h14a1 1 0 1 1 0 2H36a1 1 0 0 1-1-1ZM30 42a4 4 0 0 1 4-4h48a4 4 0 0 1 4 4v4a4 4 0 0 1-4 4H34a4 4 0 0 1-4-4v-4Zm5 2a1 1 0 0 1 1-1h14a1 1 0 1 1 0 2H36a1 1 0 0 1-1-1ZM30 58a4 4 0 0 1 4-4h18a4 4 0 0 1 4 4v4a4 4 0 0 1-4 4H34a4 4 0 0 1-4-4v-4Zm5 2a1 1 0 0 1 1-1h8a1 1 0 1 1 0 2h-8a1 1 0 0 1-1-1ZM60 58a4 4 0 0 1 4-4h18a4 4 0 0 1 4 4v4a4 4 0 0 1-4 4H64a4 4 0 0 1-4-4v-4Zm5 2a1 1 0 0 1 1-1h8a1 1 0 1 1 0 2h-8a1 1 0 0 1-1-1Z" fill="currentColor"></path>
</svg>