<svg width="116" height="72" fill="none" xmlns="http://www.w3.org/2000/svg">
  <path fill-rule="evenodd" clip-rule="evenodd" d="M30 12a6 6 0 0 1 6-6h44a6 6 0 0 1 6 6v48a6 6 0 0 1-6 6H36a6 6 0 0 1-6-6V12Zm16 37a1 1 0 0 1 1-1h22a1 1 0 1 1 0 2H47a1 1 0 0 1-1-1Zm7 3a1 1 0 1 0 0 2h10a1 1 0 1 0 0-2H53Zm4.327-20.947a.929.929 0 0 0 .673.274c.262 0 .48-.091.654-.274.187-.182.3-.443.337-.782l.99-6.062c.013-.078.019-.182.019-.312 0-.587-.187-1.05-.56-1.389C59.064 22.17 58.585 22 58 22c-.573 0-1.053.17-1.44.508-.373.326-.56.783-.56 1.37 0 .13.006.234.019.312l.972 6.081c.05.339.162.6.336.782Zm-.635 4.4c.349.364.785.547 1.308.547.51 0 .935-.182 1.271-.547.349-.366.523-.815.523-1.35 0-.534-.174-.984-.523-1.349A1.655 1.655 0 0 0 58 32.207c-.523 0-.96.182-1.308.547-.337.365-.505.815-.505 1.35 0 .534.168.983.505 1.349Z" fill="currentColor"></path>
</svg>