<svg width="116" height="72" fill="currentColor" xmlns="http://www.w3.org/2000/svg">
  <path d="M.436 2.184C0 3.04 0 4.16 0 6.4v25.2c0 2.24 0 3.36.436 4.216a4 4 0 0 0 1.748 1.748C3.04 38 4.16 38 6.4 38h103.2c2.24 0 3.36 0 4.216-.436a3.996 3.996 0 0 0 1.748-1.748C116 34.96 116 33.84 116 31.6V6.4c0-2.24 0-3.36-.436-4.216a3.996 3.996 0 0 0-1.748-1.748C112.96 0 111.84 0 109.6 0H6.4C4.16 0 3.04 0 2.184.436A4 4 0 0 0 .436 2.184ZM1 44a1 1 0 1 0 0 2h30a1 1 0 1 0 0-2H1ZM0 49a1 1 0 0 1 1-1h14a1 1 0 1 1 0 2H1a1 1 0 0 1-1-1ZM1 54a1 1 0 1 0 0 2h114a1 1 0 0 0 0-2H1ZM0 59a1 1 0 0 1 1-1h114a1 1 0 0 1 0 2H1a1 1 0 0 1-1-1ZM1 62a1 1 0 1 0 0 2h114a1 1 0 0 0 0-2H1ZM0 67a1 1 0 0 1 1-1h114a1 1 0 0 1 0 2H1a1 1 0 0 1-1-1ZM1 70a1 1 0 1 0 0 2h72a1 1 0 1 0 0-2H1Z"></path>
</svg>