<svg width="116" height="72" fill="none" xmlns="http://www.w3.org/2000/svg">
  <path d="M28 1c-5.523 0-10 4.477-10 10s4.477 10 10 10 10-4.477 10-10S33.523 1 28 1ZM47 8a1 1 0 1 0 0 2h30a1 1 0 1 0 0-2H47ZM46 13a1 1 0 0 1 1-1h14a1 1 0 1 1 0 2H47a1 1 0 0 1-1-1ZM47 44a1 1 0 1 0 0 2h50a1 1 0 1 0 0-2H47ZM46 49a1 1 0 0 1 1-1h50a1 1 0 1 1 0 2H47a1 1 0 0 1-1-1ZM47 52a1 1 0 1 0 0 2h38a1 1 0 1 0 0-2H47ZM46 23a1 1 0 0 1 1-1h50a1 1 0 1 1 0 2H47a1 1 0 0 1-1-1ZM47 26a1 1 0 1 0 0 2h50a1 1 0 1 0 0-2H47ZM46 31a1 1 0 0 1 1-1h50a1 1 0 1 1 0 2H47a1 1 0 0 1-1-1ZM47 34a1 1 0 1 0 0 2h38a1 1 0 1 0 0-2H47ZM68 64a2 2 0 0 1 2-2h14a2 2 0 0 1 2 2v4a2 2 0 0 1-2 2H70a2 2 0 0 1-2-2v-4ZM48 62a2 2 0 0 0-2 2v4a2 2 0 0 0 2 2h14a2 2 0 0 0 2-2v-4a2 2 0 0 0-2-2H48Z" fill="currentColor"></path>
</svg>