<svg width="116" height="72" fill="none" xmlns="http://www.w3.org/2000/svg">
  <path d="M8 6.4c0-2.24 0-3.36.436-4.216A4 4 0 0 1 10.184.436C11.04 0 12.16 0 14.4 0h33.2c2.24 0 3.36 0 4.216.436a4 4 0 0 1 1.748 1.748C54 3.04 54 4.16 54 6.4v9.2c0 2.24 0 3.36-.436 4.216a4 4 0 0 1-1.748 1.748C50.96 22 49.84 22 47.6 22H14.4c-2.24 0-3.36 0-4.216-.436a4 4 0 0 1-1.748-1.748C8 18.96 8 17.84 8 15.6V6.4ZM8 27a1 1 0 0 1 1-1h44a1 1 0 1 1 0 2H9a1 1 0 0 1-1-1ZM9 30a1 1 0 1 0 0 2h22a1 1 0 1 0 0-2H9ZM8 46.4c0-2.24 0-3.36.436-4.216a4 4 0 0 1 1.748-1.748C11.04 40 12.16 40 14.4 40h33.2c2.24 0 3.36 0 4.216.436a4 4 0 0 1 1.748 1.748C54 43.04 54 44.16 54 46.4v9.2c0 2.24 0 3.36-.436 4.216a4 4 0 0 1-1.748 1.748C50.96 62 49.84 62 47.6 62H14.4c-2.24 0-3.36 0-4.216-.436a4 4 0 0 1-1.748-1.748C8 58.96 8 57.84 8 55.6v-9.2ZM9 66a1 1 0 1 0 0 2h44a1 1 0 1 0 0-2H9ZM8 71a1 1 0 0 1 1-1h22a1 1 0 1 1 0 2H9a1 1 0 0 1-1-1ZM62.436 22.184C62 23.04 62 24.16 62 26.4v9.2c0 2.24 0 3.36.436 4.216a4 4 0 0 0 1.748 1.748C65.04 42 66.16 42 68.4 42h33.2c2.24 0 3.36 0 4.216-.436a3.996 3.996 0 0 0 1.748-1.748C108 38.96 108 37.84 108 35.6v-9.2c0-2.24 0-3.36-.436-4.216a3.996 3.996 0 0 0-1.748-1.748C104.96 20 103.84 20 101.6 20H68.4c-2.24 0-3.36 0-4.216.436a4 4 0 0 0-1.748 1.748ZM62 47a1 1 0 0 1 1-1h44a1 1 0 0 1 0 2H63a1 1 0 0 1-1-1ZM63 50a1 1 0 1 0 0 2h22a1 1 0 1 0 0-2H63Z" fill="currentColor"></path>
</svg>