<svg
width="116"
height="72"
fill="none"
xmlns="http://www.w3.org/2000/svg"
>
    <path
        fill-rule="evenodd"
        clip-rule="evenodd"
        d="M16.654 5.276C16 6.56 16 8.24 16 11.6v48.8c0 3.36 0 5.04.654 6.324a6 6 0 0 0 2.622 2.622C20.56 70 22.24 70 25.6 70h64.8c3.36 0 5.04 0 6.324-.654a6 6 0 0 0 2.622-2.622C100 65.44 100 63.76 100 60.4V11.6c0-3.36 0-5.04-.654-6.324a6 6 0 0 0-2.622-2.622C95.44 2 93.76 2 90.4 2H25.6c-3.36 0-5.04 0-6.324.654a6 6 0 0 0-2.622 2.622Zm71.639 10.017a1 1 0 0 0 1.414 1.414L91 15.414a2 2 0 0 0 0-2.828l-1.293-1.293a1 1 0 0 0-1.414 1.414L89.586 14l-1.293 1.293Zm-44.075 9.799C44 25.52 44 26.08 44 27.2v1.6c0 1.12 0 1.68.218 2.108a2 2 0 0 0 .874.874C45.52 32 46.08 32 47.2 32h1.6c1.12 0 1.68 0 2.108-.218a2 2 0 0 0 .874-.874C52 30.48 52 29.92 52 28.8v-1.6c0-1.12 0-1.68-.218-2.108a2 2 0 0 0-.874-.874C50.48 24 49.92 24 48.8 24h-1.6c-1.12 0-1.68 0-2.108.218a2 2 0 0 0-.874.874Zm-20 10C24 35.52 24 36.08 24 37.2v1.6c0 1.12 0 1.68.218 2.108a2 2 0 0 0 .874.874C25.52 42 26.08 42 27.2 42h1.6c1.12 0 1.68 0 2.108-.218a2 2 0 0 0 .874-.874C32 40.48 32 39.92 32 38.8v-1.6c0-1.12 0-1.68-.218-2.108a2 2 0 0 0-.874-.874C30.48 34 29.92 34 28.8 34h-1.6c-1.12 0-1.68 0-2.108.218a2 2 0 0 0-.874.874ZM24 47.2c0-1.12 0-1.68.218-2.108a2 2 0 0 1 .874-.874C25.52 44 26.08 44 27.2 44h1.6c1.12 0 1.68 0 2.108.218a2 2 0 0 1 .874.874C32 45.52 32 46.08 32 47.2v1.6c0 1.12 0 1.68-.218 2.108a2 2 0 0 1-.874.874C30.48 52 29.92 52 28.8 52h-1.6c-1.12 0-1.68 0-2.108-.218a2 2 0 0 1-.874-.874C24 50.48 24 49.92 24 48.8v-1.6Zm0 10c0-1.12 0-1.68.218-2.108a2 2 0 0 1 .874-.874C25.52 54 26.08 54 27.2 54h1.6c1.12 0 1.68 0 2.108.218a2 2 0 0 1 .874.874C32 55.52 32 56.08 32 57.2v1.6c0 1.12 0 1.68-.218 2.108a2 2 0 0 1-.874.874C30.48 62 29.92 62 28.8 62h-1.6c-1.12 0-1.68 0-2.108-.218a2 2 0 0 1-.874-.874C24 60.48 24 59.92 24 58.8v-1.6Zm10-20c0-1.12 0-1.68.218-2.108a2 2 0 0 1 .874-.874C35.52 34 36.08 34 37.2 34h1.6c1.12 0 1.68 0 2.108.218a2 2 0 0 1 .874.874C42 35.52 42 36.08 42 37.2v1.6c0 1.12 0 1.68-.218 2.108a2 2 0 0 1-.874.874C40.48 42 39.92 42 38.8 42h-1.6c-1.12 0-1.68 0-2.108-.218a2 2 0 0 1-.874-.874C34 40.48 34 39.92 34 38.8v-1.6Zm0 10c0-1.12 0-1.68.218-2.108a2 2 0 0 1 .874-.874C35.52 44 36.08 44 37.2 44h1.6c1.12 0 1.68 0 2.108.218a2 2 0 0 1 .874.874C42 45.52 42 46.08 42 47.2v1.6c0 1.12 0 1.68-.218 2.108a2 2 0 0 1-.874.874C40.48 52 39.92 52 38.8 52h-1.6c-1.12 0-1.68 0-2.108-.218a2 2 0 0 1-.874-.874C34 50.48 34 49.92 34 48.8v-1.6Zm0 10c0-1.12 0-1.68.218-2.108a2 2 0 0 1 .874-.874C35.52 54 36.08 54 37.2 54h1.6c1.12 0 1.68 0 2.108.218a2 2 0 0 1 .874.874C42 55.52 42 56.08 42 57.2v1.6c0 1.12 0 1.68-.218 2.108a2 2 0 0 1-.874.874C40.48 62 39.92 62 38.8 62h-1.6c-1.12 0-1.68 0-2.108-.218a2 2 0 0 1-.874-.874C34 60.48 34 59.92 34 58.8v-1.6Zm10.218-22.108C44 35.52 44 36.08 44 37.2v1.6c0 1.12 0 1.68.218 2.108a2 2 0 0 0 .874.874C45.52 42 46.08 42 47.2 42h1.6c1.12 0 1.68 0 2.108-.218a2 2 0 0 0 .874-.874C52 40.48 52 39.92 52 38.8v-1.6c0-1.12 0-1.68-.218-2.108a2 2 0 0 0-.874-.874C50.48 34 49.92 34 48.8 34h-1.6c-1.12 0-1.68 0-2.108.218a2 2 0 0 0-.874.874Zm0 10C44 45.52 44 46.08 44 47.2v1.6c0 1.12 0 1.68.218 2.108a2 2 0 0 0 .874.874C45.52 52 46.08 52 47.2 52h1.6c1.12 0 1.68 0 2.108-.218a2 2 0 0 0 .874-.874C52 50.48 52 49.92 52 48.8v-1.6c0-1.12 0-1.68-.218-2.108a2 2 0 0 0-.874-.874C50.48 44 49.92 44 48.8 44h-1.6c-1.12 0-1.68 0-2.108.218a2 2 0 0 0-.874.874Zm0 10C44 55.52 44 56.08 44 57.2v1.6c0 1.12 0 1.68.218 2.108a2 2 0 0 0 .874.874C45.52 62 46.08 62 47.2 62h1.6c1.12 0 1.68 0 2.108-.218a2 2 0 0 0 .874-.874C52 60.48 52 59.92 52 58.8v-1.6c0-1.12 0-1.68-.218-2.108a2 2 0 0 0-.874-.874C50.48 54 49.92 54 48.8 54h-1.6c-1.12 0-1.68 0-2.108.218a2 2 0 0 0-.874.874Zm10-30C54 25.52 54 26.08 54 27.2v1.6c0 1.12 0 1.68.218 2.108a2 2 0 0 0 .874.874C55.52 32 56.08 32 57.2 32h1.6c1.12 0 1.68 0 2.108-.218a2 2 0 0 0 .874-.874C62 30.48 62 29.92 62 28.8v-1.6c0-1.12 0-1.68-.218-2.108a2 2 0 0 0-.874-.874C60.48 24 59.92 24 58.8 24h-1.6c-1.12 0-1.68 0-2.108.218a2 2 0 0 0-.874.874Zm0 10C54 35.52 54 36.08 54 37.2v1.6c0 1.12 0 1.68.218 2.108a2 2 0 0 0 .874.874C55.52 42 56.08 42 57.2 42h1.6c1.12 0 1.68 0 2.108-.218a2 2 0 0 0 .874-.874C62 40.48 62 39.92 62 38.8v-1.6c0-1.12 0-1.68-.218-2.108a2 2 0 0 0-.874-.874C60.48 34 59.92 34 58.8 34h-1.6c-1.12 0-1.68 0-2.108.218a2 2 0 0 0-.874.874Zm0 10C54 45.52 54 46.08 54 47.2v1.6c0 1.12 0 1.68.218 2.108a2 2 0 0 0 .874.874C55.52 52 56.08 52 57.2 52h1.6c1.12 0 1.68 0 2.108-.218a2 2 0 0 0 .874-.874C62 50.48 62 49.92 62 48.8v-1.6c0-1.12 0-1.68-.218-2.108a2 2 0 0 0-.874-.874C60.48 44 59.92 44 58.8 44h-1.6c-1.12 0-1.68 0-2.108.218a2 2 0 0 0-.874.874Zm0 10C54 55.52 54 56.08 54 57.2v1.6c0 1.12 0 1.68.218 2.108a2 2 0 0 0 .874.874C55.52 62 56.08 62 57.2 62h1.6c1.12 0 1.68 0 2.108-.218a2 2 0 0 0 .874-.874C62 60.48 62 59.92 62 58.8v-1.6c0-1.12 0-1.68-.218-2.108a2 2 0 0 0-.874-.874C60.48 54 59.92 54 58.8 54h-1.6c-1.12 0-1.68 0-2.108.218a2 2 0 0 0-.874.874Zm10-30C64 25.52 64 26.08 64 27.2v1.6c0 1.12 0 1.68.218 2.108a2 2 0 0 0 .874.874C65.52 32 66.08 32 67.2 32h1.6c1.12 0 1.68 0 2.108-.218a2 2 0 0 0 .874-.874C72 30.48 72 29.92 72 28.8v-1.6c0-1.12 0-1.68-.218-2.108a2 2 0 0 0-.874-.874C70.48 24 69.92 24 68.8 24h-1.6c-1.12 0-1.68 0-2.108.218a2 2 0 0 0-.874.874Zm0 10C64 35.52 64 36.08 64 37.2v1.6c0 1.12 0 1.68.218 2.108a2 2 0 0 0 .874.874C65.52 42 66.08 42 67.2 42h1.6c1.12 0 1.68 0 2.108-.218a2 2 0 0 0 .874-.874C72 40.48 72 39.92 72 38.8v-1.6c0-1.12 0-1.68-.218-2.108a2 2 0 0 0-.874-.874C70.48 34 69.92 34 68.8 34h-1.6c-1.12 0-1.68 0-2.108.218a2 2 0 0 0-.874.874Zm0 10C64 45.52 64 46.08 64 47.2v1.6c0 1.12 0 1.68.218 2.108a2 2 0 0 0 .874.874C65.52 52 66.08 52 67.2 52h1.6c1.12 0 1.68 0 2.108-.218a2 2 0 0 0 .874-.874C72 50.48 72 49.92 72 48.8v-1.6c0-1.12 0-1.68-.218-2.108a2 2 0 0 0-.874-.874C70.48 44 69.92 44 68.8 44h-1.6c-1.12 0-1.68 0-2.108.218a2 2 0 0 0-.874.874Zm0 10C64 55.52 64 56.08 64 57.2v1.6c0 1.12 0 1.68.218 2.108a2 2 0 0 0 .874.874C65.52 62 66.08 62 67.2 62h1.6c1.12 0 1.68 0 2.108-.218a2 2 0 0 0 .874-.874C72 60.48 72 59.92 72 58.8v-1.6c0-1.12 0-1.68-.218-2.108a2 2 0 0 0-.874-.874C70.48 54 69.92 54 68.8 54h-1.6c-1.12 0-1.68 0-2.108.218a2 2 0 0 0-.874.874Zm10-30C74 25.52 74 26.08 74 27.2v1.6c0 1.12 0 1.68.218 2.108a2 2 0 0 0 .874.874C75.52 32 76.08 32 77.2 32h1.6c1.12 0 1.68 0 2.108-.218a2 2 0 0 0 .874-.874C82 30.48 82 29.92 82 28.8v-1.6c0-1.12 0-1.68-.218-2.108a2 2 0 0 0-.874-.874C80.48 24 79.92 24 78.8 24h-1.6c-1.12 0-1.68 0-2.108.218a2 2 0 0 0-.874.874Zm0 10C74 35.52 74 36.08 74 37.2v1.6c0 1.12 0 1.68.218 2.108a2 2 0 0 0 .874.874C75.52 42 76.08 42 77.2 42h1.6c1.12 0 1.68 0 2.108-.218a2 2 0 0 0 .874-.874C82 40.48 82 39.92 82 38.8v-1.6c0-1.12 0-1.68-.218-2.108a2 2 0 0 0-.874-.874C80.48 34 79.92 34 78.8 34h-1.6c-1.12 0-1.68 0-2.108.218a2 2 0 0 0-.874.874Zm0 10C74 45.52 74 46.08 74 47.2v1.6c0 1.12 0 1.68.218 2.108a2 2 0 0 0 .874.874C75.52 52 76.08 52 77.2 52h1.6c1.12 0 1.68 0 2.108-.218a2 2 0 0 0 .874-.874C82 50.48 82 49.92 82 48.8v-1.6c0-1.12 0-1.68-.218-2.108a2 2 0 0 0-.874-.874C80.48 44 79.92 44 78.8 44h-1.6c-1.12 0-1.68 0-2.108.218a2 2 0 0 0-.874.874Zm10-20C84 25.52 84 26.08 84 27.2v1.6c0 1.12 0 1.68.218 2.108a2 2 0 0 0 .874.874C85.52 32 86.08 32 87.2 32h1.6c1.12 0 1.68 0 2.108-.218a2 2 0 0 0 .874-.874C92 30.48 92 29.92 92 28.8v-1.6c0-1.12 0-1.68-.218-2.108a2 2 0 0 0-.874-.874C90.48 24 89.92 24 88.8 24h-1.6c-1.12 0-1.68 0-2.108.218a2 2 0 0 0-.874.874Zm0 10C84 35.52 84 36.08 84 37.2v1.6c0 1.12 0 1.68.218 2.108a2 2 0 0 0 .874.874C85.52 42 86.08 42 87.2 42h1.6c1.12 0 1.68 0 2.108-.218a2 2 0 0 0 .874-.874C92 40.48 92 39.92 92 38.8v-1.6c0-1.12 0-1.68-.218-2.108a2 2 0 0 0-.874-.874C90.48 34 89.92 34 88.8 34h-1.6c-1.12 0-1.68 0-2.108.218a2 2 0 0 0-.874.874Zm0 10C84 45.52 84 46.08 84 47.2v1.6c0 1.12 0 1.68.218 2.108a2 2 0 0 0 .874.874C85.52 52 86.08 52 87.2 52h1.6c1.12 0 1.68 0 2.108-.218a2 2 0 0 0 .874-.874C92 50.48 92 49.92 92 48.8v-1.6c0-1.12 0-1.68-.218-2.108a2 2 0 0 0-.874-.874C90.48 44 89.92 44 88.8 44h-1.6c-1.12 0-1.68 0-2.108.218a2 2 0 0 0-.874.874Zm-56.51-28.385a1 1 0 0 0 0-1.414L26.413 14l1.293-1.293a1 1 0 0 0-1.414-1.414L25 12.586a2 2 0 0 0 0 2.828l1.293 1.293a1 1 0 0 0 1.414 0ZM50 14a1 1 0 0 0 1 1h14a1 1 0 1 0 0-2H51a1 1 0 0 0-1 1Z"
        fill="currentColor"
    ></path>
</svg>