      <svg
        width="116"
        height="72"
        fill="none"
        xmlns="http://www.w3.org/2000/svg"
      >
        <path
          d="m71.424 20.687-.934-4.361-1.567 4.361h2.501Z"
          fill="currentColor"
        ></path>
        <path
          fill-rule="evenodd"
          clip-rule="evenodd"
          d="M32 0a4 4 0 0 0-4 4v30a4 4 0 0 0 4 4h52a4 4 0 0 0 4-4V4a4 4 0 0 0-4-4H32Zm25.143 16.881c0-2.518 2.35-3.881 4.98-3.881 1.684 0 2.878.515 2.878.515l-.53 2.455s-1.098-.556-2.444-.556c-1.192 0-1.767.524-1.767 1.003 0 .537.667.891 1.468 1.316 1.207.64 2.718 1.442 2.718 3.276 0 2.561-2.263 3.991-5.138 3.991-1.94 0-3.4-.645-3.4-.645l.542-2.542s1.268.764 2.965.764c1.196 0 1.896-.547 1.896-1.157 0-.602-.717-.989-1.556-1.441-1.184-.638-2.612-1.408-2.612-3.098ZM38 13.556l.064-.37h5.02c.725 0 1.317.437 1.434 1.203l1.275 6.7 3.124-7.904h3.15L47.204 24.81h-3.156l-2.355-9.077c-.216-.837-.307-1.107-1.59-1.57-.997-.404-2.103-.606-2.103-.606Zm12.862 11.253 2.47-11.624h2.995L53.865 24.81h-3.003Zm17.83-10.559c.281-.677.665-1.065 1.389-1.065h2.531l2.424 11.624h-2.778l-.37-1.76H68.05l-.61 1.76h-3.149l4.4-10.559Z"
          fill="currentColor"
        ></path>
        <path
          d="M29 43a1 1 0 0 1 1-1h22a1 1 0 1 1 0 2H30a1 1 0 0 1-1-1ZM33 46a4 4 0 0 0 0 8h50a4 4 0 0 0 0-8H33ZM29 61a1 1 0 0 1 1-1h22a1 1 0 1 1 0 2H30a1 1 0 0 1-1-1ZM33 64a4 4 0 0 0 0 8h50a4 4 0 0 0 0-8H33Z"
          fill="currentColor"
        ></path>
      </svg>