<svg
width="116"
height="72"
fill="none"
xmlns="http://www.w3.org/2000/svg"
>
    <path
        fill-rule="evenodd"
        clip-rule="evenodd"
        d="M24 16a8 8 0 1 0 0-16 8 8 0 0 0 0 16Zm1.147-10.559-.264-.987c-.241-.905-1.525-.905-1.766 0l-.264.987c-.111.418-.5.7-.932.678l-1.02-.055c-.936-.05-1.332 1.171-.547 1.68l.858.556a.914.914 0 0 1 .356 1.096l-.367.954c-.337.874.702 1.628 1.43 1.038l.793-.644a.914.914 0 0 1 1.152 0l.794.644c.727.59 1.766-.164 1.43-1.038l-.368-.954a.914.914 0 0 1 .356-1.096l.858-.556c.785-.509.389-1.73-.546-1.68l-1.02.055a.914.914 0 0 1-.933-.678Z"
        fill="currentColor"
    ></path>
    <path
        d="M38 5a1 1 0 1 0 0 2h46a1 1 0 1 0 0-2H38ZM38 20a1 1 0 1 0 0 2h22a1 1 0 1 0 0-2H38ZM37 31a1 1 0 0 1 1-1h22a1 1 0 1 1 0 2H38a1 1 0 0 1-1-1ZM37 35a1 1 0 0 1 1-1h60a1 1 0 1 1 0 2H38a1 1 0 0 1-1-1ZM38 38a1 1 0 1 0 0 2h60a1 1 0 1 0 0-2H38ZM37 43a1 1 0 0 1 1-1h60a1 1 0 1 1 0 2H38a1 1 0 0 1-1-1ZM38 58a1 1 0 1 0 0 2h22a1 1 0 1 0 0-2H38ZM37 63a1 1 0 0 1 1-1h60a1 1 0 1 1 0 2H38a1 1 0 0 1-1-1ZM38 66a1 1 0 1 0 0 2h60a1 1 0 1 0 0-2H38ZM37 71a1 1 0 0 1 1-1h60a1 1 0 1 1 0 2H38a1 1 0 0 1-1-1ZM38 48a1 1 0 1 0 0 2h22a1 1 0 1 0 0-2H38ZM37 53a1 1 0 0 1 1-1h46a1 1 0 1 1 0 2H38a1 1 0 0 1-1-1ZM37 25a1 1 0 0 1 1-1h46a1 1 0 1 1 0 2H38a1 1 0 0 1-1-1ZM37 10a1 1 0 0 1 1-1h22a1 1 0 1 1 0 2H38a1 1 0 0 1-1-1Z"
        fill="currentColor"
    ></path>
</svg>