<svg
width="116"
height="72"
fill="none"
xmlns="http://www.w3.org/2000/svg"
>
    <path
        d="M24 0a6 6 0 1 0 0 12 6 6 0 0 0 0-12ZM37 3a1 1 0 1 0 0 2h30a1 1 0 1 0 0-2H37ZM36 8a1 1 0 0 0 1 1h14a1 1 0 1 0 0-2H37a1 1 0 0 0-1 1ZM37 19a1 1 0 1 1 0-2h14a1 1 0 1 1 0 2H37ZM36 46a1 1 0 0 1 1-1h30a1 1 0 1 1 0 2H37a1 1 0 0 1-1-1ZM37 51a1 1 0 1 1 0-2h14a1 1 0 1 1 0 2H37ZM40 24a1 1 0 0 1 1-1h52a1 1 0 1 1 0 2H41a1 1 0 0 1-1-1ZM41 27a1 1 0 1 0 0 2h52a1 1 0 1 0 0-2H41ZM40 32a1 1 0 0 1 1-1h52a1 1 0 1 1 0 2H41a1 1 0 0 1-1-1ZM41 35a1 1 0 1 0 0 2h38a1 1 0 1 0 0-2H41ZM40 56a1 1 0 0 1 1-1h52a1 1 0 1 1 0 2H41a1 1 0 0 1-1-1ZM41 59a1 1 0 1 0 0 2h52a1 1 0 1 0 0-2H41ZM40 64a1 1 0 0 1 1-1h52a1 1 0 1 1 0 2H41a1 1 0 0 1-1-1ZM41 67a1 1 0 1 0 0 2h38a1 1 0 1 0 0-2H41Z"
        fill="currentColor"
    ></path>
</svg>