<svg
width="116"
height="72"
fill="none"
xmlns="http://www.w3.org/2000/svg"
>
    <path
        d="M.218 4.092C0 4.52 0 5.08 0 6.2v3.6c0 1.12 0 1.68.218 2.108a2 2 0 0 0 .874.874C1.52 13 2.08 13 3.2 13h9.6c1.12 0 1.68 0 2.108-.218a2 2 0 0 0 .874-.874C16 11.48 16 10.92 16 9.8V6.2c0-1.12 0-1.68-.218-2.108a2 2 0 0 0-.874-.874C14.48 3 13.92 3 12.8 3H3.2c-1.12 0-1.68 0-2.108.218a2 2 0 0 0-.874.874ZM102 4a2 2 0 0 0-2 2v4a2 2 0 0 0 2 2h12a2 2 0 0 0 2-2V6a2 2 0 0 0-2-2h-12ZM20 6a1 1 0 0 1 1-1h6a1 1 0 1 1 0 2h-6a1 1 0 0 1-1-1ZM21 9a1 1 0 1 0 0 2h14a1 1 0 1 0 0-2H21ZM77 5a1 1 0 1 0 0 2h6a1 1 0 1 0 0-2h-6ZM77 9a1 1 0 1 0 0 2h14a1 1 0 1 0 0-2H77ZM77 25a1 1 0 1 0 0 2h6a1 1 0 1 0 0-2h-6ZM77 29a1 1 0 1 0 0 2h14a1 1 0 1 0 0-2H77ZM77 45a1 1 0 1 0 0 2h6a1 1 0 1 0 0-2h-6ZM77 49a1 1 0 1 0 0 2h14a1 1 0 1 0 0-2H77ZM45 65a1 1 0 1 0 0 2h6a1 1 0 1 0 0-2h-6ZM45 69a1 1 0 1 0 0 2h14a1 1 0 1 0 0-2H45ZM20 26a1 1 0 0 1 1-1h6a1 1 0 1 1 0 2h-6a1 1 0 0 1-1-1ZM20 30a1 1 0 0 1 1-1h14a1 1 0 1 1 0 2H21a1 1 0 0 1-1-1ZM21 45a1 1 0 1 0 0 2h6a1 1 0 1 0 0-2h-6ZM21 49a1 1 0 1 0 0 2h14a1 1 0 1 0 0-2H21ZM102 24a2 2 0 0 0-2 2v4a2 2 0 0 0 2 2h12a2 2 0 0 0 2-2v-4a2 2 0 0 0-2-2h-12ZM102 44a2 2 0 0 0-2 2v4a2 2 0 0 0 2 2h12a2 2 0 0 0 2-2v-4a2 2 0 0 0-2-2h-12ZM94 64a2 2 0 0 0-2 2v4a2 2 0 0 0 2 2h20a2 2 0 0 0 2-2v-4a2 2 0 0 0-2-2H94ZM66 64a2 2 0 0 0-2 2v4a2 2 0 0 0 2 2h20a2 2 0 0 0 2-2v-4a2 2 0 0 0-2-2H66ZM44 8a1 1 0 0 1 1-1h4a1 1 0 1 1 0 2h-4a1 1 0 0 1-1-1ZM54 4a2 2 0 0 0-2 2v4a2 2 0 0 0 2 2h4a2 2 0 0 0 2-2V6a2 2 0 0 0-2-2h-4ZM64 6a1 1 0 1 1 2 0v1h1a1 1 0 1 1 0 2h-1v1a1 1 0 1 1-2 0V9h-1a1 1 0 1 1 0-2h1V6ZM44 28a1 1 0 0 1 1-1h4a1 1 0 1 1 0 2h-4a1 1 0 0 1-1-1ZM54 24a2 2 0 0 0-2 2v4a2 2 0 0 0 2 2h4a2 2 0 0 0 2-2v-4a2 2 0 0 0-2-2h-4ZM64 26a1 1 0 1 1 2 0v1h1a1 1 0 1 1 0 2h-1v1a1 1 0 1 1-2 0v-1h-1a1 1 0 1 1 0-2h1v-1ZM44 48a1 1 0 0 1 1-1h4a1 1 0 1 1 0 2h-4a1 1 0 0 1-1-1ZM54 44a2 2 0 0 0-2 2v4a2 2 0 0 0 2 2h4a2 2 0 0 0 2-2v-4a2 2 0 0 0-2-2h-4ZM64 46a1 1 0 1 1 2 0v1h1a1 1 0 1 1 0 2h-1v1a1 1 0 1 1-2 0v-1h-1a1 1 0 1 1 0-2h1v-1ZM0 18a1 1 0 0 1 1-1h114a1 1 0 0 1 0 2H1a1 1 0 0 1-1-1ZM1 37a1 1 0 1 0 0 2h114a1 1 0 0 0 0-2H1ZM0 58a1 1 0 0 1 1-1h114a1 1 0 0 1 0 2H1a1 1 0 0 1-1-1ZM0 26.2c0-1.12 0-1.68.218-2.108a2 2 0 0 1 .874-.874C1.52 23 2.08 23 3.2 23h9.6c1.12 0 1.68 0 2.108.218a2 2 0 0 1 .874.874C16 24.52 16 25.08 16 26.2v3.6c0 1.12 0 1.68-.218 2.108a2 2 0 0 1-.874.874C14.48 33 13.92 33 12.8 33H3.2c-1.12 0-1.68 0-2.108-.218a2 2 0 0 1-.874-.874C0 31.48 0 30.92 0 29.8v-3.6ZM.218 44.092C0 44.52 0 45.08 0 46.2v3.6c0 1.12 0 1.68.218 2.108a2 2 0 0 0 .874.874C1.52 53 2.08 53 3.2 53h9.6c1.12 0 1.68 0 2.108-.218a2 2 0 0 0 .874-.874C16 51.48 16 50.92 16 49.8v-3.6c0-1.12 0-1.68-.218-2.108a2 2 0 0 0-.874-.874C14.48 43 13.92 43 12.8 43H3.2c-1.12 0-1.68 0-2.108.218a2 2 0 0 0-.874.874Z"
        fill="currentColor"
    ></path>
</svg>