<svg
width="116"
height="72"
fill="none"
xmlns="http://www.w3.org/2000/svg"
>
    <g
        clip-path="url(#chat_svg__a)"
        fill="currentColor"
    >
        <path d="M7 14A7 7 0 1 0 7 0a7 7 0 0 0 0 14Z"></path>
        <path
        fill-rule="evenodd"
        clip-rule="evenodd"
        d="M20 0h59.6c2.24 0 3.36 0 4.216.436a4 4 0 0 1 1.748 1.748C86 3.04 86 4.16 86 6.4v7.2c0 2.24 0 3.36-.436 4.216a4 4 0 0 1-1.748 1.748C82.96 20 81.84 20 79.6 20H26.4c-2.24 0-3.36 0-4.216-.436a4 4 0 0 1-1.748-1.748C20 16.96 20 15.84 20 13.6V0Zm5 6a1 1 0 0 1 1-1h54a1 1 0 1 1 0 2H26a1 1 0 0 1-1-1Zm1 3a1 1 0 1 0 0 2h54a1 1 0 1 0 0-2H26Zm-1 5a1 1 0 0 1 1-1h38a1 1 0 1 1 0 2H26a1 1 0 0 1-1-1ZM79.6 52H20v13.6c0 2.24 0 3.36.436 4.216a4 4 0 0 0 1.748 1.748C23.04 72 24.16 72 26.4 72h53.2c2.24 0 3.36 0 4.216-.436a4 4 0 0 0 1.748-1.748C86 68.96 86 67.84 86 65.6v-7.2c0-2.24 0-3.36-.436-4.216a4 4 0 0 0-1.748-1.748C82.96 52 81.84 52 79.6 52ZM26 57a1 1 0 1 0 0 2h54a1 1 0 1 0 0-2H26Zm-1 5a1 1 0 0 1 1-1h54a1 1 0 1 1 0 2H26a1 1 0 0 1-1-1Zm1 3a1 1 0 1 0 0 2h38a1 1 0 1 0 0-2H26Z"
        ></path>
        <path d="M7 66a7 7 0 1 0 0-14 7 7 0 0 0 0 14Z"></path>
        <path
        fill-rule="evenodd"
        clip-rule="evenodd"
        d="M34 26a4 4 0 0 0-4 4v12a4 4 0 0 0 4 4h58a4 4 0 0 0 4-4V26H34Zm2 5a1 1 0 1 0 0 2h54a1 1 0 1 0 0-2H36Zm-1 5a1 1 0 0 1 1-1h54a1 1 0 1 1 0 2H36a1 1 0 0 1-1-1Zm1 3a1 1 0 1 0 0 2h38a1 1 0 1 0 0-2H36Z"
        ></path>
        <path d="M109 40a7 7 0 1 0 0-14 7 7 0 0 0 0 14Z"></path>
    </g>
    <defs>
        <clipPath id="chat_svg__a">
        <path
            fill="#fff"
            d="M0 0h116v72H0z"
        ></path>
        </clipPath>
    </defs>
</svg>