      <svg
        width="116"
        height="72"
        fill="none"
        xmlns="http://www.w3.org/2000/svg"
      >
        <path
          d="M71.707 3.707a1 1 0 1 0-1.414-1.414L55 17.586l-6.293-6.293a1 1 0 0 0-1.414 1.414L53.586 19a2 2 0 0 0 2.828 0L71.707 3.707ZM2 27a2 2 0 1 0 0 4h32a2 2 0 1 0 0-4H2ZM2 34a2 2 0 1 0 0 4h32a2 2 0 1 0 0-4H2ZM0 43a2 2 0 0 1 2-2h32a2 2 0 1 1 0 4H2a2 2 0 0 1-2-2ZM45 28a1 1 0 1 0 0 2h26a1 1 0 1 0 0-2H45ZM44 36a1 1 0 0 1 1-1h26a1 1 0 1 1 0 2H45a1 1 0 0 1-1-1ZM45 42a1 1 0 1 0 0 2h26a1 1 0 1 0 0-2H45ZM80 29a1 1 0 0 1 1-1h34a1 1 0 0 1 0 2H81a1 1 0 0 1-1-1ZM81 35a1 1 0 1 0 0 2h34a1 1 0 0 0 0-2H81ZM80 43a1 1 0 0 1 1-1h34a1 1 0 0 1 0 2H81a1 1 0 0 1-1-1ZM41.304 62.47C41 63.203 41 64.135 41 66c0 1.864 0 2.796.304 3.53a4 4 0 0 0 2.165 2.165C44.204 72 45.136 72 47 72h21c1.864 0 2.796 0 3.53-.305a4 4 0 0 0 2.165-2.164C74 68.796 74 67.864 74 66s0-2.796-.305-3.53a4 4 0 0 0-2.164-2.166C70.796 60 69.864 60 68 60H47c-1.864 0-2.796 0-3.53.304a4 4 0 0 0-2.166 2.165ZM80 51.5a3.5 3.5 0 0 1 3.5-3.5h29a3.5 3.5 0 1 1 0 7h-29a3.5 3.5 0 0 1-3.5-3.5Z"
          fill="currentColor"
        ></path>
      </svg>