      <svg
        width="116"
        height="72"
        fill="none"
        xmlns="http://www.w3.org/2000/svg"
      >
        <path
          d="M30 7a7 7 0 1 1-14 0 7 7 0 0 1 14 0ZM36 1a1 1 0 0 1 1-1h22a1 1 0 1 1 0 2H37a1 1 0 0 1-1-1ZM37 4a1 1 0 1 0 0 2h62a1 1 0 1 0 0-2H37ZM36 9a1 1 0 0 1 1-1h62a1 1 0 1 1 0 2H37a1 1 0 0 1-1-1ZM37 12a1 1 0 1 0 0 2h38a1 1 0 1 0 0-2H37ZM30 25a7 7 0 1 1-14 0 7 7 0 0 1 14 0ZM37 18a1 1 0 1 0 0 2h22a1 1 0 1 0 0-2H37ZM36 23a1 1 0 0 1 1-1h62a1 1 0 1 1 0 2H37a1 1 0 0 1-1-1ZM37 26a1 1 0 1 0 0 2h62a1 1 0 1 0 0-2H37ZM36 31a1 1 0 0 1 1-1h38a1 1 0 1 1 0 2H37a1 1 0 0 1-1-1ZM23 50a7 7 0 1 0 0-14 7 7 0 0 0 0 14ZM36 42.4c0-2.24 0-3.36.436-4.216a4 4 0 0 1 1.748-1.748C39.04 36 40.16 36 42.4 36h51.2c2.24 0 3.36 0 4.216.436a4 4 0 0 1 1.748 1.748c.436.856.436 1.976.436 4.216v9.2c0 2.24 0 3.36-.436 4.216a4 4 0 0 1-1.748 1.748C96.96 58 95.84 58 93.6 58H42.4c-2.24 0-3.36 0-4.216-.436a4 4 0 0 1-1.748-1.748C36 54.96 36 53.84 36 51.6v-9.2ZM40 60a4 4 0 0 0-4 4v4a4 4 0 0 0 4 4h30a4 4 0 0 0 4-4v-4a4 4 0 0 0-4-4H40Z"
          fill="currentColor"
        ></path>
      </svg>