      <svg
        width="116"
        height="72"
        fill="none"
        xmlns="http://www.w3.org/2000/svg"
      >
        <g
          clip-path="url(#compare_svg__a)"
          fill="currentColor"
        >
          <path
            d="M40.436 2.184C40 3.04 40 4.16 40 6.4v9.2c0 2.24 0 3.36.436 4.216a4 4 0 0 0 1.748 1.748C43.04 22 44.16 22 46.4 22h23.2c2.24 0 3.36 0 4.216-.436a4 4 0 0 0 1.748-1.748C76 18.96 76 17.84 76 15.6V6.4c0-2.24 0-3.36-.436-4.216A4 4 0 0 0 73.816.436C72.96 0 71.84 0 69.6 0H46.4c-2.24 0-3.36 0-4.216.436a4 4 0 0 0-1.748 1.748ZM41 26a1 1 0 1 0 0 2h34a1 1 0 1 0 0-2H41ZM40 31a1 1 0 0 1 1-1h18a1 1 0 1 1 0 2H41a1 1 0 0 1-1-1ZM80.436 2.184C80 3.04 80 4.16 80 6.4v9.2c0 2.24 0 3.36.436 4.216a4 4 0 0 0 1.748 1.748C83.04 22 84.16 22 86.4 22h23.2c2.24 0 3.36 0 4.216-.436a3.996 3.996 0 0 0 1.748-1.748C116 18.96 116 17.84 116 15.6V6.4c0-2.24 0-3.36-.436-4.216a3.996 3.996 0 0 0-1.748-1.748C112.96 0 111.84 0 109.6 0H86.4c-2.24 0-3.36 0-4.216.436a4 4 0 0 0-1.748 1.748ZM80 27a1 1 0 0 1 1-1h34a1 1 0 0 1 0 2H81a1 1 0 0 1-1-1ZM81 30a1 1 0 1 0 0 2h18a1 1 0 1 0 0-2H81ZM0 40a1 1 0 0 1 1-1h30a1 1 0 1 1 0 2H1a1 1 0 0 1-1-1ZM41 39a1 1 0 1 0 0 2h34a1 1 0 1 0 0-2H41ZM40 44a1 1 0 0 1 1-1h34a1 1 0 1 1 0 2H41a1 1 0 0 1-1-1ZM41 47a1 1 0 1 0 0 2h34a1 1 0 1 0 0-2H41ZM40 52a1 1 0 0 1 1-1h22a1 1 0 1 1 0 2H41a1 1 0 0 1-1-1ZM1 43a1 1 0 1 0 0 2h18a1 1 0 1 0 0-2H1ZM0 63a1 1 0 0 1 1-1h18a1 1 0 1 1 0 2H1a1 1 0 0 1-1-1ZM81 39a1 1 0 1 0 0 2h34a1 1 0 0 0 0-2H81ZM80 44a1 1 0 0 1 1-1h34a1 1 0 0 1 0 2H81a1 1 0 0 1-1-1ZM81 47a1 1 0 1 0 0 2h34a1 1 0 0 0 0-2H81ZM80 52a1 1 0 0 1 1-1h22a1 1 0 0 1 0 2H81a1 1 0 0 1-1-1ZM1 58a1 1 0 1 0 0 2h30a1 1 0 1 0 0-2H1ZM40 59a1 1 0 0 1 1-1h34a1 1 0 1 1 0 2H41a1 1 0 0 1-1-1ZM41 62a1 1 0 1 0 0 2h34a1 1 0 1 0 0-2H41ZM40 67a1 1 0 0 1 1-1h34a1 1 0 1 1 0 2H41a1 1 0 0 1-1-1ZM41 70a1 1 0 1 0 0 2h22a1 1 0 1 0 0-2H41ZM80 59a1 1 0 0 1 1-1h34a1 1 0 0 1 0 2H81a1 1 0 0 1-1-1ZM81 62a1 1 0 1 0 0 2h34a1 1 0 0 0 0-2H81ZM80 67a1 1 0 0 1 1-1h34a1 1 0 0 1 0 2H81a1 1 0 0 1-1-1ZM81 70a1 1 0 1 0 0 2h22a1 1 0 0 0 0-2H81Z"
          ></path>
        </g>
        <defs>
          <clipPath id="compare_svg__a">
            <path
              fill="#fff"
              d="M0 0h116v72H0z"
            ></path>
          </clipPath>
        </defs>
      </svg>