      <svg
        width="116"
        height="72"
        fill="none"
        xmlns="http://www.w3.org/2000/svg"
      >
        <g
          clip-path="url(#contacts_svg__a)"
          fill="currentColor"
        >
          <path
            d="M23.721 0H6.4C4.16 0 3.04 0 2.184.436A4 4 0 0 0 .436 2.184c-.263.517-.368 1.13-.409 2.028h23.694V0ZM25.55 0h13.407v4.212H25.55V0ZM40.785 0h13.987l-4.236 4.212h-9.75V0ZM0 6.03h23.721v6.667h-5.787c-5.217 0-9.449 4.206-9.449 9.393v8.183H0V6.03ZM0 32.09v5.51c0 2.24 0 3.36.436 4.216a4 4 0 0 0 1.748 1.748C3.04 44 4.16 44 6.4 44h2.085V32.09H0ZM10.313 44h.214l6.694-6.657c-1.377-1.445-2.292-3.27-2.56-5.252h-4.348V44ZM29.518 44H13.112l5.484-5.453c1.735 1.265 3.924 2.029 6.344 2.029 5.041 0 9.393-4.13 9.73-9.081h4.287v6.814A14.332 14.332 0 0 0 29.518 44ZM31.879 44h7.078v-3.85A12.495 12.495 0 0 0 31.88 44ZM49.318 44h-8.533v-4.027c1.912-.045 3.828-.031 5.743-.017.93.007 1.86.014 2.79.014V44ZM51.146 44h29.863V31.495h-9.142v8.475H51.146V44ZM101.73 44H82.838V31.495h18.892V44ZM116 37.6v-6.105h-12.441V44h6.041c2.24 0 3.36 0 4.216-.436a3.996 3.996 0 0 0 1.748-1.748C116 40.96 116 39.84 116 37.6ZM116 9.677v20h-12.441c0-6.751-4.69-12.737-11.88-12.736h-8.841V0h6.703v9.677H116Z"
          ></path>
          <path
            d="M109.6 0H91.37v7.858H116V6.4c0-2.24 0-3.36-.436-4.216a3.996 3.996 0 0 0-1.748-1.748C112.96 0 111.84 0 109.6 0ZM81.01 0H61.506v4.212h3.356c3.868 0 7.004 3.12 7.004 6.967v5.764h9.142V0ZM59.679 0h-2.321l-4.236 4.212h6.557V0ZM51.294 6.03h8.385v12.733l10.36-.001v10.915H51.146V18.455c0-3.18-2.592-5.758-5.789-5.758h-.767l6.704-6.667Z"
          ></path>
          <path
            d="M70.039 16.944v-5.765c0-2.843-2.318-5.149-5.176-5.149h-3.356v10.915l8.532-.002ZM71.867 29.677V18.76h9.142v10.916h-9.142ZM101.73 29.677c0-5.756-3.86-10.919-10.052-10.918l-8.84.001v10.916h18.892ZM70.039 31.495v6.656H51.146v-6.656h18.893ZM40.785 16.48v13.197h8.533V18.455c0-2.176-1.773-3.94-3.96-3.94h-2.596l-1.977 1.965ZM40.785 31.495h8.533v6.656c-.928 0-1.856-.006-2.785-.012h-.006c-1.914-.012-3.83-.024-5.742.016v-6.66ZM34.626 29.677h4.331V18.299l-6.306 6.27a10.498 10.498 0 0 1 1.975 5.108ZM23.721 20.642c-5.055.55-8.847 4.508-9.125 9.63h-4.283V22.09c0-4.183 3.413-7.575 7.621-7.575h5.787v6.127ZM38.957 15.727v-1.212H25.55v6.08c2.228.149 4.29 1.1 5.89 2.608l7.518-7.476ZM48.708 6.03l-6.704 6.667h-1.219V6.03h7.923ZM38.957 6.03H25.55v6.667h13.408V6.03Z"
          ></path>
          <path
            d="M24.94 22.394c4.314 0 7.923 3.742 7.923 8.485 0 4.215-3.684 7.879-7.923 7.879-4.77 0-8.532-3.59-8.532-7.88 0-4.82 3.683-8.484 8.532-8.484ZM5 48a1 1 0 1 0 0 2h46a1 1 0 1 0 0-2H5ZM5 52a1 1 0 1 0 0 2h46a1 1 0 1 0 0-2H5ZM4 57a1 1 0 0 1 1-1h22a1 1 0 1 1 0 2H5a1 1 0 0 1-1-1ZM65 48a1 1 0 1 0 0 2h46a1 1 0 0 0 0-2H65ZM64 53a1 1 0 0 1 1-1h46a1 1 0 0 1 0 2H65a1 1 0 0 1-1-1ZM65 56a1 1 0 1 0 0 2h22a1 1 0 1 0 0-2H65ZM6 64a2 2 0 0 0-2 2v4a2 2 0 0 0 2 2h20a2 2 0 0 0 2-2v-4a2 2 0 0 0-2-2H6Z"
          ></path>
        </g>
        <defs>
          <clipPath id="contacts_svg__a">
            <path
              fill="#fff"
              d="M0 0h116v72H0z"
            ></path>
          </clipPath>
        </defs>
      </svg>