      <svg
        width="116"
        height="72"
        fill="none"
        xmlns="http://www.w3.org/2000/svg"
      >
        <path
          d="M18 1a1 1 0 0 1 1-1h22a1 1 0 1 1 0 2H19a1 1 0 0 1-1-1Z"
          fill="currentColor"
        ></path>
        <path
          fill-rule="evenodd"
          clip-rule="evenodd"
          d="M18 8a4 4 0 0 1 4-4h72a4 4 0 0 1 4 4v4a4 4 0 0 1-4 4H22a4 4 0 0 1-4-4V8Zm5 2a1 1 0 0 1 1-1h38a1 1 0 1 1 0 2H24a1 1 0 0 1-1-1Zm70.702-.288a1 1 0 0 0-1.404-1.424L90.97 9.596l-1.268-1.249a1 1 0 0 0-1.404 1.425l1.268 1.25a2 2 0 0 0 2.807 0l1.329-1.31Z"
          fill="currentColor"
        ></path>
        <path
          d="M19 20a1 1 0 1 0 0 2h22a1 1 0 1 0 0-2H19ZM18 28a4 4 0 0 1 4-4h72a4 4 0 0 1 4 4v26a4 4 0 0 1-4 4H22a4 4 0 0 1-4-4V28ZM22 60a4 4 0 0 0-4 4v4a4 4 0 0 0 4 4h30a4 4 0 0 0 4-4v-4a4 4 0 0 0-4-4H22Z"
          fill="currentColor"
        ></path>
      </svg>