      <svg
        width="116"
        height="72"
        fill="none"
        xmlns="http://www.w3.org/2000/svg"
      >
        <path
          fill-rule="evenodd"
          clip-rule="evenodd"
          d="M30.654 9.276C30 10.56 30 12.24 30 15.6v40.8c0 3.36 0 5.04.654 6.324a6 6 0 0 0 2.622 2.622C34.56 66 36.24 66 39.6 66h36.8c3.36 0 5.04 0 6.324-.654a6 6 0 0 0 2.622-2.622C86 61.44 86 59.76 86 56.4V15.6c0-3.36 0-5.04-.654-6.324a6 6 0 0 0-2.622-2.622C81.44 6 79.76 6 76.4 6H39.6c-3.36 0-5.04 0-6.324.654a6 6 0 0 0-2.622 2.622ZM46 16.457c0-.568.46-1.028 1.027-1.028H69.61a1.028 1.028 0 0 1 0 2.057H47.027c-.567 0-1.027-.46-1.027-1.029Zm7.186 3.086a1.028 1.028 0 0 0 0 2.057h10.266a1.028 1.028 0 0 0 0-2.057H53.186Zm4.107 26.164-6.364-6.364a1 1 0 0 1 1.414-1.414L57 42.586V29a1 1 0 0 1 2 0v13.586l4.657-4.657a1 1 0 0 1 1.414 1.414l-6.364 6.364a1 1 0 0 1-1.414 0ZM46 51v-4a1 1 0 1 1 2 0v3h20v-3a1 1 0 1 1 2 0v4a1 1 0 0 1-1 1H47a1 1 0 0 1-1-1Z"
          fill="currentColor"
        ></path>
      </svg>