      <svg
        width="116"
        height="72"
        fill="none"
        xmlns="http://www.w3.org/2000/svg"
      >
        <path
          fill-rule="evenodd"
          clip-rule="evenodd"
          d="M30.654 9.276C30 10.56 30 12.24 30 15.6v40.8c0 3.36 0 5.04.654 6.324a6 6 0 0 0 2.622 2.622C34.56 66 36.24 66 39.6 66h36.8c3.36 0 5.04 0 6.324-.654a6 6 0 0 0 2.622-2.622C86 61.44 86 59.76 86 56.4V15.6c0-3.36 0-5.04-.654-6.324a6 6 0 0 0-2.622-2.622C81.44 6 79.76 6 76.4 6H39.6c-3.36 0-5.04 0-6.324.654a6 6 0 0 0-2.622 2.622ZM51.25 20.66a1.125 1.125 0 0 0-1.591 1.591l6.75 6.75-6.75 6.659a1.125 1.125 0 0 0 1.591 1.591L58 30.591l6.75 6.659a1.125 1.125 0 1 0 1.591-1.591L59.591 29l6.659-6.75a1.125 1.125 0 0 0-1.591-1.591L58 27.409l-6.75-6.75ZM47 49a1 1 0 1 0 0 2h22a1 1 0 1 0 0-2H47Zm6 4a1 1 0 1 0 0 2h10a1 1 0 1 0 0-2H53Z"
          fill="currentColor"
        ></path>
      </svg>