      <svg
        width="116"
        height="72"
        fill="none"
        xmlns="http://www.w3.org/2000/svg"
      >
        <g
          clip-path="url(#features_svg__a)"
          fill="currentColor"
        >
          <path
            fill-rule="evenodd"
            clip-rule="evenodd"
            d="M22 7A7 7 0 1 1 8 7a7 7 0 0 1 14 0Zm-6.334-2.951.3.922a.7.7 0 0 0 .665.484h.97c.678 0 .96.868.411 1.266l-.784.57a.7.7 0 0 0-.255.783l.3.922c.21.645-.528 1.181-1.077.783l-.785-.57a.7.7 0 0 0-.822 0l-.785.57c-.549.398-1.287-.138-1.077-.783l.3-.922a.7.7 0 0 0-.255-.783l-.784-.57c-.549-.398-.267-1.266.411-1.266h.97a.7.7 0 0 0 .666-.484l.3-.922c.209-.645 1.121-.645 1.33 0Z"
          ></path>
          <path
            d="M8 16a1 1 0 1 0 0 2h14a1 1 0 1 0 0-2H8ZM0 36.4c0-2.24 0-3.36.436-4.216a4 4 0 0 1 1.748-1.748C3.04 30 4.16 30 6.4 30h41.2c2.24 0 3.36 0 4.216.436a4 4 0 0 1 1.748 1.748C54 33.04 54 34.16 54 36.4v15.2c0 2.24 0 3.36-.436 4.216a4 4 0 0 1-1.748 1.748C50.96 58 49.84 58 47.6 58H6.4c-2.24 0-3.36 0-4.216-.436a4 4 0 0 1-1.748-1.748C0 54.96 0 53.84 0 51.6V36.4ZM0 63a1 1 0 0 1 1-1h30a1 1 0 1 1 0 2H1a1 1 0 0 1-1-1ZM1 66a1 1 0 1 0 0 2h52a1 1 0 1 0 0-2H1ZM0 71a1 1 0 0 1 1-1h52a1 1 0 1 1 0 2H1a1 1 0 0 1-1-1ZM63 30a1 1 0 1 0 0 2h30a1 1 0 1 0 0-2H63ZM62 35a1 1 0 0 1 1-1h52a1 1 0 0 1 0 2H63a1 1 0 0 1-1-1ZM63 38a1 1 0 1 0 0 2h52a1 1 0 0 0 0-2H63ZM62 50.4c0-2.24 0-3.36.436-4.216a4 4 0 0 1 1.748-1.748C65.04 44 66.16 44 68.4 44h41.2c2.24 0 3.36 0 4.216.436a3.996 3.996 0 0 1 1.748 1.748c.436.856.436 1.976.436 4.216v15.2c0 2.24 0 3.36-.436 4.216a3.996 3.996 0 0 1-1.748 1.748C112.96 72 111.84 72 109.6 72H68.4c-2.24 0-3.36 0-4.216-.436a4 4 0 0 1-1.748-1.748C62 68.96 62 67.84 62 65.6V50.4ZM4 21a1 1 0 0 1 1-1h20a1 1 0 1 1 0 2H5a1 1 0 0 1-1-1ZM51 16a1 1 0 1 0 0 2h14a1 1 0 1 0 0-2H51ZM47 21a1 1 0 0 1 1-1h20a1 1 0 1 1 0 2H48a1 1 0 0 1-1-1ZM94 16a1 1 0 1 0 0 2h14a1 1 0 0 0 0-2H94ZM90 21a1 1 0 0 1 1-1h20a1 1 0 0 1 0 2H91a1 1 0 0 1-1-1Z"
          ></path>
          <path
            fill-rule="evenodd"
            clip-rule="evenodd"
            d="M58 14a7 7 0 1 0 0-14 7 7 0 0 0 0 14Zm.965-9.029-.3-.922c-.209-.645-1.121-.645-1.33 0l-.3.922a.7.7 0 0 1-.666.484h-.97c-.678 0-.96.868-.411 1.266l.784.57a.7.7 0 0 1 .255.783l-.3.922c-.21.645.528 1.181 1.077.783l.785-.57a.7.7 0 0 1 .822 0l.785.57c.549.398 1.287-.138 1.077-.783l-.3-.922a.7.7 0 0 1 .255-.783l.784-.57c.549-.398.267-1.266-.411-1.266h-.97a.7.7 0 0 1-.666-.484ZM108 7a7 7 0 1 1-14 0 7 7 0 0 1 14 0Zm-6.334-2.951.299.922a.7.7 0 0 0 .666.484h.97c.678 0 .96.868.411 1.266l-.784.57a.698.698 0 0 0-.254.783l.299.922c.21.645-.528 1.181-1.077.783l-.785-.57a.699.699 0 0 0-.822 0l-.785.57c-.549.398-1.287-.138-1.077-.783l.3-.922a.7.7 0 0 0-.255-.783l-.784-.57c-.549-.398-.267-1.266.411-1.266h.97a.7.7 0 0 0 .666-.484l.299-.922c.21-.645 1.122-.645 1.332 0Z"
          ></path>
        </g>
        <defs>
          <clipPath id="features_svg__a">
            <path
              fill="#fff"
              d="M0 0h116v72H0z"
            ></path>
          </clipPath>
        </defs>
      </svg>