      <svg
        width="116"
        height="72"
        fill="none"
        xmlns="http://www.w3.org/2000/svg"
      >
        <g
          clip-path="url(#feed_svg__a)"
          fill="currentColor"
        >
          <path
            fill-rule="evenodd"
            clip-rule="evenodd"
            d="M4 0a4 4 0 0 0-4 4v4a4 4 0 0 0 4 4h24a4 4 0 0 0 4-4V4a4 4 0 0 0-4-4H4Zm18.707 4.293a1 1 0 1 0-1.414 1.414L22.586 7a2 2 0 0 0 2.828 0l1.293-1.293a1 1 0 0 0-1.414-1.414L24 5.586l-1.293-1.293ZM6 5a1 1 0 0 0 0 2h8a1 1 0 1 0 0-2H6Z"
          ></path>
          <path d="M64 64a4 4 0 0 0 0 8h12a4 4 0 0 0 0-8H64Z"></path>
          <path
            fill-rule="evenodd"
            clip-rule="evenodd"
            d="M0 19a4 4 0 0 1 4-4h24a4 4 0 0 1 4 4v4a4 4 0 0 1-4 4H4a4 4 0 0 1-4-4v-4Zm21.293.293a1 1 0 0 1 1.414 0L24 20.586l1.293-1.293a1 1 0 0 1 1.414 1.414L25.414 22a2 2 0 0 1-2.828 0l-1.293-1.293a1 1 0 0 1 0-1.414ZM5 21a1 1 0 0 1 1-1h8a1 1 0 1 1 0 2H6a1 1 0 0 1-1-1ZM4 30a4 4 0 0 0-4 4v4a4 4 0 0 0 4 4h24a4 4 0 0 0 4-4v-4a4 4 0 0 0-4-4H4Zm18.707 4.293a1 1 0 0 0-1.414 1.414L22.586 37a2 2 0 0 0 2.828 0l1.293-1.293a1 1 0 0 0-1.414-1.414L24 35.586l-1.293-1.293ZM6 35a1 1 0 1 0 0 2h8a1 1 0 1 0 0-2H6ZM0 49a4 4 0 0 1 4-4h24a4 4 0 0 1 4 4v4a4 4 0 0 1-4 4H4a4 4 0 0 1-4-4v-4Zm21.293.293a1 1 0 0 1 1.414 0L24 50.586l1.293-1.293a1 1 0 0 1 1.414 1.414L25.414 52a2 2 0 0 1-2.828 0l-1.293-1.293a1 1 0 0 1 0-1.414ZM5 51a1 1 0 0 1 1-1h8a1 1 0 1 1 0 2H6a1 1 0 0 1-1-1Z"
          ></path>
          <path
            d="M4 60a4 4 0 0 0-4 4v4a4 4 0 0 0 4 4h24a4 4 0 0 0 4-4v-4a4 4 0 0 0-4-4H4ZM54 7a7 7 0 1 1-14 0 7 7 0 0 1 14 0ZM61 0a1 1 0 1 0 0 2h30a1 1 0 1 0 0-2H61ZM60 5a1 1 0 0 1 1-1h54a1 1 0 0 1 0 2H61a1 1 0 0 1-1-1ZM61 8a1 1 0 1 0 0 2h54a1 1 0 0 0 0-2H61ZM60 13a1 1 0 0 1 1-1h46a1 1 0 0 1 0 2H61a1 1 0 0 1-1-1ZM47 34a7 7 0 1 0 0-14 7 7 0 0 0 0 14ZM60 21a1 1 0 0 1 1-1h30a1 1 0 1 1 0 2H61a1 1 0 0 1-1-1ZM61 24a1 1 0 1 0 0 2h54a1 1 0 0 0 0-2H61ZM60 29a1 1 0 0 1 1-1h54a1 1 0 0 1 0 2H61a1 1 0 0 1-1-1ZM61 32a1 1 0 1 0 0 2h46a1 1 0 0 0 0-2H61ZM54 47a7 7 0 1 1-14 0 7 7 0 0 1 14 0ZM64 40a4 4 0 0 0-4 4v12a4 4 0 0 0 4 4h48a4 4 0 0 0 4-4V44a4 4 0 0 0-4-4H64Z"
          ></path>
        </g>
        <defs>
          <clipPath id="feed_svg__a">
            <path
              fill="#fff"
              d="M0 0h116v72H0z"
            ></path>
          </clipPath>
        </defs>
      </svg>