      <svg
        width="116"
        height="72"
        fill="none"
        xmlns="http://www.w3.org/2000/svg"
      >
        <path
          d="M52.442 55.47c0 1.513-.75 2.27-2.25 2.27h-1.07v-4.53h1.07c1.5 0 2.25.753 2.25 2.26ZM59.81 57.26c-.334.413-.794.62-1.38.62-.587 0-1.047-.207-1.38-.62-.334-.413-.5-1.01-.5-1.79s.163-1.373.49-1.78c.333-.413.796-.62 1.39-.62.593 0 1.056.207 1.39.62.333.407.5 1 .5 1.78s-.17 1.377-.51 1.79Z"
          fill="currentColor"
        ></path>
        <path
          fill-rule="evenodd"
          clip-rule="evenodd"
          d="M34.654 9.276C34 10.56 34 12.24 34 15.6v40.8c0 3.36 0 5.04.654 6.324a6 6 0 0 0 2.622 2.622C38.56 66 40.24 66 43.6 66h28.8c3.36 0 5.04 0 6.324-.654a6 6 0 0 0 2.622-2.622C82 61.44 82 59.76 82 56.4V23.302c0-1.957 0-2.935-.221-3.856a8 8 0 0 0-.958-2.312c-.495-.808-1.186-1.5-2.57-2.883l-4.502-4.502c-1.384-1.384-2.075-2.075-2.883-2.57a8.001 8.001 0 0 0-2.312-.958C67.634 6 66.654 6 64.698 6H43.6c-3.36 0-5.04 0-6.324.654a6 6 0 0 0-2.622 2.622ZM47.752 58.81c.127.127.307.19.54.19h2.01c.774 0 1.437-.14 1.99-.42.554-.28.974-.683 1.26-1.21.294-.533.44-1.167.44-1.9 0-.733-.146-1.363-.44-1.89a2.932 2.932 0 0 0-1.27-1.21c-.553-.28-1.213-.42-1.98-.42h-2.01c-.233 0-.413.063-.54.19-.126.127-.19.307-.19.54v5.59c0 .233.064.413.19.54Zm8.847-.16c.52.293 1.13.44 1.83.44.7 0 1.307-.147 1.82-.44.52-.3.92-.72 1.2-1.26.28-.547.42-1.187.42-1.92 0-.733-.14-1.37-.42-1.91a2.96 2.96 0 0 0-1.2-1.26c-.513-.293-1.12-.44-1.82-.44s-1.31.147-1.83.44c-.513.293-.91.713-1.19 1.26-.28.54-.42 1.177-.42 1.91 0 .733.14 1.373.42 1.92.28.54.677.96 1.19 1.26Zm7.881 0c.52.293 1.127.44 1.82.44.874 0 1.627-.24 2.26-.72a.699.699 0 0 0 .2-.23.646.646 0 0 0 .07-.31c0-.173-.05-.32-.15-.44a.42.42 0 0 0-.35-.19.615.615 0 0 0-.23.04c-.066.02-.15.06-.25.12-.293.173-.55.3-.77.38a2.2 2.2 0 0 1-.7.11c-1.286 0-1.93-.793-1.93-2.38 0-.787.16-1.377.48-1.77.327-.4.81-.6 1.45-.6.26 0 .504.04.73.12.227.073.474.197.74.37.087.06.164.103.23.13.074.02.157.03.25.03.14 0 .257-.06.35-.18.1-.127.15-.277.15-.45 0-.12-.02-.22-.06-.3a.753.753 0 0 0-.21-.24c-.633-.48-1.386-.72-2.26-.72-.693 0-1.3.147-1.82.44a2.96 2.96 0 0 0-1.2 1.26c-.28.54-.42 1.177-.42 1.91 0 .733.14 1.373.42 1.92.28.547.68.967 1.2 1.26Z"
          fill="currentColor"
        ></path>
      </svg>