      <svg
        width="116"
        height="72"
        fill="none"
        xmlns="http://www.w3.org/2000/svg"
      >
        <path
          d="M52.5 54.16c0 .673-.39 1.01-1.17 1.01h-1.48v-2.03h1.48c.78 0 1.17.34 1.17 1.02ZM66.363 55.47c0 1.513-.75 2.27-2.25 2.27h-1.07v-4.53h1.07c1.5 0 2.25.753 2.25 2.26Z"
          fill="currentColor"
        ></path>
        <path
          fill-rule="evenodd"
          clip-rule="evenodd"
          d="M34.654 9.276C34 10.56 34 12.24 34 15.6v40.8c0 3.36 0 5.04.654 6.324a6 6 0 0 0 2.622 2.622C38.56 66 40.24 66 43.6 66h28.8c3.36 0 5.04 0 6.324-.654a6 6 0 0 0 2.622-2.622C82 61.44 82 59.76 82 56.4V23.302c0-1.957 0-2.935-.221-3.856a8 8 0 0 0-.958-2.312c-.495-.808-1.186-1.5-2.57-2.883l-4.502-4.502c-1.384-1.384-2.075-2.075-2.883-2.57a8.001 8.001 0 0 0-2.312-.958C67.634 6 66.654 6 64.698 6H43.6c-3.36 0-5.04 0-6.324.654a6 6 0 0 0-2.622 2.622ZM48.5 58.85c.14.14.33.21.57.21.24 0 .43-.07.57-.21.14-.14.21-.33.21-.57v-1.93h1.68c.767 0 1.363-.193 1.79-.58.426-.387.64-.927.64-1.62 0-.693-.214-1.233-.64-1.62-.427-.387-1.023-.58-1.79-.58h-2.51c-.234 0-.414.063-.54.19-.127.127-.19.307-.19.54v5.6c0 .24.07.43.21.57Zm7.54.06c.453.12.943.18 1.47.18.566 0 1.063-.09 1.49-.27.433-.18.766-.433 1-.76.24-.327.36-.703.36-1.13 0-.547-.2-.977-.6-1.29-.394-.313-1.044-.57-1.95-.77a7.163 7.163 0 0 1-.9-.25c-.207-.08-.357-.17-.45-.27a.614.614 0 0 1-.13-.4c0-.273.116-.487.35-.64.233-.16.553-.24.96-.24.353 0 .643.043.87.13.233.087.486.217.76.39.113.067.2.11.26.13.066.02.136.03.21.03.133 0 .25-.063.35-.19a.663.663 0 0 0 .16-.44c0-.12-.024-.22-.07-.3a.712.712 0 0 0-.21-.25c-.614-.473-1.394-.71-2.34-.71-.54 0-1.027.097-1.46.29-.427.187-.764.45-1.01.79-.24.333-.36.71-.36 1.13 0 .38.083.703.25.97.173.267.443.49.81.67.373.18.87.333 1.49.46.553.113.936.233 1.15.36.22.127.33.293.33.5a.702.702 0 0 1-.35.63c-.234.147-.57.22-1.01.22-.354 0-.677-.04-.97-.12a3.506 3.506 0 0 1-.87-.4c-.1-.06-.187-.1-.26-.12a.56.56 0 0 0-.21-.04c-.134 0-.254.063-.36.19a.69.69 0 0 0-.15.44c0 .127.02.233.06.32.046.08.12.157.22.23.286.227.656.403 1.11.53Zm5.633-.1c.127.127.307.19.54.19h2.01c.773 0 1.437-.14 1.99-.42.553-.28.974-.683 1.26-1.21.293-.533.44-1.167.44-1.9 0-.733-.147-1.363-.44-1.89a2.932 2.932 0 0 0-1.27-1.21c-.553-.28-1.213-.42-1.98-.42h-2.01c-.233 0-.413.063-.54.19-.127.127-.19.307-.19.54v5.59c0 .233.064.413.19.54Z"
          fill="currentColor"
        ></path>
      </svg>