      <svg
        width="116"
        height="72"
        fill="none"
        xmlns="http://www.w3.org/2000/svg"
      >
        <path
          fill-rule="evenodd"
          clip-rule="evenodd"
          d="M34.654 9.276C34 10.56 34 12.24 34 15.6v40.8c0 3.36 0 5.04.654 6.324a6 6 0 0 0 2.622 2.622C38.56 66 40.24 66 43.6 66h28.8c3.36 0 5.04 0 6.324-.654a6 6 0 0 0 2.622-2.622C82 61.44 82 59.76 82 56.4V23.302c0-1.957 0-2.935-.221-3.856a8 8 0 0 0-.958-2.312c-.495-.808-1.186-1.5-2.57-2.883l-4.502-4.502c-1.384-1.384-2.075-2.075-2.883-2.57a8.001 8.001 0 0 0-2.312-.958C67.634 6 66.654 6 64.698 6H43.6c-3.36 0-5.04 0-6.324.654a6 6 0 0 0-2.622 2.622ZM49.355 58.91c.453.12.943.18 1.47.18.567 0 1.063-.09 1.49-.27.433-.18.767-.433 1-.76.24-.327.36-.703.36-1.13 0-.547-.2-.977-.6-1.29-.393-.313-1.043-.57-1.95-.77a7.153 7.153 0 0 1-.9-.25c-.207-.08-.357-.17-.45-.27a.614.614 0 0 1-.13-.4c0-.273.117-.487.35-.64.233-.16.553-.24.96-.24.353 0 .643.043.87.13.233.087.487.217.76.39.113.067.2.11.26.13.067.02.137.03.21.03.133 0 .25-.063.35-.19a.663.663 0 0 0 .16-.44c0-.12-.023-.22-.07-.3a.712.712 0 0 0-.21-.25c-.613-.473-1.393-.71-2.34-.71-.54 0-1.027.097-1.46.29-.427.187-.763.45-1.01.79-.24.333-.36.71-.36 1.13 0 .38.083.703.25.97.173.267.443.49.81.67.373.18.87.333 1.49.46.553.113.937.233 1.15.36.22.127.33.293.33.5a.702.702 0 0 1-.35.63c-.233.147-.57.22-1.01.22a3.68 3.68 0 0 1-.97-.12 3.503 3.503 0 0 1-.87-.4c-.1-.06-.187-.1-.26-.12a.56.56 0 0 0-.21-.04c-.133 0-.253.063-.36.19a.69.69 0 0 0-.15.44c0 .127.02.233.06.32.047.08.12.157.22.23.287.227.657.403 1.11.53ZM60.012 52a.636.636 0 0 0-.26.31l-2.14 4.68-2.14-4.68a.62.62 0 0 0-.27-.31.685.685 0 0 0-.38-.11.874.874 0 0 0-.56.2.616.616 0 0 0-.25.5c0 .1.023.197.07.29l2.7 5.7a.822.822 0 0 0 .33.36c.147.08.307.12.48.12.174 0 .334-.04.48-.12a.82.82 0 0 0 .33-.36l2.7-5.7c.047-.1.07-.2.07-.3a.615.615 0 0 0-.24-.49.822.822 0 0 0-.54-.2.685.685 0 0 0-.38.11Zm7.61 3.27c-.106-.107-.253-.16-.44-.16h-1.71c-.193 0-.343.047-.45.14-.106.093-.16.227-.16.4 0 .173.054.307.16.4.107.093.257.14.45.14h.92v1.55a4.5 4.5 0 0 1-1.15.15c-.713 0-1.246-.2-1.6-.6-.353-.4-.53-1.007-.53-1.82 0-1.58.68-2.37 2.04-2.37.28 0 .537.037.77.11.234.073.49.197.77.37.1.06.184.103.25.13.074.027.154.04.24.04.134 0 .247-.06.34-.18.1-.127.15-.277.15-.45 0-.12-.02-.22-.06-.3a.753.753 0 0 0-.21-.24c-.606-.48-1.373-.72-2.3-.72-.72 0-1.35.147-1.89.44-.54.293-.956.713-1.25 1.26-.286.54-.43 1.177-.43 1.91 0 .747.147 1.393.44 1.94.294.54.714.957 1.26 1.25.547.287 1.194.43 1.94.43.3 0 .617-.023.95-.07.34-.047.64-.11.9-.19.214-.06.374-.133.48-.22a.66.66 0 0 0 .22-.35c.047-.147.07-.353.07-.62v-1.95a.53.53 0 0 0-.17-.42Z"
          fill="currentColor"
        ></path>
      </svg>