      <svg
        width="116"
        height="72"
        fill="none"
        xmlns="http://www.w3.org/2000/svg"
      >
        <path
          d="M53.193 54.16c0 .673-.39 1.01-1.17 1.01h-1.48v-2.03h1.48c.78 0 1.17.34 1.17 1.02ZM59.873 54.16c0 .673-.39 1.01-1.17 1.01h-1.48v-2.03h1.48c.78 0 1.17.34 1.17 1.02Z"
          fill="currentColor"
        ></path>
        <path
          fill-rule="evenodd"
          clip-rule="evenodd"
          d="M34.654 9.276C34 10.56 34 12.24 34 15.6v40.8c0 3.36 0 5.04.654 6.324a6 6 0 0 0 2.622 2.622C38.56 66 40.24 66 43.6 66h28.8c3.36 0 5.04 0 6.324-.654a6 6 0 0 0 2.622-2.622C82 61.44 82 59.76 82 56.4V23.302c0-1.957 0-2.935-.221-3.856a8 8 0 0 0-.958-2.312c-.495-.808-1.186-1.5-2.57-2.883l-4.502-4.502c-1.384-1.384-2.075-2.075-2.883-2.57a8.001 8.001 0 0 0-2.312-.958C67.634 6 66.654 6 64.698 6H43.6c-3.36 0-5.04 0-6.324.654a6 6 0 0 0-2.622 2.622Zm14.54 49.574c.14.14.33.21.57.21.24 0 .43-.07.57-.21.14-.14.21-.33.21-.57v-1.93h1.68c.766 0 1.363-.193 1.79-.58.426-.387.64-.927.64-1.62 0-.693-.214-1.233-.64-1.62-.428-.387-1.024-.58-1.79-.58h-2.51c-.234 0-.414.063-.54.19-.127.127-.19.307-.19.54v5.6c0 .24.07.43.21.57Zm6.679 0c.14.14.33.21.57.21.24 0 .43-.07.57-.21.14-.14.21-.33.21-.57v-1.93h1.68c.767 0 1.363-.193 1.79-.58.427-.387.64-.927.64-1.62 0-.693-.213-1.233-.64-1.62-.427-.387-1.023-.58-1.79-.58h-2.51c-.233 0-.413.063-.54.19-.127.127-.19.307-.19.54v5.6c0 .24.07.43.21.57Zm8.163-.01c.147.14.337.21.57.21.24 0 .43-.07.57-.21.14-.14.21-.327.21-.56v-5.06h1.62c.493 0 .74-.213.74-.64 0-.42-.247-.63-.74-.63h-4.8c-.493 0-.74.21-.74.63 0 .427.247.64.74.64h1.62v5.06c0 .233.07.42.21.56Z"
          fill="currentColor"
        ></path>
      </svg>