      <svg
        width="116"
        height="72"
        fill="none"
        xmlns="http://www.w3.org/2000/svg"
      >
        <path
          d="M52.119 54.16c0 .673-.39 1.01-1.17 1.01h-1.48v-2.03h1.48c.78 0 1.17.34 1.17 1.02Z"
          fill="currentColor"
        ></path>
        <path
          fill-rule="evenodd"
          clip-rule="evenodd"
          d="M34.654 9.276C34 10.56 34 12.24 34 15.6v40.8c0 3.36 0 5.04.654 6.324a6 6 0 0 0 2.622 2.622C38.56 66 40.24 66 43.6 66h28.8c3.36 0 5.04 0 6.324-.654a6 6 0 0 0 2.622-2.622C82 61.44 82 59.76 82 56.4V23.302c0-1.957 0-2.935-.221-3.856a8 8 0 0 0-.958-2.312c-.495-.808-1.186-1.5-2.57-2.883l-4.502-4.502c-1.384-1.384-2.075-2.075-2.883-2.57a8.001 8.001 0 0 0-2.312-.958C67.634 6 66.654 6 64.698 6H43.6c-3.36 0-5.04 0-6.324.654a6 6 0 0 0-2.622 2.622ZM48.119 58.85c.14.14.33.21.57.21.24 0 .43-.07.57-.21.14-.14.21-.33.21-.57v-1.93h1.68c.767 0 1.363-.193 1.79-.58.427-.387.64-.927.64-1.62 0-.693-.213-1.233-.64-1.62-.427-.387-1.023-.58-1.79-.58h-2.51c-.233 0-.413.063-.54.19-.127.127-.19.307-.19.54v5.6c0 .24.07.43.21.57Zm12.38-6.73a.682.682 0 0 0-.53-.22.67.67 0 0 0-.52.22.764.764 0 0 0-.2.55v3.75l-3.35-4.26c-.134-.173-.324-.26-.57-.26-.22 0-.4.073-.54.22a.764.764 0 0 0-.2.55v5.61c0 .233.066.423.2.57.133.14.31.21.53.21.22 0 .393-.07.52-.21a.815.815 0 0 0 .2-.57v-3.77l3.35 4.29c.146.173.34.26.58.26.22 0 .396-.07.53-.21a.792.792 0 0 0 .21-.57v-5.61c0-.227-.07-.41-.21-.55Zm7.5 3.15c-.108-.107-.254-.16-.44-.16h-1.71c-.194 0-.344.047-.45.14-.108.093-.16.227-.16.4 0 .173.052.307.16.4.106.093.256.14.45.14h.92v1.55a4.5 4.5 0 0 1-1.15.15c-.714 0-1.248-.2-1.6-.6-.354-.4-.53-1.007-.53-1.82 0-1.58.68-2.37 2.04-2.37.28 0 .536.037.77.11.232.073.49.197.77.37.1.06.182.103.25.13.072.027.153.04.24.04.133 0 .246-.06.34-.18.1-.127.15-.277.15-.45 0-.12-.02-.22-.06-.3a.753.753 0 0 0-.21-.24c-.608-.48-1.374-.72-2.3-.72-.72 0-1.35.147-1.89.44-.54.293-.957.713-1.25 1.26-.288.54-.43 1.177-.43 1.91 0 .747.146 1.393.44 1.94.293.54.713.957 1.26 1.25.546.287 1.193.43 1.94.43.3 0 .616-.023.95-.07.34-.047.64-.11.9-.19.213-.06.373-.133.48-.22a.66.66 0 0 0 .22-.35c.046-.147.07-.353.07-.62v-1.95a.53.53 0 0 0-.17-.42Z"
          fill="currentColor"
        ></path>
      </svg>