      <svg
        width="116"
        height="72"
        fill="none"
        xmlns="http://www.w3.org/2000/svg"
      >
        <path
          fill-rule="evenodd"
          clip-rule="evenodd"
          d="M34.654 9.276C34 10.56 34 12.24 34 15.6v40.8c0 3.36 0 5.04.654 6.324a6 6 0 0 0 2.622 2.622C38.56 66 40.24 66 43.6 66h28.8c3.36 0 5.04 0 6.324-.654a6 6 0 0 0 2.622-2.622C82 61.44 82 59.76 82 56.4V23.302c0-1.957 0-2.935-.221-3.856a8 8 0 0 0-.958-2.312c-.495-.808-1.186-1.5-2.57-2.883l-4.502-4.502c-1.384-1.384-2.075-2.075-2.883-2.57a8.001 8.001 0 0 0-2.312-.958C67.634 6 66.654 6 64.698 6H43.6c-3.36 0-5.04 0-6.324.654a6 6 0 0 0-2.622 2.622ZM55.111 58.34a.697.697 0 0 0-.19-.46l-2.04-2.44 1.98-2.37c.12-.14.18-.293.18-.46a.655.655 0 0 0-.23-.5.689.689 0 0 0-.5-.22c-.2 0-.374.087-.52.26l-1.81 2.21-1.83-2.21c-.147-.173-.32-.26-.52-.26a.722.722 0 0 0-.51.22.668.668 0 0 0-.22.5c0 .16.063.313.19.46l1.98 2.37-2.05 2.44a.692.692 0 0 0-.18.46.7.7 0 0 0 .22.51.74.74 0 0 0 .51.21.663.663 0 0 0 .51-.25l1.9-2.3 1.88 2.3c.14.167.31.25.51.25.193 0 .363-.07.51-.21a.686.686 0 0 0 .23-.51Zm1.128.47c.126.127.306.19.54.19h3.39c.486 0 .73-.21.73-.63 0-.427-.244-.64-.73-.64h-2.56v-5.06c0-.233-.07-.42-.21-.56-.14-.14-.33-.21-.57-.21-.24 0-.43.07-.57.21-.14.14-.21.327-.21.56v5.6c0 .233.063.413.19.54Zm6.417.1c.453.12.943.18 1.47.18.566 0 1.063-.09 1.49-.27.433-.18.766-.433 1-.76.24-.327.36-.703.36-1.13 0-.547-.2-.977-.6-1.29-.394-.313-1.044-.57-1.95-.77a7.163 7.163 0 0 1-.9-.25c-.207-.08-.357-.17-.45-.27a.614.614 0 0 1-.13-.4c0-.273.116-.487.35-.64.233-.16.553-.24.96-.24.353 0 .643.043.87.13.233.087.486.217.76.39.113.067.2.11.26.13.066.02.136.03.21.03.133 0 .25-.063.35-.19a.663.663 0 0 0 .16-.44c0-.12-.024-.22-.07-.3a.712.712 0 0 0-.21-.25c-.614-.473-1.394-.71-2.34-.71-.54 0-1.027.097-1.46.29-.427.187-.764.45-1.01.79-.24.333-.36.71-.36 1.13 0 .38.083.703.25.97.173.267.443.49.81.67.373.18.87.333 1.49.46.553.113.936.233 1.15.36.22.127.33.293.33.5a.702.702 0 0 1-.35.63c-.234.147-.57.22-1.01.22-.354 0-.677-.04-.97-.12a3.506 3.506 0 0 1-.87-.4c-.1-.06-.187-.1-.26-.12a.56.56 0 0 0-.21-.04c-.134 0-.254.063-.36.19a.69.69 0 0 0-.15.44c0 .127.02.233.06.32.046.08.12.157.22.23.286.227.656.403 1.11.53Z"
          fill="currentColor"
        ></path>
      </svg>