      <svg
        width="116"
        height="72"
        fill="none"
        xmlns="http://www.w3.org/2000/svg"
      >
        <path
          d="M57.696 56.26h-2.33l1.17-2.6 1.16 2.6Z"
          fill="currentColor"
        ></path>
        <path
          fill-rule="evenodd"
          clip-rule="evenodd"
          d="M34.654 9.276C34 10.56 34 12.24 34 15.6v40.8c0 3.36 0 5.04.654 6.324a6 6 0 0 0 2.622 2.622C38.56 66 40.24 66 43.6 66h28.8c3.36 0 5.04 0 6.324-.654a6 6 0 0 0 2.622-2.622C82 61.44 82 59.76 82 56.4V23.302c0-1.957 0-2.935-.221-3.856a8 8 0 0 0-.958-2.312c-.495-.808-1.186-1.5-2.57-2.883l-4.502-4.502c-1.384-1.384-2.075-2.075-2.883-2.57a8.001 8.001 0 0 0-2.312-.958C67.634 6 66.654 6 64.698 6H43.6c-3.36 0-5.04 0-6.324.654a6 6 0 0 0-2.622 2.622ZM60.116 58.37c0-.093-.027-.2-.08-.32l-2.7-5.67a.885.885 0 0 0-.34-.36.926.926 0 0 0-.95 0 .756.756 0 0 0-.33.36l-2.7 5.67a.804.804 0 0 0-.08.32c0 .187.076.347.23.48.153.127.326.19.52.19a.665.665 0 0 0 .36-.1c.113-.073.2-.18.26-.32l.53-1.18h3.39l.53 1.18c.06.14.146.247.26.32.113.067.233.1.36.1a.756.756 0 0 0 .51-.19.615.615 0 0 0 .23-.48Zm1.07.48c.14.14.33.21.57.21.24 0 .43-.07.57-.21.14-.14.21-.33.21-.57v-5.61c0-.233-.07-.42-.21-.56-.14-.14-.33-.21-.57-.21-.24 0-.43.07-.57.21-.14.14-.21.327-.21.56v5.61c0 .24.07.43.21.57Z"
          fill="currentColor"
        ></path>
      </svg>