      <svg
        width="116"
        height="72"
        fill="none"
        xmlns="http://www.w3.org/2000/svg"
      >
        <path
          d="M2.436 2.184C2 3.04 2 4.16 2 6.4v15.2c0 2.24 0 3.36.436 4.216a4 4 0 0 0 1.748 1.748C5.04 28 6.16 28 8.4 28h9.2c2.24 0 3.36 0 4.216-.436a4 4 0 0 0 1.748-1.748C24 24.96 24 23.84 24 21.6V8.217c0-.966 0-1.45-.108-1.904a4.002 4.002 0 0 0-.468-1.146c-.242-.4-.58-.745-1.258-1.434l-1.785-1.818c-.694-.706-1.04-1.06-1.448-1.312a4 4 0 0 0-1.167-.49C17.301 0 16.806 0 15.816 0H8.4C6.16 0 5.04 0 4.184.436a4 4 0 0 0-1.748 1.748ZM2 30a1 1 0 1 0 0 2h22a1 1 0 1 0 0-2H2ZM32 6.4c0-2.24 0-3.36.436-4.216A4 4 0 0 1 34.184.436C35.04 0 36.16 0 38.4 0h7.415c.99 0 1.486 0 1.951.113a4 4 0 0 1 1.168.49c.406.252.753.606 1.447 1.312l1.785 1.818c.677.689 1.016 1.034 1.258 1.434.214.355.372.742.468 1.146.108.455.108.938.108 1.904V21.6c0 2.24 0 3.36-.436 4.216a4 4 0 0 1-1.748 1.748C50.96 28 49.84 28 47.6 28h-9.2c-2.24 0-3.36 0-4.216-.436a4 4 0 0 1-1.748-1.748C32 24.96 32 23.84 32 21.6V6.4ZM32 30a1 1 0 1 0 0 2h22a1 1 0 1 0 0-2H32ZM62 6.4c0-2.24 0-3.36.436-4.216A4 4 0 0 1 64.184.436C65.04 0 66.16 0 68.4 0h7.415c.99 0 1.486 0 1.951.113a4 4 0 0 1 1.167.49c.407.252.754.606 1.448 1.312l1.785 1.818c.677.69 1.016 1.034 1.258 1.434.214.355.372.742.468 1.146.108.455.108.938.108 1.904V21.6c0 2.24 0 3.36-.436 4.216a4 4 0 0 1-1.748 1.748C80.96 28 79.84 28 77.6 28h-9.2c-2.24 0-3.36 0-4.216-.436a4 4 0 0 1-1.748-1.748C62 24.96 62 23.84 62 21.6V6.4ZM62 30a1 1 0 1 0 0 2h22a1 1 0 1 0 0-2H62ZM92 6.4c0-2.24 0-3.36.436-4.216A4 4 0 0 1 94.184.436C95.04 0 96.16 0 98.4 0h7.415c.991 0 1.486 0 1.951.113.413.1.807.266 1.167.49.407.252.754.606 1.448 1.312l1.785 1.818c.677.69 1.016 1.034 1.258 1.434.214.355.372.742.468 1.146.108.455.108.938.108 1.904V21.6c0 2.24 0 3.36-.436 4.216a3.996 3.996 0 0 1-1.748 1.748C110.96 28 109.84 28 107.6 28h-9.2c-2.24 0-3.36 0-4.216-.436a4 4 0 0 1-1.748-1.748C92 24.96 92 23.84 92 21.6V6.4ZM92 30a1 1 0 1 0 0 2h22a1 1 0 0 0 0-2H92ZM2 46.4c0-2.24 0-3.36.436-4.216a4 4 0 0 1 1.748-1.748C5.04 40 6.16 40 8.4 40h7.415c.99 0 1.486 0 1.951.113a4 4 0 0 1 1.168.49c.406.252.753.606 1.447 1.312l1.785 1.818c.677.69 1.016 1.034 1.258 1.434.214.355.372.742.468 1.145.108.456.108.939.108 1.905V61.6c0 2.24 0 3.36-.436 4.216a4 4 0 0 1-1.748 1.748C20.96 68 19.84 68 17.6 68H8.4c-2.24 0-3.36 0-4.216-.436a4 4 0 0 1-1.748-1.748C2 64.96 2 63.84 2 61.6V46.4ZM2 70a1 1 0 1 0 0 2h22a1 1 0 1 0 0-2H2ZM32 46.4c0-2.24 0-3.36.436-4.216a4 4 0 0 1 1.748-1.748C35.04 40 36.16 40 38.4 40h7.415c.99 0 1.486 0 1.951.113a4 4 0 0 1 1.168.49c.406.252.753.606 1.447 1.312l1.785 1.818c.677.689 1.016 1.034 1.258 1.434.214.355.372.742.468 1.145.108.456.108.939.108 1.905V61.6c0 2.24 0 3.36-.436 4.216a4 4 0 0 1-1.748 1.748C50.96 68 49.84 68 47.6 68h-9.2c-2.24 0-3.36 0-4.216-.436a4 4 0 0 1-1.748-1.748C32 64.96 32 63.84 32 61.6V46.4ZM32 70a1 1 0 1 0 0 2h22a1 1 0 1 0 0-2H32ZM62 46.4c0-2.24 0-3.36.436-4.216a4 4 0 0 1 1.748-1.748C65.04 40 66.16 40 68.4 40h7.415c.99 0 1.486 0 1.951.113a4 4 0 0 1 1.167.49c.407.252.754.606 1.448 1.313l1.785 1.817c.677.69 1.016 1.034 1.258 1.434.214.355.372.742.468 1.145.108.456.108.939.108 1.905V61.6c0 2.24 0 3.36-.436 4.216a4 4 0 0 1-1.748 1.748C80.96 68 79.84 68 77.6 68h-9.2c-2.24 0-3.36 0-4.216-.436a4 4 0 0 1-1.748-1.748C62 64.96 62 63.84 62 61.6V46.4ZM62 70a1 1 0 1 0 0 2h22a1 1 0 1 0 0-2H62ZM92 46.4c0-2.24 0-3.36.436-4.216a4 4 0 0 1 1.748-1.748C95.04 40 96.16 40 98.4 40h7.415c.991 0 1.486 0 1.951.113.413.1.807.266 1.167.49.407.252.754.606 1.448 1.313l1.785 1.817c.677.69 1.016 1.034 1.258 1.434.214.355.372.742.468 1.145.108.456.108.939.108 1.905V61.6c0 2.24 0 3.36-.436 4.216a3.996 3.996 0 0 1-1.748 1.748C110.96 68 109.84 68 107.6 68h-9.2c-2.24 0-3.36 0-4.216-.436a4 4 0 0 1-1.748-1.748C92 64.96 92 63.84 92 61.6V46.4ZM92 70a1 1 0 1 0 0 2h22a1 1 0 0 0 0-2H92Z"
          fill="currentColor"
        ></path>
      </svg>