      <svg
        width="116"
        height="72"
        fill="none"
        xmlns="http://www.w3.org/2000/svg"
      >
        <path
          fill-rule="evenodd"
          clip-rule="evenodd"
          d="M34.654 9.276C34 10.56 34 12.24 34 15.6v40.8c0 3.36 0 5.04.654 6.324a6 6 0 0 0 2.622 2.622C38.56 66 40.24 66 43.6 66h28.8c3.36 0 5.04 0 6.324-.654a6 6 0 0 0 2.622-2.622C82 61.44 82 59.76 82 56.4V23.302c0-1.957 0-2.935-.221-3.856a8 8 0 0 0-.958-2.312c-.495-.808-1.186-1.5-2.57-2.883l-4.502-4.502c-1.384-1.384-2.075-2.075-2.883-2.57a8.001 8.001 0 0 0-2.312-.958C67.634 6 66.654 6 64.698 6H43.6c-3.36 0-5.04 0-6.324.654a6 6 0 0 0-2.622 2.622ZM39.96 58.91c.454.12.944.18 1.47.18.567 0 1.064-.09 1.49-.27.434-.18.767-.433 1-.76.24-.327.36-.703.36-1.13 0-.547-.2-.977-.6-1.29-.393-.313-1.043-.57-1.95-.77a7.163 7.163 0 0 1-.9-.25c-.206-.08-.356-.17-.45-.27a.614.614 0 0 1-.13-.4c0-.273.117-.487.35-.64.234-.16.554-.24.96-.24.354 0 .644.043.87.13.234.087.487.217.76.39.114.067.2.11.26.13.067.02.137.03.21.03.134 0 .25-.063.35-.19a.663.663 0 0 0 .16-.44c0-.12-.023-.22-.07-.3a.712.712 0 0 0-.21-.25c-.613-.473-1.393-.71-2.34-.71-.54 0-1.026.097-1.46.29-.426.187-.763.45-1.01.79-.24.333-.36.71-.36 1.13 0 .38.084.703.25.97.174.267.444.49.81.67.374.18.87.333 1.49.46.554.113.937.233 1.15.36.22.127.33.293.33.5a.702.702 0 0 1-.35.63c-.233.147-.57.22-1.01.22-.353 0-.676-.04-.97-.12a3.506 3.506 0 0 1-.87-.4c-.1-.06-.186-.1-.26-.12a.56.56 0 0 0-.21-.04c-.133 0-.253.063-.36.19a.69.69 0 0 0-.15.44c0 .127.02.233.06.32.047.08.12.157.22.23.287.227.657.403 1.11.53Zm11.384-.58c0-.18-.077-.347-.23-.5l-2.55-2.48 2.38-2.23a.704.704 0 0 0 .24-.52.64.64 0 0 0-.21-.48.672.672 0 0 0-.49-.21.689.689 0 0 0-.5.22l-3.02 2.93v-2.39c0-.233-.07-.42-.21-.56-.14-.14-.33-.21-.57-.21-.24 0-.43.07-.57.21-.14.14-.21.327-.21.56v5.61c0 .24.07.43.21.57.14.14.33.21.57.21.24 0 .43-.07.57-.21.14-.14.21-.33.21-.57v-2.54l3.1 3.03c.167.173.357.26.57.26.187 0 .35-.07.49-.21a.657.657 0 0 0 .22-.49Zm1.027.48c.127.127.307.19.54.19h3.54c.494 0 .74-.2.74-.6 0-.407-.246-.61-.74-.61h-2.75v-1.77h2.55c.494 0 .74-.2.74-.6 0-.407-.246-.61-.74-.61h-2.55v-1.65h2.75c.494 0 .74-.203.74-.61 0-.4-.246-.6-.74-.6h-3.54c-.233 0-.413.063-.54.19-.126.127-.19.307-.19.54v5.59c0 .233.064.413.19.54Zm7.666.03c.147.14.337.21.57.21.24 0 .43-.07.57-.21.14-.14.21-.327.21-.56v-5.06h1.62c.493 0 .74-.213.74-.64 0-.42-.247-.63-.74-.63h-4.8c-.493 0-.74.21-.74.63 0 .427.247.64.74.64h1.62v5.06c0 .233.07.42.21.56Zm5.4-.19c.52.293 1.127.44 1.82.44.874 0 1.627-.24 2.26-.72a.699.699 0 0 0 .2-.23.646.646 0 0 0 .07-.31c0-.173-.05-.32-.15-.44a.42.42 0 0 0-.35-.19.615.615 0 0 0-.23.04c-.066.02-.15.06-.25.12-.293.173-.55.3-.77.38a2.2 2.2 0 0 1-.7.11c-1.286 0-1.93-.793-1.93-2.38 0-.787.16-1.377.48-1.77.327-.4.81-.6 1.45-.6.26 0 .504.04.73.12.227.073.474.197.74.37.087.06.164.103.23.13.074.02.157.03.25.03.14 0 .257-.06.35-.18.1-.127.15-.277.15-.45 0-.12-.02-.22-.06-.3a.753.753 0 0 0-.21-.24c-.633-.48-1.386-.72-2.26-.72-.693 0-1.3.147-1.82.44a2.96 2.96 0 0 0-1.2 1.26c-.28.54-.42 1.177-.42 1.91 0 .733.14 1.373.42 1.92.28.547.68.967 1.2 1.26Zm11.458-6.54c-.14-.14-.327-.21-.56-.21-.234 0-.42.07-.56.21-.134.14-.2.327-.2.56v2.13h-3.25v-2.13c0-.233-.07-.42-.21-.56-.134-.14-.317-.21-.55-.21-.234 0-.42.07-.56.21-.14.14-.21.327-.21.56v5.61c0 .24.07.43.21.57.14.14.326.21.56.21.226 0 .41-.07.55-.21a.792.792 0 0 0 .21-.57v-2.24h3.25v2.24c0 .24.066.43.2.57.14.14.326.21.56.21.233 0 .42-.07.56-.21a.792.792 0 0 0 .21-.57v-5.61c0-.233-.07-.42-.21-.56Z"
          fill="currentColor"
        ></path>
      </svg>