      <svg
        width="116"
        height="72"
        fill="none"
        xmlns="http://www.w3.org/2000/svg"
      >
        <path
          d="M52.895 54.16c0 .673-.39 1.01-1.17 1.01h-1.48v-2.03h1.48c.78 0 1.17.34 1.17 1.02ZM60.245 55.47c0 1.513-.75 2.27-2.25 2.27h-1.07v-4.53h1.07c1.5 0 2.25.753 2.25 2.26Z"
          fill="currentColor"
        ></path>
        <path
          fill-rule="evenodd"
          clip-rule="evenodd"
          d="M34.654 9.276C34 10.56 34 12.24 34 15.6v40.8c0 3.36 0 5.04.654 6.324a6 6 0 0 0 2.622 2.622C38.56 66 40.24 66 43.6 66h28.8c3.36 0 5.04 0 6.324-.654a6 6 0 0 0 2.622-2.622C82 61.44 82 59.76 82 56.4V23.302c0-1.957 0-2.935-.221-3.856a8 8 0 0 0-.958-2.312c-.495-.808-1.186-1.5-2.57-2.883l-4.502-4.502c-1.384-1.384-2.075-2.075-2.883-2.57a8.001 8.001 0 0 0-2.312-.958C67.634 6 66.654 6 64.698 6H43.6c-3.36 0-5.04 0-6.324.654a6 6 0 0 0-2.622 2.622ZM48.895 58.85c.14.14.33.21.57.21.24 0 .43-.07.57-.21.14-.14.21-.33.21-.57v-1.93h1.68c.767 0 1.364-.193 1.79-.58.427-.387.64-.927.64-1.62 0-.693-.213-1.233-.64-1.62-.426-.387-1.023-.58-1.79-.58h-2.51c-.233 0-.413.063-.54.19-.126.127-.19.307-.19.54v5.6c0 .24.07.43.21.57Zm6.66-.04c.127.127.307.19.54.19h2.01c.773 0 1.437-.14 1.99-.42.553-.28.973-.683 1.26-1.21.293-.533.44-1.167.44-1.9 0-.733-.147-1.363-.44-1.89a2.932 2.932 0 0 0-1.27-1.21c-.553-.28-1.213-.42-1.98-.42h-2.01c-.233 0-.413.063-.54.19-.127.127-.19.307-.19.54v5.59c0 .233.063.413.19.54Zm7.647.04c.147.14.337.21.57.21.233 0 .417-.07.55-.21.14-.14.21-.33.21-.57v-2.25h2.43c.253 0 .44-.05.56-.15.12-.1.18-.253.18-.46 0-.213-.06-.37-.18-.47-.12-.1-.307-.15-.56-.15h-2.43v-1.62h2.63c.253 0 .44-.05.56-.15.12-.1.18-.253.18-.46 0-.213-.06-.37-.18-.47-.12-.1-.307-.15-.56-.15h-3.44c-.233 0-.413.063-.54.19-.127.127-.19.307-.19.54v5.6c0 .233.07.423.21.57Z"
          fill="currentColor"
        ></path>
      </svg>