      <svg
        width="116"
        height="72"
        fill="none"
        xmlns="http://www.w3.org/2000/svg"
      >
        <path
          d="M42 1a1 1 0 0 1 1-1h16a1 1 0 1 1 0 2H43a1 1 0 0 1-1-1ZM.304 6.47C0 7.203 0 8.135 0 10c0 1.864 0 2.796.304 3.53a4 4 0 0 0 2.165 2.165C3.204 16 4.136 16 6 16h20c1.864 0 2.796 0 3.53-.305a4 4 0 0 0 2.165-2.164C32 12.796 32 11.864 32 10s0-2.796-.305-3.53a4 4 0 0 0-2.164-2.166C28.796 4 27.864 4 26 4H6c-1.864 0-2.796 0-3.53.304A4 4 0 0 0 .303 6.47Z"
          fill="currentColor"
        ></path>
        <path
          fill-rule="evenodd"
          clip-rule="evenodd"
          d="M14 64a7 7 0 1 1-14 0 7 7 0 0 1 14 0Zm-6.227-3.103.23.864a.8.8 0 0 0 .816.593l.893-.048c.818-.044 1.166 1.025.478 1.47l-.75.486a.8.8 0 0 0-.312.96l.321.834c.295.765-.614 1.425-1.25.909l-.695-.564a.8.8 0 0 0-1.008 0l-.695.564c-.636.516-1.545-.144-1.25-.909l.321-.835a.8.8 0 0 0-.311-.959l-.75-.486c-.689-.445-.341-1.514.477-1.47l.893.048a.8.8 0 0 0 .816-.593l.23-.864c.211-.792 1.335-.792 1.546 0Z"
          fill="currentColor"
        ></path>
        <path
          d="M27 67a3 3 0 1 0 0-6 3 3 0 0 0 0 6ZM55 64a7 7 0 1 1-14 0 7 7 0 0 1 14 0Z"
          fill="currentColor"
        ></path>
        <path
          fill-rule="evenodd"
          clip-rule="evenodd"
          d="M75 64a7 7 0 1 1-14 0 7 7 0 0 1 14 0Zm-4.5.866-3 1.732a1 1 0 0 1-1.5-.866v-3.464a1 1 0 0 1 1.5-.866l3 1.732a1 1 0 0 1 0 1.732Z"
          fill="currentColor"
        ></path>
        <path
          d="M84 64c0-1.864 0-2.796.305-3.53a4 4 0 0 1 2.164-2.166C87.204 58 88.136 58 90 58h20c1.864 0 2.796 0 3.531.304a4.001 4.001 0 0 1 2.165 2.165c.304.735.304 1.667.304 3.531s0 2.796-.304 3.53a4.001 4.001 0 0 1-2.165 2.165C112.796 70 111.864 70 110 70H90c-1.864 0-2.796 0-3.53-.305a4 4 0 0 1-2.165-2.164C84 66.796 84 65.864 84 64ZM1 0a1 1 0 1 0 0 2h16a1 1 0 1 0 0-2H1ZM42 10c0-1.864 0-2.796.304-3.53a4 4 0 0 1 2.165-2.166C45.204 4 46.136 4 48 4h20c1.864 0 2.796 0 3.53.304a4 4 0 0 1 2.165 2.165C74 7.204 74 8.136 74 10s0 2.796-.305 3.53a4 4 0 0 1-2.164 2.165C70.796 16 69.864 16 68 16H48c-1.864 0-2.796 0-3.53-.305a4 4 0 0 1-2.166-2.164C42 12.796 42 11.864 42 10Z"
          fill="currentColor"
        ></path>
        <path
          fill-rule="evenodd"
          clip-rule="evenodd"
          d="M84 10c0-1.864 0-2.796.305-3.53a4 4 0 0 1 2.164-2.166C87.204 4 88.136 4 90 4h20c1.864 0 2.796 0 3.531.304a4 4 0 0 1 2.165 2.165C116 7.204 116 8.136 116 10s0 2.796-.304 3.53a4.001 4.001 0 0 1-2.165 2.165C112.796 16 111.864 16 110 16H90c-1.864 0-2.796 0-3.53-.305a4 4 0 0 1-2.165-2.164C84 12.796 84 11.864 84 10Zm5 0a1 1 0 0 1 1-1h8a1 1 0 1 1 0 2h-8a1 1 0 0 1-1-1ZM0 35a4 4 0 0 1 4-4h24a4 4 0 0 1 4 4v4a4 4 0 0 1-4 4H4a4 4 0 0 1-4-4v-4Zm21.293.293a1 1 0 0 1 1.414 0L24 36.586l1.293-1.293a1 1 0 0 1 1.414 1.414L25.414 38a2 2 0 0 1-2.828 0l-1.293-1.293a1 1 0 0 1 0-1.414ZM5 37a1 1 0 0 1 1-1h8a1 1 0 1 1 0 2H6a1 1 0 0 1-1-1Z"
          fill="currentColor"
        ></path>
        <path
          d="M43 27a1 1 0 1 0 0 2h16a1 1 0 1 0 0-2H43ZM0 28a1 1 0 0 1 1-1h16a1 1 0 1 1 0 2H1a1 1 0 0 1-1-1Z"
          fill="currentColor"
        ></path>
        <path
          fill-rule="evenodd"
          clip-rule="evenodd"
          d="M46 31a4 4 0 0 0-4 4v4a4 4 0 0 0 4 4h24a4 4 0 0 0 4-4v-4a4 4 0 0 0-4-4H46Zm18.707 4.293a1 1 0 0 0-1.414 1.414L64.586 38a2 2 0 0 0 2.828 0l1.293-1.293a1 1 0 0 0-1.414-1.414L66 36.586l-1.293-1.293ZM48 36a1 1 0 1 0 0 2h8a1 1 0 1 0 0-2h-8Z"
          fill="currentColor"
        ></path>
        <path
          d="M84 28a1 1 0 0 1 1-1h16a1 1 0 0 1 0 2H85a1 1 0 0 1-1-1Z"
          fill="currentColor"
        ></path>
        <path
          fill-rule="evenodd"
          clip-rule="evenodd"
          d="M88 31a4 4 0 0 0-4 4v4a4 4 0 0 0 4 4h24a4 4 0 0 0 4-4v-4a4 4 0 0 0-4-4H88Zm18.707 4.293a1 1 0 1 0-1.414 1.414L106.586 38a2 2 0 0 0 2.828 0l1.293-1.293a1 1 0 1 0-1.414-1.414L108 36.586l-1.293-1.293ZM90 36a1 1 0 1 0 0 2h8a1 1 0 1 0 0-2h-8Z"
          fill="currentColor"
        ></path>
      </svg>