      <svg
        width="116"
        height="72"
        fill="none"
        xmlns="http://www.w3.org/2000/svg"
      >
        <g
          clip-path="url(#item_svg__a)"
          fill="currentColor"
        >
          <path
            d="M.436 2.184C0 3.04 0 4.16 0 6.4v59.2c0 2.24 0 3.36.436 4.216a4 4 0 0 0 1.748 1.748C3.04 72 4.16 72 6.4 72h43.2c2.24 0 3.36 0 4.216-.436a4 4 0 0 0 1.748-1.748C56 68.96 56 67.84 56 65.6V6.4c0-2.24 0-3.36-.436-4.216A4 4 0 0 0 53.816.436C52.96 0 51.84 0 49.6 0H6.4C4.16 0 3.04 0 2.184.436A4 4 0 0 0 .436 2.184ZM70.436 12.184C70 13.04 70 14.16 70 16.4v1.2c0 2.24 0 3.36.436 4.216a4 4 0 0 0 1.748 1.748C73.04 24 74.16 24 76.4 24h1.2c2.24 0 3.36 0 4.216-.436a4 4 0 0 0 1.748-1.748C84 20.96 84 19.84 84 17.6v-1.2c0-2.24 0-3.36-.436-4.216a4 4 0 0 0-1.748-1.748C80.96 10 79.84 10 77.6 10h-1.2c-2.24 0-3.36 0-4.216.436a4 4 0 0 0-1.748 1.748ZM86 16.4c0-2.24 0-3.36.436-4.216a4 4 0 0 1 1.748-1.748C89.04 10 90.16 10 92.4 10h1.2c2.24 0 3.36 0 4.216.436a4 4 0 0 1 1.748 1.748c.436.856.436 1.976.436 4.216v1.2c0 2.24 0 3.36-.436 4.216a4 4 0 0 1-1.748 1.748C96.96 24 95.84 24 93.6 24h-1.2c-2.24 0-3.36 0-4.216-.436a4 4 0 0 1-1.748-1.748C86 20.96 86 19.84 86 17.6v-1.2ZM102.436 12.184C102 13.04 102 14.16 102 16.4v1.2c0 2.24 0 3.36.436 4.216a3.996 3.996 0 0 0 1.748 1.748c.856.436 1.976.436 4.216.436h1.2c2.24 0 3.36 0 4.216-.436a3.996 3.996 0 0 0 1.748-1.748C116 20.96 116 19.84 116 17.6v-1.2c0-2.24 0-3.36-.436-4.216a3.996 3.996 0 0 0-1.748-1.748C112.96 10 111.84 10 109.6 10h-1.2c-2.24 0-3.36 0-4.216.436a3.996 3.996 0 0 0-1.748 1.748ZM70 66a2 2 0 0 1 2-2h20a2 2 0 0 1 2 2v4a2 2 0 0 1-2 2H72a2 2 0 0 1-2-2v-4ZM73 56a3 3 0 1 0 0-6 3 3 0 0 0 0 6ZM84 53a3 3 0 1 1-6 0 3 3 0 0 1 6 0ZM89 56a3 3 0 1 0 0-6 3 3 0 0 0 0 6ZM100 53a3 3 0 1 1-6 0 3 3 0 0 1 6 0ZM105 56a3 3 0 1 0 0-6 3 3 0 0 0 0 6ZM70 1a1 1 0 0 1 1-1h30a1 1 0 0 1 0 2H71a1 1 0 0 1-1-1ZM71 4a1 1 0 1 0 0 2h22a1 1 0 1 0 0-2H71ZM70 31a1 1 0 0 1 1-1h44a1 1 0 0 1 0 2H71a1 1 0 0 1-1-1ZM71 34a1 1 0 1 0 0 2h44a1 1 0 0 0 0-2H71ZM70 39a1 1 0 0 1 1-1h44a1 1 0 0 1 0 2H71a1 1 0 0 1-1-1ZM71 42a1 1 0 1 0 0 2h22a1 1 0 1 0 0-2H71Z"
          ></path>
        </g>
        <defs>
          <clipPath id="item_svg__a">
            <path
              fill="#fff"
              d="M0 0h116v72H0z"
            ></path>
          </clipPath>
        </defs>
      </svg>