      <svg
        width="116"
        height="72"
        fill="none"
        xmlns="http://www.w3.org/2000/svg"
      >
        <path
          d="M100.652 6.635A4.004 4.004 0 0 1 97.5 8.97v2.495a.5.5 0 0 1-1 0V8.97a4.004 4.004 0 0 1-3.114-2.253c-2.434 1.867-4.983 5.784-8.112 12.02a256.301 256.301 0 0 0-1.812 3.7l-.946 1.97-.004.007-.885 1.844c-3.467 7.197-5.678 11.26-8.247 14.71-2.396 3.217-4.822 5.361-7.391 6.338A4 4 0 0 1 58 47.034c-1.632-.641-3.165-1.629-4.645-2.948-2.154-1.922-3.835-4.066-6.8-8.367l-.726-1.056c-3.141-4.56-4.88-6.77-7.146-8.762-1.879-1.651-3.839-2.782-5.985-3.374A4.004 4.004 0 0 1 29.5 24.97v1.638a.5.5 0 1 1-1 0V24.97a4.004 4.004 0 0 1-3.155-2.342C20.385 24.3 16.339 29.56 11.89 38.62c-.5 1.018-.996 2.058-1.644 3.44l-.397.847-.392.838c-.315.674-.546 1.165-.771 1.64-1.23 2.594-2.117 4.331-2.998 5.8-1.687 2.814-3.249 4.412-4.986 4.749-.383.074-.703-.25-.703-.64 0-.391.324-.701.694-.825 1.139-.38 2.36-1.69 3.743-3.998.852-1.42 1.723-3.124 2.934-5.68.224-.473.454-.962.768-1.634l.392-.837.398-.849a211.26 211.26 0 0 1 1.655-3.463c2.58-5.256 4.837-8.97 7.428-11.835 2.167-2.399 4.481-4.056 6.997-4.9a4 4 0 0 1 3.49-4.242v-1.78a.5.5 0 0 1 1.001 0v1.78a4 4 0 0 1 3.498 4.11c2.403.645 4.588 1.893 6.655 3.71 2.384 2.095 4.173 4.37 7.38 9.024l.725 1.055c2.902 4.21 4.534 6.29 6.576 8.112 1.265 1.129 2.557 1.984 3.917 2.56a4.002 4.002 0 0 1 7.576.233c2.15-.932 4.251-2.84 6.38-5.7 2.498-3.354 4.68-7.361 8.108-14.48l.876-1.823.014-.03.945-1.967c.708-1.47 1.275-2.63 1.822-3.72 3.412-6.8 6.174-10.999 9.033-12.904a4 4 0 1 1 7.99-.003c1.197.762 2.264 1.875 3.225 3.315 1.492 2.236 2.604 4.922 4.087 9.41.128.387.457 1.395.684 2.091l.002.009.002.006.219.67c2.213 6.742 3.781 9.642 6.083 10.108.383.078.703.385.703.776 0 .39-.319.713-.705.657-1.733-.254-3.145-1.46-4.366-3.506-1.041-1.744-1.857-3.831-3.096-7.603l-.222-.682c-.227-.696-.557-1.706-.684-2.091-2.059-6.232-3.881-9.973-6.275-11.732ZM29 1.5a.5.5 0 0 1 .5.5v1.893a.5.5 0 0 1-1 0V2a.5.5 0 0 1 .5-.5ZM29 7.179a.5.5 0 0 1 .5.5v3.785a.5.5 0 0 1-1 0V7.68a.5.5 0 0 1 .5-.5Z"
          fill="currentColor"
        ></path>
        <path
          d="M29 29.893a.5.5 0 0 1 .5.5v3.786a.5.5 0 0 1-1 0v-3.786a.5.5 0 0 1 .5-.5ZM29 37.464a.5.5 0 0 1 .5.5v3.786a.5.5 0 0 1-1 0v-3.786a.5.5 0 0 1 .5-.5ZM29 45.036a.5.5 0 0 1 .5.5v3.785a.5.5 0 1 1-1 0v-3.785a.5.5 0 0 1 .5-.5ZM29 52.607a.5.5 0 0 1 .5.5V55a.5.5 0 0 1-1 0v-1.893a.5.5 0 0 1 .5-.5ZM62.5 2a.5.5 0 0 0-1 0v1.893a.5.5 0 0 0 1 0V2ZM62.5 7.679a.5.5 0 0 0-1 0v3.785a.5.5 0 0 0 1 0V7.68ZM62.5 15.25a.5.5 0 0 0-1 0v3.786a.5.5 0 1 0 1 0V15.25ZM62.5 22.821a.5.5 0 0 0-1 0v3.786a.5.5 0 1 0 1 0v-3.786ZM62.5 30.393a.5.5 0 1 0-1 0v3.786a.5.5 0 0 0 1 0v-3.786ZM62.5 37.964a.5.5 0 1 0-1 0v3.786a.5.5 0 0 0 1 0v-3.786ZM62.5 53.107a.5.5 0 0 0-1 0V55a.5.5 0 0 0 1 0v-1.893ZM97 14.75a.5.5 0 0 1 .5.5v3.786a.5.5 0 1 1-1 0V15.25a.5.5 0 0 1 .5-.5ZM97 22.321a.5.5 0 0 1 .5.5v3.786a.5.5 0 1 1-1 0v-3.786a.5.5 0 0 1 .5-.5ZM97 29.893a.5.5 0 0 1 .5.5v3.786a.5.5 0 0 1-1 0v-3.786a.5.5 0 0 1 .5-.5ZM97 37.464a.5.5 0 0 1 .5.5v3.786a.5.5 0 0 1-1 0v-3.786a.5.5 0 0 1 .5-.5ZM97 45.036a.5.5 0 0 1 .5.5v3.785a.5.5 0 1 1-1 0v-3.785a.5.5 0 0 1 .5-.5ZM97 52.607a.5.5 0 0 1 .5.5V55a.5.5 0 0 1-1 0v-1.893a.5.5 0 0 1 .5-.5ZM1 62a1 1 0 1 0 0 2h22a1 1 0 1 0 0-2H1ZM0 67a1 1 0 0 1 1-1h34a1 1 0 1 1 0 2H1a1 1 0 0 1-1-1ZM1 70a1 1 0 1 0 0 2h34a1 1 0 1 0 0-2H1ZM40 63a1 1 0 0 1 1-1h22a1 1 0 1 1 0 2H41a1 1 0 0 1-1-1ZM41 66a1 1 0 1 0 0 2h34a1 1 0 1 0 0-2H41ZM40 71a1 1 0 0 1 1-1h34a1 1 0 1 1 0 2H41a1 1 0 0 1-1-1ZM81 62a1 1 0 1 0 0 2h22a1 1 0 0 0 0-2H81ZM80 67a1 1 0 0 1 1-1h34a1 1 0 0 1 0 2H81a1 1 0 0 1-1-1ZM81 70a1 1 0 1 0 0 2h34a1 1 0 0 0 0-2H81Z"
          fill="currentColor"
        ></path>
      </svg>