      <svg
        width="116"
        height="72"
        fill="currentColor"
        xmlns="http://www.w3.org/2000/svg"
      >
        <path
          fill-rule="evenodd"
          clip-rule="evenodd"
          d="M30.436 9.184C30 10.04 30 11.16 30 13.4v45.2c0 2.24 0 3.36.436 4.216a4 4 0 0 0 1.748 1.748C33.04 65 34.16 65 36.4 65h43.2c2.24 0 3.36 0 4.216-.436a4 4 0 0 0 1.748-1.748C86 61.96 86 60.84 86 58.6V13.4c0-2.24 0-3.36-.436-4.216a4 4 0 0 0-1.748-1.748C82.96 7 81.84 7 79.6 7H36.4c-2.24 0-3.36 0-4.216.436a4 4 0 0 0-1.748 1.748ZM38 16a1 1 0 0 1 1-1h14a1 1 0 1 1 0 2H39a1 1 0 0 1-1-1Zm0 16a1 1 0 0 1 1-1h14a1 1 0 1 1 0 2H39a1 1 0 0 1-1-1Zm2-13a2 2 0 0 0-2 2v4a2 2 0 0 0 2 2h36a2 2 0 0 0 2-2v-4a2 2 0 0 0-2-2H40Zm-2 18a2 2 0 0 1 2-2h36a2 2 0 0 1 2 2v4a2 2 0 0 1-2 2H40a2 2 0 0 1-2-2v-4Zm24 12a2 2 0 0 0-2 2v4a2 2 0 0 0 2 2h14a2 2 0 0 0 2-2v-4a2 2 0 0 0-2-2H62Zm-24 2a2 2 0 0 1 2-2h14a2 2 0 0 1 2 2v4a2 2 0 0 1-2 2H40a2 2 0 0 1-2-2v-4Z"
        ></path>
      </svg>