      <svg
        width="116"
        height="72"
        fill="currentColor"
        xmlns="http://www.w3.org/2000/svg"
      >
        <g clip-path="url(#main_svg__a)">
          <path
            d="M.436 2.184C0 3.04 0 4.16 0 6.4v25.2c0 2.24 0 3.36.436 4.216a4 4 0 0 0 1.748 1.748C3.04 38 4.16 38 6.4 38h103.2c2.24 0 3.36 0 4.216-.436a3.996 3.996 0 0 0 1.748-1.748C116 34.96 116 33.84 116 31.6V6.4c0-2.24 0-3.36-.436-4.216a3.996 3.996 0 0 0-1.748-1.748C112.96 0 111.84 0 109.6 0H6.4C4.16 0 3.04 0 2.184.436A4 4 0 0 0 .436 2.184ZM18 46a8 8 0 1 0 0 16 8 8 0 0 0 0-16ZM6 67a1 1 0 0 1 1-1h22a1 1 0 1 1 0 2H7a1 1 0 0 1-1-1ZM13 70a1 1 0 1 0 0 2h10a1 1 0 1 0 0-2H13ZM50 54a8 8 0 1 1 16 0 8 8 0 0 1-16 0ZM47 66a1 1 0 1 0 0 2h22a1 1 0 1 0 0-2H47ZM52 71a1 1 0 0 1 1-1h10a1 1 0 1 1 0 2H53a1 1 0 0 1-1-1ZM98 46a8 8 0 1 0 0 16 8 8 0 0 0 0-16ZM86 67a1 1 0 0 1 1-1h22a1 1 0 0 1 0 2H87a1 1 0 0 1-1-1ZM93 70a1 1 0 1 0 0 2h10a1 1 0 0 0 0-2H93Z"
          ></path>
        </g>
        <defs>
          <clipPath id="main_svg__a">
            <path
              fill="#fff"
              d="M0 0h116v72H0z"
            ></path>
          </clipPath>
        </defs>
      </svg>