      <svg
        width="116"
        height="72"
        fill="none"
        xmlns="http://www.w3.org/2000/svg"
      >
        <g
          clip-path="url(#modal_svg__a)"
          fill="currentColor"
        >
          <path
            d="M87.293.293a1 1 0 0 1 1.414 0L91 2.586 93.293.293a1 1 0 1 1 1.414 1.414L92.414 4l2.293 2.293a1 1 0 0 1-1.414 1.414L91 5.414l-2.293 2.293a1 1 0 1 1-1.414-1.414L89.586 4l-2.293-2.293a1 1 0 0 1 0-1.414ZM19 16a1 1 0 1 0 0 2h22a1 1 0 1 0 0-2H19Z"
          ></path>
          <path
            fill-rule="evenodd"
            clip-rule="evenodd"
            d="M22 20a4 4 0 0 0-4 4v4a4 4 0 0 0 4 4h72a4 4 0 0 0 4-4v-4a4 4 0 0 0-4-4H22Zm2 5a1 1 0 1 0 0 2h38a1 1 0 1 0 0-2H24Zm69.712-.702a1 1 0 0 1-.01 1.414l-1.329 1.31a2 2 0 0 1-2.807 0l-1.268-1.25a1 1 0 0 1 1.404-1.425l1.268 1.25 1.328-1.31a1 1 0 0 1 1.414.011Z"
          ></path>
          <path
            d="M18 37a1 1 0 0 1 1-1h22a1 1 0 1 1 0 2H19a1 1 0 0 1-1-1ZM22 40a4 4 0 0 0-4 4v4a4 4 0 0 0 4 4h72a4 4 0 0 0 4-4v-4a4 4 0 0 0-4-4H22ZM18 57a1 1 0 0 1 1-1h12a1 1 0 1 1 0 2H19a1 1 0 0 1-1-1ZM61 56a1 1 0 1 0 0 2h12a1 1 0 1 0 0-2H61ZM18 64a4 4 0 0 1 4-4h30a4 4 0 0 1 4 4v4a4 4 0 0 1-4 4H22a4 4 0 0 1-4-4v-4ZM64 60a4 4 0 0 0-4 4v4a4 4 0 0 0 4 4h30a4 4 0 0 0 4-4v-4a4 4 0 0 0-4-4H64Z"
          ></path>
        </g>
        <defs>
          <clipPath id="modal_svg__a">
            <path
              fill="#fff"
              d="M0 0h116v72H0z"
            ></path>
          </clipPath>
        </defs>
      </svg>