      <svg
        width="116"
        height="72"
        fill="none"
        xmlns="http://www.w3.org/2000/svg"
      >
        <g
          clip-path="url(#track_list_svg__a)"
          fill="currentColor"
        >
          <path d="m13.5 10.866-3 1.732a1 1 0 0 1-1.5-.866V8.268a1 1 0 0 1 1.5-.866l3 1.732a1 1 0 0 1 0 1.732Z"></path>
          <path
            fill-rule="evenodd"
            clip-rule="evenodd"
            d="M.436 2.184C0 3.04 0 4.16 0 6.4v7.2c0 2.24 0 3.36.436 4.216a4 4 0 0 0 1.748 1.748C3.04 20 4.16 20 6.4 20h103.2c2.24 0 3.36 0 4.216-.436a3.996 3.996 0 0 0 1.748-1.748C116 16.96 116 15.84 116 13.6V6.4c0-2.24 0-3.36-.436-4.216a3.996 3.996 0 0 0-1.748-1.748C112.96 0 111.84 0 109.6 0H6.4C4.16 0 3.04 0 2.184.436A4 4 0 0 0 .436 2.184ZM18 10a7 7 0 1 1-14 0 7 7 0 0 1 14 0Zm4-2a1 1 0 0 1 1-1h18a1 1 0 1 1 0 2H23a1 1 0 0 1-1-1Zm1 3a1 1 0 1 0 0 2h10a1 1 0 1 0 0-2H23Zm76-1a1.5 1.5 0 1 1-3 0 1.5 1.5 0 0 1 3 0Zm5 0a1.5 1.5 0 1 1-3 0 1.5 1.5 0 0 1 3 0Zm5 0a1.5 1.5 0 1 1-3 0 1.5 1.5 0 0 1 3 0Z"
          ></path>
          <path d="m13.5 62.866-3 1.732a1 1 0 0 1-1.5-.866v-3.464a1 1 0 0 1 1.5-.866l3 1.732a1 1 0 0 1 0 1.732Z"></path>
          <path
            fill-rule="evenodd"
            clip-rule="evenodd"
            d="M.436 54.184C0 55.04 0 56.16 0 58.4v7.2c0 2.24 0 3.36.436 4.216a4 4 0 0 0 1.748 1.748C3.04 72 4.16 72 6.4 72h103.2c2.24 0 3.36 0 4.216-.436a3.996 3.996 0 0 0 1.748-1.748C116 68.96 116 67.84 116 65.6v-7.2c0-2.24 0-3.36-.436-4.216a3.996 3.996 0 0 0-1.748-1.748C112.96 52 111.84 52 109.6 52H6.4c-2.24 0-3.36 0-4.216.436a4 4 0 0 0-1.748 1.748ZM18 62a7 7 0 1 1-14 0 7 7 0 0 1 14 0Zm4-2a1 1 0 0 1 1-1h18a1 1 0 1 1 0 2H23a1 1 0 0 1-1-1Zm1 3a1 1 0 1 0 0 2h10a1 1 0 1 0 0-2H23Zm76-1a1.5 1.5 0 1 1-3 0 1.5 1.5 0 0 1 3 0Zm5 0a1.5 1.5 0 1 1-3 0 1.5 1.5 0 0 1 3 0Zm5 0a1.5 1.5 0 1 1-3 0 1.5 1.5 0 0 1 3 0Z"
          ></path>
          <path
            d="M8 34a1 1 0 1 1 2 0v4a1 1 0 1 1-2 0v-4ZM13 33a1 1 0 0 0-1 1v4a1 1 0 1 0 2 0v-4a1 1 0 0 0-1-1Z"
          ></path>
          <path
            fill-rule="evenodd"
            clip-rule="evenodd"
            d="M0 32.4c0-2.24 0-3.36.436-4.216a4 4 0 0 1 1.748-1.748C3.04 26 4.16 26 6.4 26h103.2c2.24 0 3.36 0 4.216.436a3.996 3.996 0 0 1 1.748 1.748c.436.856.436 1.976.436 4.216v7.2c0 2.24 0 3.36-.436 4.216a3.996 3.996 0 0 1-1.748 1.748C112.96 46 111.84 46 109.6 46H6.4c-2.24 0-3.36 0-4.216-.436a4 4 0 0 1-1.748-1.748C0 42.96 0 41.84 0 39.6v-7.2ZM18 36a7 7 0 1 1-14 0 7 7 0 0 1 14 0Zm5-3a1 1 0 1 0 0 2h18a1 1 0 1 0 0-2H23Zm-1 5a1 1 0 0 1 1-1h10a1 1 0 1 1 0 2H23a1 1 0 0 1-1-1Zm75.5-.5a1.5 1.5 0 1 0 0-3 1.5 1.5 0 0 0 0 3Zm5 0a1.5 1.5 0 1 0 0-3 1.5 1.5 0 0 0 0 3Zm5 0a1.5 1.5 0 1 0 0-3 1.5 1.5 0 0 0 0 3Z"
          ></path>
        </g>
        <defs>
          <clipPath id="track_list_svg__a">
            <path
              fill="#fff"
              d="M0 0h116v72H0z"
            ></path>
          </clipPath>
        </defs>
      </svg>