      <svg
        width="116"
        height="72"
        fill="none"
        xmlns="http://www.w3.org/2000/svg"
      >
        <g
          clip-path="url(#news_grid_svg__a)"
          fill="currentColor"
        >
          <path
            d="M.436 2.184C0 3.04 0 4.16 0 6.4v9.2c0 2.24 0 3.36.436 4.216a4 4 0 0 0 1.748 1.748C3.04 22 4.16 22 6.4 22h23.2c2.24 0 3.36 0 4.216-.436a4 4 0 0 0 1.748-1.748C36 18.96 36 17.84 36 15.6V6.4c0-2.24 0-3.36-.436-4.216A4 4 0 0 0 33.816.436C32.96 0 31.84 0 29.6 0H6.4C4.16 0 3.04 0 2.184.436A4 4 0 0 0 .436 2.184ZM1 26a1 1 0 1 0 0 2h34a1 1 0 1 0 0-2H1ZM6 31a1 1 0 0 1 1-1h22a1 1 0 1 1 0 2H7a1 1 0 0 1-1-1ZM40.436 2.184C40 3.04 40 4.16 40 6.4v9.2c0 2.24 0 3.36.436 4.216a4 4 0 0 0 1.748 1.748C43.04 22 44.16 22 46.4 22h23.2c2.24 0 3.36 0 4.216-.436a4 4 0 0 0 1.748-1.748C76 18.96 76 17.84 76 15.6V6.4c0-2.24 0-3.36-.436-4.216A4 4 0 0 0 73.816.436C72.96 0 71.84 0 69.6 0H46.4c-2.24 0-3.36 0-4.216.436a4 4 0 0 0-1.748 1.748ZM40 27a1 1 0 0 1 1-1h34a1 1 0 1 1 0 2H41a1 1 0 0 1-1-1ZM47 30a1 1 0 1 0 0 2h22a1 1 0 1 0 0-2H47ZM80 6.4c0-2.24 0-3.36.436-4.216A4 4 0 0 1 82.184.436C83.04 0 84.16 0 86.4 0h23.2c2.24 0 3.36 0 4.216.436a3.996 3.996 0 0 1 1.748 1.748C116 3.04 116 4.16 116 6.4v9.2c0 2.24 0 3.36-.436 4.216a3.996 3.996 0 0 1-1.748 1.748C112.96 22 111.84 22 109.6 22H86.4c-2.24 0-3.36 0-4.216-.436a4 4 0 0 1-1.748-1.748C80 18.96 80 17.84 80 15.6V6.4ZM81 26a1 1 0 1 0 0 2h34a1 1 0 0 0 0-2H81ZM86 31a1 1 0 0 1 1-1h22a1 1 0 0 1 0 2H87a1 1 0 0 1-1-1ZM.436 42.184C0 43.04 0 44.16 0 46.4v9.2c0 2.24 0 3.36.436 4.216a4 4 0 0 0 1.748 1.748C3.04 62 4.16 62 6.4 62h23.2c2.24 0 3.36 0 4.216-.436a4 4 0 0 0 1.748-1.748C36 58.96 36 57.84 36 55.6v-9.2c0-2.24 0-3.36-.436-4.216a4 4 0 0 0-1.748-1.748C32.96 40 31.84 40 29.6 40H6.4c-2.24 0-3.36 0-4.216.436a4 4 0 0 0-1.748 1.748ZM0 67a1 1 0 0 1 1-1h34a1 1 0 1 1 0 2H1a1 1 0 0 1-1-1ZM7 70a1 1 0 1 0 0 2h22a1 1 0 1 0 0-2H7ZM40 46.4c0-2.24 0-3.36.436-4.216a4 4 0 0 1 1.748-1.748C43.04 40 44.16 40 46.4 40h23.2c2.24 0 3.36 0 4.216.436a4 4 0 0 1 1.748 1.748C76 43.04 76 44.16 76 46.4v9.2c0 2.24 0 3.36-.436 4.216a4 4 0 0 1-1.748 1.748C72.96 62 71.84 62 69.6 62H46.4c-2.24 0-3.36 0-4.216-.436a4 4 0 0 1-1.748-1.748C40 58.96 40 57.84 40 55.6v-9.2ZM41 66a1 1 0 1 0 0 2h34a1 1 0 1 0 0-2H41ZM46 71a1 1 0 0 1 1-1h22a1 1 0 1 1 0 2H47a1 1 0 0 1-1-1ZM80.436 42.184C80 43.04 80 44.16 80 46.4v9.2c0 2.24 0 3.36.436 4.216a4 4 0 0 0 1.748 1.748C83.04 62 84.16 62 86.4 62h23.2c2.24 0 3.36 0 4.216-.436a3.996 3.996 0 0 0 1.748-1.748C116 58.96 116 57.84 116 55.6v-9.2c0-2.24 0-3.36-.436-4.216a3.996 3.996 0 0 0-1.748-1.748C112.96 40 111.84 40 109.6 40H86.4c-2.24 0-3.36 0-4.216.436a4 4 0 0 0-1.748 1.748ZM80 67a1 1 0 0 1 1-1h34a1 1 0 0 1 0 2H81a1 1 0 0 1-1-1ZM87 70a1 1 0 1 0 0 2h22a1 1 0 0 0 0-2H87Z"
          ></path>
        </g>
        <defs>
          <clipPath id="news_grid_svg__a">
            <path
              fill="#fff"
              d="M0 0h116v72H0z"
            ></path>
          </clipPath>
        </defs>
      </svg>