      <svg
        width="116"
        height="72"
        fill="none"
        xmlns="http://www.w3.org/2000/svg"
      >
        <g
          clip-path="url(#news_list_svg__a)"
          fill="currentColor"
        >
          <path
            d="M.436 2.184C0 3.04 0 4.16 0 6.4v9.2c0 2.24 0 3.36.436 4.216a4 4 0 0 0 1.748 1.748C3.04 22 4.16 22 6.4 22h33.2c2.24 0 3.36 0 4.216-.436a4 4 0 0 0 1.748-1.748C46 18.96 46 17.84 46 15.6V6.4c0-2.24 0-3.36-.436-4.216A4 4 0 0 0 43.816.436C42.96 0 41.84 0 39.6 0H6.4C4.16 0 3.04 0 2.184.436A4 4 0 0 0 .436 2.184ZM53 2a1 1 0 1 0 0 2h16a1 1 0 1 0 0-2H53ZM52 7a1 1 0 0 1 1-1h50a1 1 0 0 1 0 2H53a1 1 0 0 1-1-1ZM107 6a1 1 0 0 0 0 2h8a1 1 0 0 0 0-2h-8ZM52 11a1 1 0 0 1 1-1h62a1 1 0 0 1 0 2H53a1 1 0 0 1-1-1ZM53 14a1 1 0 1 0 0 2h62a1 1 0 0 0 0-2H53ZM52 19a1 1 0 0 1 1-1h38a1 1 0 1 1 0 2H53a1 1 0 0 1-1-1ZM.436 27.184C0 28.04 0 29.16 0 31.4v9.2c0 2.24 0 3.36.436 4.216a4 4 0 0 0 1.748 1.748C3.04 47 4.16 47 6.4 47h33.2c2.24 0 3.36 0 4.216-.436a4 4 0 0 0 1.748-1.748C46 43.96 46 42.84 46 40.6v-9.2c0-2.24 0-3.36-.436-4.216a4 4 0 0 0-1.748-1.748C42.96 25 41.84 25 39.6 25H6.4c-2.24 0-3.36 0-4.216.436a4 4 0 0 0-1.748 1.748ZM52 28a1 1 0 0 1 1-1h16a1 1 0 1 1 0 2H53a1 1 0 0 1-1-1ZM53 31a1 1 0 1 0 0 2h23a1 1 0 1 0 0-2H53ZM79 32a1 1 0 0 1 1-1h35a1 1 0 0 1 0 2H80a1 1 0 0 1-1-1ZM53 35a1 1 0 1 0 0 2h62a1 1 0 0 0 0-2H53ZM52 40a1 1 0 0 1 1-1h38a1 1 0 1 1 0 2H53a1 1 0 0 1-1-1ZM53 43a1 1 0 1 0 0 2h38a1 1 0 1 0 0-2H53ZM0 56.4c0-2.24 0-3.36.436-4.216a4 4 0 0 1 1.748-1.748C3.04 50 4.16 50 6.4 50h33.2c2.24 0 3.36 0 4.216.436a4 4 0 0 1 1.748 1.748C46 53.04 46 54.16 46 56.4v9.2c0 2.24 0 3.36-.436 4.216a4 4 0 0 1-1.748 1.748C42.96 72 41.84 72 39.6 72H6.4c-2.24 0-3.36 0-4.216-.436a4 4 0 0 1-1.748-1.748C0 68.96 0 67.84 0 65.6v-9.2ZM53 52a1 1 0 1 0 0 2h16a1 1 0 1 0 0-2H53ZM52 57a1 1 0 0 1 1-1h38a1 1 0 1 1 0 2H53a1 1 0 0 1-1-1ZM95 56a1 1 0 1 0 0 2h8a1 1 0 0 0 0-2h-8ZM106 57a1 1 0 0 1 1-1h8a1 1 0 0 1 0 2h-8a1 1 0 0 1-1-1ZM53 60a1 1 0 1 0 0 2h62a1 1 0 0 0 0-2H53ZM52 65a1 1 0 0 1 1-1h62a1 1 0 0 1 0 2H53a1 1 0 0 1-1-1ZM53 68a1 1 0 1 0 0 2h38a1 1 0 1 0 0-2H53Z"
          ></path>
        </g>
        <defs>
          <clipPath id="news_list_svg__a">
            <path
              fill="#fff"
              d="M0 0h116v72H0z"
            ></path>
          </clipPath>
        </defs>
      </svg>