      <svg
        width="116"
        height="72"
        fill="none"
        xmlns="http://www.w3.org/2000/svg"
      >
        <path
          d="M33 26.63c0-1.594.564-3.055 1.501-4.192.34-.412.956-.392 1.332-.012l10.368 10.461c.267.269.355.664.253 1.028a12.22 12.22 0 0 0-.454 3.31c0 6.686 5.373 12.107 12 12.107a11.91 11.91 0 0 0 3.266-.454c.369-.105.77-.014 1.04.258l3.505 3.537c.626.631.179 1.704-.71 1.704H39.5c-3.59 0-6.5-2.936-6.5-6.558V26.63ZM36.577 15.959a2.26 2.26 0 0 1 3.21 0l3.117 3.144c.285.288.721.381 1.078.188a6.509 6.509 0 0 0 1.969-1.642l2.598-3.226A6.478 6.478 0 0 1 53.594 12h8.812c1.958 0 3.81.89 5.045 2.423l2.598 3.226a6.478 6.478 0 0 0 5.045 2.423H76.5c3.59 0 6.5 2.936 6.5 6.558V47.82a6.553 6.553 0 0 1-4.706 6.305c-.232.067-.321.363-.151.534l.535.54a2.26 2.26 0 0 1-3.21 3.182L36.577 19.14a2.26 2.26 0 0 1 0-3.181ZM66.955 43.37c.438.443 1.173.381 1.48-.161A12.136 12.136 0 0 0 70 37.224c0-6.686-5.373-12.107-12-12.107-2.163 0-4.193.577-5.945 1.588-.534.307-.594 1.032-.16 1.47l15.06 15.195Z"
          fill="currentColor"
        ></path>
      </svg>