      <svg
        width="116"
        height="72"
        fill="none"
        xmlns="http://www.w3.org/2000/svg"
      >
        <g
          clip-path="url(#order_history_svg__a)"
          fill="currentColor"
        >
          <path
            d="M1 0a1 1 0 1 0 0 2h22a1 1 0 1 0 0-2H1ZM2 4a2 2 0 1 0 0 4h34a2 2 0 1 0 0-4H2ZM46 6a1 1 0 0 1 1-1h16a1 1 0 1 1 0 2H47a1 1 0 0 1-1-1ZM73 5a1 1 0 1 0 0 2h16a1 1 0 1 0 0-2H73ZM98 6a1 1 0 0 1 1-1h16a1 1 0 0 1 0 2H99a1 1 0 0 1-1-1ZM1 16a1 1 0 1 0 0 2h22a1 1 0 1 0 0-2H1ZM0 22a2 2 0 0 1 2-2h34a2 2 0 1 1 0 4H2a2 2 0 0 1-2-2ZM47 21a1 1 0 1 0 0 2h16a1 1 0 1 0 0-2H47ZM72 22a1 1 0 0 1 1-1h16a1 1 0 1 1 0 2H73a1 1 0 0 1-1-1ZM99 21a1 1 0 1 0 0 2h16a1 1 0 0 0 0-2H99ZM0 33a1 1 0 0 1 1-1h22a1 1 0 1 1 0 2H1a1 1 0 0 1-1-1ZM2 36a2 2 0 1 0 0 4h34a2 2 0 1 0 0-4H2ZM46 38a1 1 0 0 1 1-1h16a1 1 0 1 1 0 2H47a1 1 0 0 1-1-1ZM73 37a1 1 0 1 0 0 2h16a1 1 0 1 0 0-2H73ZM98 38a1 1 0 0 1 1-1h16a1 1 0 0 1 0 2H99a1 1 0 0 1-1-1ZM1 48a1 1 0 1 0 0 2h22a1 1 0 1 0 0-2H1ZM0 54a2 2 0 0 1 2-2h34a2 2 0 1 1 0 4H2a2 2 0 0 1-2-2ZM47 53a1 1 0 1 0 0 2h16a1 1 0 1 0 0-2H47ZM72 54a1 1 0 0 1 1-1h16a1 1 0 1 1 0 2H73a1 1 0 0 1-1-1ZM99 53a1 1 0 1 0 0 2h16a1 1 0 0 0 0-2H99ZM0 68a4 4 0 0 1 4-4h16a4 4 0 0 1 0 8H4a4 4 0 0 1-4-4ZM33 67a1 1 0 1 0 0 2h16a1 1 0 1 0 0-2H33Z"
          ></path>
        </g>
        <defs>
          <clipPath id="order_history_svg__a">
            <path
              fill="#fff"
              d="M0 0h116v72H0z"
            ></path>
          </clipPath>
        </defs>
      </svg>