      <svg
        width="116"
        height="72"
        fill="none"
        xmlns="http://www.w3.org/2000/svg"
      >
        <g
          clip-path="url(#order_details_svg__a)"
          fill="currentColor"
        >
          <path
            d="M9.24 2.34a1.015 1.015 0 0 0-.728-.28c-.28 0-.523.093-.728.28-.196.187-.294.453-.294.798v5.334L2.814 2.424c-.196-.243-.462-.364-.798-.364-.29 0-.537.093-.742.28-.196.187-.294.453-.294.798v7.854c0 .355.098.625.294.812.196.187.439.28.728.28.29 0 .532-.093.728-.28.196-.187.294-.457.294-.812V5.63L7.7 11.72c.196.243.467.364.812.364.29 0 .532-.093.728-.28.205-.187.308-.457.308-.812V3.138c0-.345-.103-.611-.308-.798Z"
          ></path>
          <path
            fill-rule="evenodd"
            clip-rule="evenodd"
            d="M11.312 5.77c.41.41 1.008.616 1.792.616s1.377-.205 1.778-.616c.41-.42.616-.938.616-1.554 0-.616-.205-1.13-.616-1.54-.401-.41-.994-.616-1.778-.616-.793 0-1.395.205-1.806.616-.401.41-.602.924-.602 1.54s.205 1.134.616 1.554Zm1.106-1.554c0-.541.229-.812.686-.812.224 0 .397.07.518.21.13.13.196.331.196.602 0 .252-.065.453-.196.602-.121.14-.294.21-.518.21-.215 0-.383-.07-.504-.21-.121-.14-.182-.34-.182-.602Z"
          ></path>
          <path
            d="M15.47 8.248c0-.55-.327-.826-.98-.826h-2.758c-.336 0-.588.075-.756.224-.159.14-.238.34-.238.602 0 .261.08.467.238.616.168.14.42.21.756.21h2.758c.653 0 .98-.275.98-.826ZM23.829 11.118c0-.579-.341-.868-1.022-.868h-1.302V3.138c0-.327-.098-.583-.294-.77-.196-.196-.448-.294-.756-.294a1.89 1.89 0 0 0-.98.294l-2.212 1.33a.808.808 0 0 0-.434.742c0 .243.079.462.238.658a.768.768 0 0 0 .602.294.81.81 0 0 0 .42-.126l1.232-.742v5.726h-1.302c-.691 0-1.036.29-1.036.868 0 .588.345.882 1.036.882h4.788c.681 0 1.022-.294 1.022-.882Z"
          ></path>
          <path
            fill-rule="evenodd"
            clip-rule="evenodd"
            d="M30.95 3.278c-.7-.85-1.69-1.274-2.969-1.274-.644 0-1.223.145-1.736.434-.513.28-.915.677-1.204 1.19-.29.504-.434 1.078-.434 1.722 0 .616.126 1.167.378 1.652a2.9 2.9 0 0 0 1.064 1.134c.457.27.976.406 1.554.406.485 0 .924-.103 1.316-.308.392-.215.695-.5.91-.854-.047.961-.242 1.708-.588 2.24-.336.532-.793.798-1.372.798-.308 0-.611-.06-.91-.182-.29-.13-.62-.308-.994-.532-.15-.084-.27-.14-.364-.168a.757.757 0 0 0-.308-.056c-.196 0-.364.089-.504.266a.973.973 0 0 0-.196.616c0 .168.028.313.084.434.066.112.163.22.294.322.383.317.845.565 1.386.742a5.147 5.147 0 0 0 1.61.266c.812 0 1.521-.21 2.128-.63.616-.42 1.088-1.022 1.414-1.806.327-.793.49-1.717.49-2.772 0-1.577-.35-2.79-1.05-3.64ZM29.17 6.414c-.27.29-.625.434-1.064.434-.438 0-.793-.145-1.064-.434-.261-.29-.392-.667-.392-1.134 0-.476.13-.859.392-1.148.27-.29.626-.434 1.064-.434.439 0 .794.15 1.064.448.27.29.406.667.406 1.134 0 .467-.135.845-.406 1.134ZM40.044 7.8c-.308-.42-.747-.714-1.316-.882.476-.159.85-.439 1.12-.84.27-.401.406-.868.406-1.4 0-.83-.318-1.484-.952-1.96-.626-.476-1.489-.714-2.59-.714-1.092 0-1.956.243-2.59.728-.635.476-.952 1.125-.952 1.946 0 .523.135.98.406 1.372.27.392.648.681 1.134.868-.579.159-1.022.443-1.33.854-.308.41-.462.924-.462 1.54 0 .877.336 1.563 1.008 2.058.672.495 1.6.742 2.786.742 1.185 0 2.114-.247 2.786-.742.672-.495 1.008-1.18 1.008-2.058 0-.597-.154-1.101-.462-1.512Zm-4.83-2.884c0-.83.5-1.246 1.498-1.246s1.498.415 1.498 1.246c0 .84-.5 1.26-1.498 1.26-.999 0-1.498-.42-1.498-1.26Zm3.262 4.228c0 .868-.588 1.302-1.764 1.302-1.176 0-1.764-.434-1.764-1.302 0-.868.588-1.302 1.764-1.302 1.176 0 1.764.434 1.764 1.302ZM49.208 9.354c0-.55-.34-.826-1.022-.826h-.518v-5.39c0-.336-.107-.597-.322-.784a1.085 1.085 0 0 0-.756-.294c-.186 0-.364.042-.532.126a1.011 1.011 0 0 0-.42.35L41.466 8.5c-.177.261-.266.523-.266.784s.084.48.252.658c.168.168.397.252.686.252h3.402v.798c0 .355.098.625.294.812.196.187.453.28.77.28.318 0 .574-.093.77-.28.196-.187.294-.457.294-.812v-.798h.518c.682 0 1.022-.28 1.022-.84Zm-3.668-.826h-2.142l2.142-3.08v3.08Z"
          ></path>
          <path
            d="M2 27a2 2 0 0 0 0 4h32a2 2 0 1 0 0-4H2ZM0 36a2 2 0 0 1 2-2h32a2 2 0 0 1 0 4H2a2 2 0 0 1-2-2ZM2 41a2 2 0 0 0 0 4h32a2 2 0 1 0 0-4H2ZM44 29a1 1 0 0 1 1-1h26a1 1 0 1 1 0 2H45a1 1 0 0 1-1-1ZM45 35a1 1 0 1 0 0 2h26a1 1 0 1 0 0-2H45ZM44 43a1 1 0 0 1 1-1h26a1 1 0 1 1 0 2H45a1 1 0 0 1-1-1ZM81 28a1 1 0 1 0 0 2h34a1 1 0 0 0 0-2H81ZM80 36a1 1 0 0 1 1-1h34a1 1 0 0 1 0 2H81a1 1 0 0 1-1-1ZM81 42a1 1 0 1 0 0 2h34a1 1 0 0 0 0-2H81ZM41 66c0-1.864 0-2.796.304-3.53a4 4 0 0 1 2.165-2.166C44.204 60 45.136 60 47 60h21c1.864 0 2.796 0 3.53.304a4 4 0 0 1 2.165 2.165C74 63.204 74 64.136 74 66s0 2.796-.305 3.53a4 4 0 0 1-2.164 2.165C70.796 72 69.864 72 68 72H47c-1.864 0-2.796 0-3.53-.305a4 4 0 0 1-2.166-2.164C41 68.796 41 67.864 41 66ZM83.5 48a3.5 3.5 0 1 0 0 7h29a3.5 3.5 0 1 0 0-7h-29Z"
          ></path>
        </g>
        <defs>
          <clipPath id="order_details_svg__a">
            <path
              fill="#fff"
              d="M0 0h116v72H0z"
            ></path>
          </clipPath>
        </defs>
      </svg>