      <svg
        width="116"
        height="72"
        fill="none"
        xmlns="http://www.w3.org/2000/svg"
      >
        <path
          d="M52.375 13.05a.937.937 0 0 0-1.326 1.325L56.674 20l-5.625 5.55a.937.937 0 0 0 1.326 1.325L58 21.325l5.625 5.55a.937.937 0 0 0 1.326-1.326L59.326 20l5.549-5.625a.937.937 0 0 0-1.326-1.326L58 18.674l-5.625-5.625ZM50.453 43.168c-.544-.31-1.162-.464-1.856-.464-.693 0-1.296.144-1.808.432v-2.512h3.888c.79 0 1.184-.32 1.184-.96 0-.63-.394-.944-1.184-.944h-5.152c-.373 0-.661.101-.864.304-.202.203-.304.49-.304.864v4.656c0 .256.086.464.256.624.182.15.4.224.656.224.224 0 .448-.064.672-.192.352-.213.678-.363.976-.448a3.23 3.23 0 0 1 .992-.144c.587 0 1.051.16 1.392.48.352.32.528.757.528 1.312 0 .587-.17 1.03-.512 1.328-.33.299-.821.448-1.472.448-.416 0-.8-.07-1.152-.208a9.57 9.57 0 0 1-1.168-.608c-.17-.096-.309-.16-.416-.192a.939.939 0 0 0-.352-.064c-.224 0-.416.101-.576.304-.149.192-.224.427-.224.704 0 .192.032.357.096.496.064.128.176.25.336.368a5.144 5.144 0 0 0 1.632.848c.63.203 1.275.304 1.936.304.832 0 1.563-.16 2.192-.48a3.57 3.57 0 0 0 1.488-1.344c.352-.576.528-1.237.528-1.984 0-.715-.149-1.344-.448-1.888a3.135 3.135 0 0 0-1.264-1.264Z"
          fill="currentColor"
        ></path>
        <path
          fill-rule="evenodd"
          clip-rule="evenodd"
          d="M54.367 48.656c.726.992 1.77 1.488 3.136 1.488 1.365 0 2.405-.496 3.12-1.488.726-.992 1.088-2.427 1.088-4.304 0-1.867-.362-3.296-1.088-4.288-.715-.992-1.755-1.488-3.12-1.488-1.365 0-2.41.496-3.136 1.488-.714.992-1.072 2.421-1.072 4.288 0 1.877.358 3.312 1.072 4.304Zm4.48-1.344c-.277.619-.725.928-1.344.928-.618 0-1.072-.31-1.36-.928-.277-.619-.416-1.605-.416-2.96s.139-2.336.416-2.944c.288-.619.742-.928 1.36-.928.619 0 1.067.304 1.344.912.288.608.432 1.595.432 2.96 0 1.355-.144 2.341-.432 2.96ZM63.96 48.656c.726.992 1.771 1.488 3.137 1.488 1.365 0 2.405-.496 3.12-1.488.725-.992 1.088-2.427 1.088-4.304 0-1.867-.363-3.296-1.088-4.288-.715-.992-1.755-1.488-3.12-1.488-1.365 0-2.41.496-3.136 1.488-.715.992-1.072 2.421-1.072 4.288 0 1.877.357 3.312 1.072 4.304Zm4.48-1.344c-.276.619-.724.928-1.343.928s-1.072-.31-1.36-.928c-.277-.619-.416-1.605-.416-2.96s.139-2.336.416-2.944c.288-.619.741-.928 1.36-.928.619 0 1.067.304 1.344.912.288.608.432 1.595.432 2.96 0 1.355-.144 2.341-.432 2.96Z"
          fill="currentColor"
        ></path>
        <path
          d="M42 57a1 1 0 0 1 1-1h30a1 1 0 1 1 0 2H43a1 1 0 0 1-1-1ZM47 60a1 1 0 1 0 0 2h22a1 1 0 1 0 0-2H47Z"
          fill="currentColor"
        ></path>
      </svg>