      <svg
        width="116"
        height="72"
        fill="none"
        xmlns="http://www.w3.org/2000/svg"
      >
        <path
          d="M.436 2.184C0 3.04 0 4.16 0 6.4v23.2c0 2.24 0 3.36.436 4.216a4 4 0 0 0 1.748 1.748C3.04 36 4.16 36 6.4 36h103.2c2.24 0 3.36 0 4.216-.436a3.996 3.996 0 0 0 1.748-1.748C116 32.96 116 31.84 116 29.6V6.4c0-2.24 0-3.36-.436-4.216a3.996 3.996 0 0 0-1.748-1.748C112.96 0 111.84 0 109.6 0H6.4C4.16 0 3.04 0 2.184.436A4 4 0 0 0 .436 2.184ZM8 49a1 1 0 0 1 1-1h14a1 1 0 1 1 0 2H9a1 1 0 0 1-1-1ZM9 52a1 1 0 1 0 0 2h10a1 1 0 1 0 0-2H9ZM8 59a1 1 0 0 1 1-1h14a1 1 0 1 1 0 2H9a1 1 0 0 1-1-1ZM9 62a1 1 0 1 0 0 2h10a1 1 0 1 0 0-2H9Z"
          fill="currentColor"
        ></path>
        <path
          fill-rule="evenodd"
          clip-rule="evenodd"
          d="M0 46.4c0-2.24 0-3.36.436-4.216a4 4 0 0 1 1.748-1.748C3.04 40 4.16 40 6.4 40h19.2c2.24 0 3.36 0 4.216.436a4 4 0 0 1 1.748 1.748C32 43.04 32 44.16 32 46.4v19.2c0 2.24 0 3.36-.436 4.216a4 4 0 0 1-1.748 1.748C28.96 72 27.84 72 25.6 72H6.4c-2.24 0-3.36 0-4.216-.436a4 4 0 0 1-1.748-1.748C0 68.96 0 67.84 0 65.6V46.4ZM6.4 42h19.2c1.153 0 1.898.002 2.464.048.544.044.745.12.844.17a2 2 0 0 1 .874.874c.05.099.126.3.17.844.046.566.048 1.31.048 2.464v19.2c0 1.153-.002 1.898-.048 2.464-.044.544-.12.745-.17.844a2 2 0 0 1-.874.874c-.099.05-.3.126-.844.17-.566.046-1.31.048-2.464.048H6.4c-1.153 0-1.898-.002-2.464-.048-.544-.044-.745-.12-.844-.17a2 2 0 0 1-.874-.874c-.05-.099-.126-.3-.17-.844C2.002 67.498 2 66.754 2 65.6V46.4c0-1.153.002-1.898.048-2.464.044-.544.12-.745.17-.844a2 2 0 0 1 .874-.874c.099-.05.3-.126.844-.17C4.502 42.002 5.246 42 6.4 42Z"
          fill="currentColor"
        ></path>
        <path
          d="M36 45a1 1 0 0 1 1-1h30a1 1 0 1 1 0 2H37a1 1 0 0 1-1-1ZM37 48a1 1 0 1 0 0 2h14a1 1 0 1 0 0-2H37ZM36 55a1 1 0 0 1 1-1h78a1 1 0 0 1 0 2H37a1 1 0 0 1-1-1ZM37 58a1 1 0 1 0 0 2h78a1 1 0 0 0 0-2H37ZM36 63a1 1 0 0 1 1-1h78a1 1 0 0 1 0 2H37a1 1 0 0 1-1-1ZM37 66a1 1 0 1 0 0 2h46a1 1 0 1 0 0-2H37Z"
          fill="currentColor"
        ></path>
      </svg>