      <svg
        width="116"
        height="72"
        fill="none"
        xmlns="http://www.w3.org/2000/svg"
      >
        <path
          fill-rule="evenodd"
          clip-rule="evenodd"
          d="M39.224 2.604c.417-3.472 5.454-3.472 5.87 0 .318 2.648 3.702 3.555 5.301 1.42 2.097-2.798 6.46-.28 5.084 2.936-1.05 2.451 1.428 4.929 3.88 3.88 3.215-1.376 5.734 2.987 2.935 5.084-2.134 1.598-1.227 4.983 1.42 5.3 3.473.417 3.473 5.454 0 5.87-2.647.318-3.554 3.702-1.42 5.301 2.8 2.097.28 6.46-2.935 5.084-2.452-1.05-4.93 1.428-3.88 3.88 1.375 3.215-2.987 5.734-5.084 2.935-1.599-2.134-4.983-1.227-5.3 1.42-.417 3.473-5.454 3.473-5.87 0-.318-2.647-3.703-3.554-5.302-1.42-2.096 2.8-6.459.28-5.083-2.935 1.049-2.452-1.429-4.93-3.88-3.88-3.216 1.375-5.734-2.987-2.936-5.084 2.135-1.599 1.228-4.983-1.42-5.3-3.472-.417-3.472-5.454 0-5.87 2.648-.318 3.555-3.703 1.42-5.302-2.798-2.096-.28-6.459 2.935-5.083 2.452 1.049 4.93-1.429 3.881-3.88-1.376-3.216 2.987-5.734 5.083-2.935 1.6 2.134 4.984 1.227 5.301-1.42Zm11.5 21.555a8.565 8.565 0 1 1-17.13 0 8.565 8.565 0 0 1 17.13 0ZM67.813 39l.009-.057a2.373 2.373 0 0 0-.008-.718 2.543 2.543 0 0 0-.174-.595c-1.143-2.672 2.482-4.765 4.225-2.44.13.174.273.323.428.449a2.375 2.375 0 0 0 .672.386 2.5 2.5 0 0 0 2.805-.786 2.37 2.37 0 0 0 .353-.626c.07-.187.12-.388.147-.603.346-2.885 4.532-2.885 4.878 0 .025.215.076.416.146.603a2.371 2.371 0 0 0 .389.67 2.5 2.5 0 0 0 2.77.742l.04-.015.013-.005c.218-.088.426-.209.619-.366.154-.126.298-.275.428-.448 1.742-2.326 5.367-.233 4.224 2.439a2.554 2.554 0 0 0-.174.594 2.376 2.376 0 0 0 .001.776 2.5 2.5 0 0 0 2.085 2.036c.232.033.473.033.718-.007.197-.032.396-.09.595-.175 2.672-1.143 4.765 2.483 2.439 4.225-.173.13-.322.274-.448.428a2.37 2.37 0 0 0-.366.619l-.01.027-.01.026a2.5 2.5 0 0 0 .741 2.77l.028.022.017.014c.184.144.394.264.626.352.186.071.387.121.602.147 2.886.346 2.886 4.532 0 4.878a2.555 2.555 0 0 0-.602.146 2.377 2.377 0 0 0-.626.353l-.026.021-.019.015a2.5 2.5 0 0 0-.721 2.823c.087.218.208.427.366.62.126.153.275.297.448.427 2.326 1.742.233 5.368-2.439 4.225a2.55 2.55 0 0 0-.595-.175 2.37 2.37 0 0 0-.775.002 2.5 2.5 0 0 0-2.031 2.05l-.005.034c-.034.232-.033.473.007.718.032.197.09.396.174.595 1.143 2.672-2.482 4.765-4.224 2.44a2.546 2.546 0 0 0-.428-.449 2.373 2.373 0 0 0-.672-.386 2.5 2.5 0 0 0-2.806.786 2.371 2.371 0 0 0-.353.626 2.55 2.55 0 0 0-.146.603c-.346 2.885-4.532 2.885-4.878 0a2.545 2.545 0 0 0-.147-.603 2.37 2.37 0 0 0-.389-.67 2.5 2.5 0 0 0-2.77-.742l-.026.01-.027.01a2.375 2.375 0 0 0-.618.366 2.553 2.553 0 0 0-.428.448c-1.743 2.326-5.368.233-4.225-2.439.085-.199.142-.398.174-.594a2.373 2.373 0 0 0-.001-.776 2.5 2.5 0 0 0-2.084-2.036 2.37 2.37 0 0 0-.719.007 2.55 2.55 0 0 0-.595.175c-2.672 1.143-4.765-2.483-2.439-4.225.174-.13.323-.274.449-.428a2.373 2.373 0 0 0 .386-.672 2.5 2.5 0 0 0-.787-2.806 2.377 2.377 0 0 0-.626-.352 2.556 2.556 0 0 0-.602-.147c-2.886-.346-2.886-4.532 0-4.878.215-.026.416-.076.602-.147a2.377 2.377 0 0 0 .658-.378l.013-.01a2.5 2.5 0 0 0 .721-2.823 2.373 2.373 0 0 0-.365-.62 2.558 2.558 0 0 0-.449-.427c-2.326-1.742-.233-5.368 2.44-4.225.198.086.398.143.594.175a2.373 2.373 0 0 0 .775-.002A2.5 2.5 0 0 0 67.813 39Zm18.014 12.924a7.118 7.118 0 1 1-14.236 0 7.118 7.118 0 0 1 14.236 0Z"
          fill="currentColor"
        ></path>
      </svg>