      <svg
        width="116"
        height="72"
        fill="none"
        xmlns="http://www.w3.org/2000/svg"
      >
        <path
          d="M52.375 13.05a.937.937 0 0 0-1.326 1.325L56.674 20l-5.625 5.55a.937.937 0 0 0 1.326 1.325L58 21.325l5.625 5.55a.937.937 0 0 0 1.326-1.326L59.326 20l5.549-5.625a.937.937 0 0 0-1.326-1.326L58 18.674l-5.625-5.625Z"
          fill="currentColor"
        ></path>
        <path
          fill-rule="evenodd"
          clip-rule="evenodd"
          d="M52.597 46.976c0-.63-.389-.944-1.168-.944h-.592v-6.16c0-.384-.122-.683-.368-.896a1.24 1.24 0 0 0-.864-.336c-.213 0-.416.048-.608.144a1.156 1.156 0 0 0-.48.4L43.75 46c-.202.299-.304.597-.304.896 0 .299.096.55.288.752.192.192.454.288.784.288h3.888v.912c0 .405.112.715.336.928.224.213.518.32.88.32.363 0 .656-.107.88-.32.224-.213.336-.523.336-.928v-.912h.592c.779 0 1.168-.32 1.168-.96Zm-4.192-.944h-2.448l2.448-3.52v3.52ZM54.367 48.656c.726.992 1.77 1.488 3.136 1.488 1.365 0 2.405-.496 3.12-1.488.726-.992 1.088-2.427 1.088-4.304 0-1.867-.362-3.296-1.088-4.288-.715-.992-1.755-1.488-3.12-1.488-1.365 0-2.41.496-3.136 1.488-.714.992-1.072 2.421-1.072 4.288 0 1.877.358 3.312 1.072 4.304Zm4.48-1.344c-.277.619-.725.928-1.344.928-.618 0-1.072-.31-1.36-.928-.277-.619-.416-1.605-.416-2.96s.139-2.336.416-2.944c.288-.619.742-.928 1.36-.928.619 0 1.067.304 1.344.912.288.608.432 1.595.432 2.96 0 1.355-.144 2.341-.432 2.96ZM71.785 46.976c0-.63-.39-.944-1.168-.944h-.592v-6.16c0-.384-.123-.683-.368-.896a1.24 1.24 0 0 0-.864-.336c-.214 0-.416.048-.608.144a1.156 1.156 0 0 0-.48.4L62.937 46c-.203.299-.304.597-.304.896 0 .299.096.55.288.752.192.192.453.288.784.288h3.888v.912c0 .405.112.715.336.928.224.213.517.32.88.32.362 0 .656-.107.88-.32.224-.213.336-.523.336-.928v-.912h.592c.778 0 1.168-.32 1.168-.96Zm-4.192-.944h-2.448l2.448-3.52v3.52Z"
          fill="currentColor"
        ></path>
        <path
          d="M42 57a1 1 0 0 1 1-1h30a1 1 0 1 1 0 2H43a1 1 0 0 1-1-1ZM47 60a1 1 0 1 0 0 2h22a1 1 0 1 0 0-2H47Z"
          fill="currentColor"
        ></path>
      </svg>