      <svg
        width="116"
        height="72"
        fill="none"
        xmlns="http://www.w3.org/2000/svg"
      >
        <path
          d="M52.375 12.05a.937.937 0 0 0-1.326 1.325L56.674 19l-5.625 5.55a.937.937 0 0 0 1.326 1.325L58 20.325l5.625 5.55a.937.937 0 0 0 1.326-1.326L59.326 19l5.549-5.625a.937.937 0 0 0-1.326-1.326L58 17.674l-5.625-5.625ZM48.993 46c-.28 0-.496-.076-.648-.228-.152-.152-.228-.368-.228-.648v-6.72c0-.28.084-.504.252-.672.168-.168.396-.252.684-.252.288 0 .516.084.684.252.168.168.252.392.252.672v6.072h3.072c.584 0 .876.256.876.768 0 .504-.292.756-.876.756h-4.068Z"
          fill="currentColor"
        ></path>
        <path
          fill-rule="evenodd"
          clip-rule="evenodd"
          d="M32.08 45.772c.152.152.368.228.648.228h2.412c.928 0 1.724-.168 2.388-.504a3.448 3.448 0 0 0 1.512-1.452c.352-.64.528-1.4.528-2.28 0-.88-.176-1.636-.528-2.268a3.519 3.519 0 0 0-1.524-1.452c-.664-.336-1.456-.504-2.376-.504h-2.412c-.28 0-.496.076-.648.228-.152.152-.228.368-.228.648v6.708c0 .28.076.496.228.648Zm5.628-4.008c0 1.816-.9 2.724-2.7 2.724h-1.284v-5.436h1.284c1.8 0 2.7.904 2.7 2.712Z"
          fill="currentColor"
        ></path>
        <path
          d="M41.232 45.772c.152.152.368.228.648.228h4.248c.592 0 .888-.24.888-.72 0-.488-.296-.732-.888-.732h-3.3v-2.124h3.06c.592 0 .888-.24.888-.72 0-.488-.296-.732-.888-.732h-3.06v-1.98h3.3c.592 0 .888-.244.888-.732 0-.48-.296-.72-.888-.72H41.88c-.28 0-.496.076-.648.228-.152.152-.228.368-.228.648v6.708c0 .28.076.496.228.648ZM55.107 45.772c.152.152.368.228.648.228h4.248c.592 0 .888-.24.888-.72 0-.488-.296-.732-.888-.732h-3.3v-2.124h3.06c.592 0 .888-.24.888-.72 0-.488-.296-.732-.888-.732h-3.06v-1.98h3.3c.592 0 .888-.244.888-.732 0-.48-.296-.72-.888-.72h-4.248c-.28 0-.496.076-.648.228-.152.152-.228.368-.228.648v6.708c0 .28.076.496.228.648ZM64.99 46.06c-.28 0-.508-.084-.684-.252-.168-.168-.252-.392-.252-.672v-6.072H62.11c-.592 0-.888-.256-.888-.768 0-.504.296-.756.888-.756h5.76c.592 0 .888.252.888.756 0 .512-.296.768-.888.768h-1.944v6.072c0 .28-.084.504-.252.672-.168.168-.396.252-.684.252ZM69.79 45.772c.153.152.369.228.649.228h4.248c.592 0 .888-.24.888-.72 0-.488-.296-.732-.888-.732h-3.3v-2.124h3.06c.592 0 .888-.24.888-.72 0-.488-.296-.732-.888-.732h-3.06v-1.98h3.3c.592 0 .888-.244.888-.732 0-.48-.296-.72-.888-.72h-4.248c-.28 0-.496.076-.648.228-.152.152-.228.368-.228.648v6.708c0 .28.076.496.228.648Z"
          fill="currentColor"
        ></path>
        <path
          fill-rule="evenodd"
          clip-rule="evenodd"
          d="M77.552 46c-.28 0-.496-.076-.648-.228-.152-.152-.228-.368-.228-.648v-6.708c0-.28.076-.496.228-.648.152-.152.368-.228.648-.228h2.412c.92 0 1.712.168 2.376.504.664.336 1.172.82 1.524 1.452.352.632.528 1.388.528 2.268 0 .88-.176 1.64-.528 2.28a3.448 3.448 0 0 1-1.512 1.452c-.664.336-1.46.504-2.388.504h-2.412Zm2.28-1.512c1.8 0 2.7-.908 2.7-2.724 0-1.808-.9-2.712-2.7-2.712h-1.284v5.436h1.284Z"
          fill="currentColor"
        ></path>
        <path
          d="M65.867 55.524c-.128-.128-.304-.192-.528-.192h-2.052c-.232 0-.412.056-.54.168-.128.112-.192.272-.192.48 0 .208.064.368.192.48.128.112.308.168.54.168h1.104v1.86c-.456.12-.916.18-1.38.18-.856 0-1.496-.24-1.92-.72-.424-.48-.636-1.208-.636-2.184 0-1.896.816-2.844 2.448-2.844.336 0 .644.044.924.132.28.088.588.236.924.444.12.072.22.124.3.156a.837.837 0 0 0 .288.048c.16 0 .296-.072.408-.216a.845.845 0 0 0 .18-.54.801.801 0 0 0-.072-.36.903.903 0 0 0-.252-.288c-.728-.576-1.648-.864-2.76-.864-.864 0-1.62.176-2.268.528a3.644 3.644 0 0 0-1.5 1.512c-.344.648-.516 1.412-.516 2.292 0 .896.176 1.672.528 2.328a3.644 3.644 0 0 0 1.512 1.5c.656.344 1.432.516 2.328.516.36 0 .74-.028 1.14-.084a6.875 6.875 0 0 0 1.08-.228c.256-.072.448-.16.576-.264a.793.793 0 0 0 .264-.42c.056-.176.084-.424.084-.744v-2.34c0-.216-.068-.384-.204-.504Z"
          fill="currentColor"
        ></path>
        <path
          fill-rule="evenodd"
          clip-rule="evenodd"
          d="M57.906 58.86a.964.964 0 0 1 .096.384.738.738 0 0 1-.276.576.908.908 0 0 1-.612.228.839.839 0 0 1-.432-.12.833.833 0 0 1-.312-.384l-.636-1.416h-4.068l-.636 1.416a.833.833 0 0 1-.312.384.798.798 0 0 1-.432.12.954.954 0 0 1-.624-.228.738.738 0 0 1-.276-.576c0-.112.032-.24.096-.384l3.24-6.804a.907.907 0 0 1 .396-.432 1.112 1.112 0 0 1 1.14 0c.176.104.312.248.408.432l3.24 6.804Zm-5.604-2.148h2.796l-1.392-3.12-1.404 3.12ZM43.844 60.072c-.288 0-.516-.084-.684-.252-.168-.168-.252-.396-.252-.684v-6.72c0-.28.076-.496.228-.648.152-.152.368-.228.648-.228h3.012c.92 0 1.636.232 2.148.696.512.464.768 1.112.768 1.944 0 .832-.256 1.48-.768 1.944-.512.464-1.228.696-2.148.696H44.78v2.316c0 .288-.084.516-.252.684-.168.168-.396.252-.684.252Zm2.712-4.668c.936 0 1.404-.404 1.404-1.212 0-.816-.468-1.224-1.404-1.224H44.78v2.436h1.776Z"
          fill="currentColor"
        ></path>
        <path
          d="M68.534 60c-.28 0-.496-.076-.648-.228-.152-.152-.228-.368-.228-.648v-6.708c0-.28.076-.496.228-.648.152-.152.368-.228.648-.228h4.248c.592 0 .888.24.888.72 0 .488-.296.732-.888.732h-3.3v1.98h3.06c.592 0 .888.244.888.732 0 .48-.296.72-.888.72h-3.06v2.124h3.3c.592 0 .888.244.888.732 0 .48-.296.72-.888.72h-4.248Z"
          fill="currentColor"
        ></path>
      </svg>