      <svg
        width="116"
        height="72"
        fill="none"
        xmlns="http://www.w3.org/2000/svg"
      >
        <g
          clip-path="url(#landing_svg__a)"
          fill="currentColor"
        >
          <path
            d="M.436 2.184C0 3.04 0 4.16 0 6.4v13.2c0 2.24 0 3.36.436 4.216a4 4 0 0 0 1.748 1.748C3.04 26 4.16 26 6.4 26h103.2c2.24 0 3.36 0 4.216-.436a3.996 3.996 0 0 0 1.748-1.748C116 22.96 116 21.84 116 19.6V6.4c0-2.24 0-3.36-.436-4.216a3.996 3.996 0 0 0-1.748-1.748C112.96 0 111.84 0 109.6 0H6.4C4.16 0 3.04 0 2.184.436A4 4 0 0 0 .436 2.184Z"
          ></path>
          <path
            fill-rule="evenodd"
            clip-rule="evenodd"
            d="M25 39a7 7 0 1 1-14 0 7 7 0 0 1 14 0Zm-6.334-2.951.3.922a.7.7 0 0 0 .665.484h.97c.678 0 .96.868.411 1.266l-.784.57a.7.7 0 0 0-.255.783l.3.922c.21.645-.528 1.181-1.077.783l-.785-.57a.7.7 0 0 0-.822 0l-.785.57c-.549.398-1.287-.138-1.077-.783l.3-.922a.7.7 0 0 0-.255-.783l-.784-.57c-.549-.398-.267-1.266.411-1.266h.97a.7.7 0 0 0 .666-.484l.3-.922c.209-.645 1.121-.645 1.33 0ZM58 46a7 7 0 1 0 0-14 7 7 0 0 0 0 14Zm.965-9.029-.3-.922c-.209-.645-1.121-.645-1.33 0l-.3.922a.7.7 0 0 1-.666.484h-.97c-.678 0-.96.868-.411 1.266l.784.57a.7.7 0 0 1 .255.783l-.3.922c-.21.645.528 1.181 1.077.783l.785-.57a.7.7 0 0 1 .822 0l.785.57c.549.398 1.287-.138 1.077-.783l-.3-.922a.7.7 0 0 1 .255-.783l.784-.57c.549-.398.267-1.266-.411-1.266h-.97a.7.7 0 0 1-.666-.484ZM105 39a7 7 0 1 1-14 0 7 7 0 0 1 14 0Zm-6.334-2.951.3.922a.7.7 0 0 0 .665.484h.97c.678 0 .96.868.411 1.266l-.784.57a.7.7 0 0 0-.254.783l.299.922c.21.645-.528 1.181-1.077.783l-.784-.57a.7.7 0 0 0-.824 0l-.784.57c-.549.398-1.287-.138-1.077-.783l.3-.922a.7.7 0 0 0-.255-.783l-.784-.57c-.549-.398-.267-1.266.411-1.266h.97a.7.7 0 0 0 .666-.484l.3-.922c.209-.645 1.121-.645 1.33 0Z"
          ></path>
          <path
            d="M10 49a1 1 0 0 1 1-1h14a1 1 0 1 1 0 2H11a1 1 0 0 1-1-1ZM51 48a1 1 0 1 0 0 2h14a1 1 0 1 0 0-2H51ZM90 49a1 1 0 0 1 1-1h14a1 1 0 0 1 0 2H91a1 1 0 0 1-1-1ZM.436 58.184C0 59.04 0 60.16 0 62.4v3.2c0 2.24 0 3.36.436 4.216a4 4 0 0 0 1.748 1.748C3.04 72 4.16 72 6.4 72h27.2c2.24 0 3.36 0 4.216-.436a4 4 0 0 0 1.748-1.748C40 68.96 40 67.84 40 65.6v-3.2c0-2.24 0-3.36-.436-4.216a4 4 0 0 0-1.748-1.748C36.96 56 35.84 56 33.6 56H6.4c-2.24 0-3.36 0-4.216.436a4 4 0 0 0-1.748 1.748ZM44 58a1 1 0 0 1 1-1h46a1 1 0 1 1 0 2H45a1 1 0 0 1-1-1ZM45 61a1 1 0 1 0 0 2h70a1 1 0 0 0 0-2H45ZM44 66a1 1 0 0 1 1-1h70a1 1 0 0 1 0 2H45a1 1 0 0 1-1-1ZM45 69a1 1 0 1 0 0 2h30a1 1 0 1 0 0-2H45Z"
          ></path>
        </g>
        <defs>
          <clipPath id="landing_svg__a">
            <path
              fill="#fff"
              d="M0 0h116v72H0z"
            ></path>
          </clipPath>
        </defs>
      </svg>