      <svg
        width="116"
        height="72"
        fill="none"
        xmlns="http://www.w3.org/2000/svg"
      >
        <g
          clip-path="url(#photo_gallery_svg__a)"
          fill="currentColor"
        >
          <path
            d="M0 6.4c0-2.24 0-3.36.436-4.216A4 4 0 0 1 2.184.436C3.04 0 4.16 0 6.4 0h23.2c2.24 0 3.36 0 4.216.436a4 4 0 0 1 1.748 1.748C36 3.04 36 4.16 36 6.4v8.2c0 2.24 0 3.36-.436 4.216a4 4 0 0 1-1.748 1.748C32.96 21 31.84 21 29.6 21H6.4c-2.24 0-3.36 0-4.216-.436a4 4 0 0 1-1.748-1.748C0 17.96 0 16.84 0 14.6V6.4ZM40 6.4c0-2.24 0-3.36.436-4.216A4 4 0 0 1 42.184.436C43.04 0 44.16 0 46.4 0h23.2c2.24 0 3.36 0 4.216.436a4 4 0 0 1 1.748 1.748C76 3.04 76 4.16 76 6.4v8.2c0 2.24 0 3.36-.436 4.216a4 4 0 0 1-1.748 1.748C72.96 21 71.84 21 69.6 21H46.4c-2.24 0-3.36 0-4.216-.436a4 4 0 0 1-1.748-1.748C40 17.96 40 16.84 40 14.6V6.4ZM80.436 2.184C80 3.04 80 4.16 80 6.4v8.2c0 2.24 0 3.36.436 4.216a4 4 0 0 0 1.748 1.748C83.04 21 84.16 21 86.4 21h23.2c2.24 0 3.36 0 4.216-.436a3.996 3.996 0 0 0 1.748-1.748C116 17.96 116 16.84 116 14.6V6.4c0-2.24 0-3.36-.436-4.216a3.996 3.996 0 0 0-1.748-1.748C112.96 0 111.84 0 109.6 0H86.4c-2.24 0-3.36 0-4.216.436a4 4 0 0 0-1.748 1.748ZM0 31.4c0-2.24 0-3.36.436-4.216a4 4 0 0 1 1.748-1.748C3.04 25 4.16 25 6.4 25h23.2c2.24 0 3.36 0 4.216.436a4 4 0 0 1 1.748 1.748C36 28.04 36 29.16 36 31.4v8.2c0 2.24 0 3.36-.436 4.216a4 4 0 0 1-1.748 1.748C32.96 46 31.84 46 29.6 46H6.4c-2.24 0-3.36 0-4.216-.436a4 4 0 0 1-1.748-1.748C0 42.96 0 41.84 0 39.6v-8.2ZM40.436 27.184C40 28.04 40 29.16 40 31.4v8.2c0 2.24 0 3.36.436 4.216a4 4 0 0 0 1.748 1.748C43.04 46 44.16 46 46.4 46h23.2c2.24 0 3.36 0 4.216-.436a4 4 0 0 0 1.748-1.748C76 42.96 76 41.84 76 39.6v-8.2c0-2.24 0-3.36-.436-4.216a4 4 0 0 0-1.748-1.748C72.96 25 71.84 25 69.6 25H46.4c-2.24 0-3.36 0-4.216.436a4 4 0 0 0-1.748 1.748ZM80 31.4c0-2.24 0-3.36.436-4.216a4 4 0 0 1 1.748-1.748C83.04 25 84.16 25 86.4 25h23.2c2.24 0 3.36 0 4.216.436a3.996 3.996 0 0 1 1.748 1.748c.436.856.436 1.976.436 4.216v8.2c0 2.24 0 3.36-.436 4.216a3.996 3.996 0 0 1-1.748 1.748C112.96 46 111.84 46 109.6 46H86.4c-2.24 0-3.36 0-4.216-.436a4 4 0 0 1-1.748-1.748C80 42.96 80 41.84 80 39.6v-8.2ZM.436 52.184C0 53.04 0 54.16 0 56.4v9.2c0 2.24 0 3.36.436 4.216a4 4 0 0 0 1.748 1.748C3.04 72 4.16 72 6.4 72h23.2c2.24 0 3.36 0 4.216-.436a4 4 0 0 0 1.748-1.748C36 68.96 36 67.84 36 65.6v-9.2c0-2.24 0-3.36-.436-4.216a4 4 0 0 0-1.748-1.748C32.96 50 31.84 50 29.6 50H6.4c-2.24 0-3.36 0-4.216.436a4 4 0 0 0-1.748 1.748ZM40 56.4c0-2.24 0-3.36.436-4.216a4 4 0 0 1 1.748-1.748C43.04 50 44.16 50 46.4 50h23.2c2.24 0 3.36 0 4.216.436a4 4 0 0 1 1.748 1.748C76 53.04 76 54.16 76 56.4v9.2c0 2.24 0 3.36-.436 4.216a4 4 0 0 1-1.748 1.748C72.96 72 71.84 72 69.6 72H46.4c-2.24 0-3.36 0-4.216-.436a4 4 0 0 1-1.748-1.748C40 68.96 40 67.84 40 65.6v-9.2ZM80.436 52.184C80 53.04 80 54.16 80 56.4v9.2c0 2.24 0 3.36.436 4.216a4 4 0 0 0 1.748 1.748C83.04 72 84.16 72 86.4 72h23.2c2.24 0 3.36 0 4.216-.436a3.996 3.996 0 0 0 1.748-1.748C116 68.96 116 67.84 116 65.6v-9.2c0-2.24 0-3.36-.436-4.216a3.996 3.996 0 0 0-1.748-1.748C112.96 50 111.84 50 109.6 50H86.4c-2.24 0-3.36 0-4.216.436a4 4 0 0 0-1.748 1.748Z"
          ></path>
        </g>
        <defs>
          <clipPath id="photo_gallery_svg__a">
            <path
              fill="#fff"
              d="M0 0h116v72H0z"
            ></path>
          </clipPath>
        </defs>
      </svg>