      <svg
        width="116"
        height="72"
        fill="none"
        xmlns="http://www.w3.org/2000/svg"
      >
        <path
          d="M112.323 16.166c.502.729.198 1.717-.603 2.094l-14.618 6.895a1.5 1.5 0 0 1-2.14-1.357V7.535c0-.885.763-1.582 1.636-1.436 6.489 1.082 12.1 4.814 15.725 10.067Z"
          fill="currentColor"
        ></path>
        <path
          d="M112.553 22.678c-.392-1.032-1.601-1.438-2.592-.95l-13.63 6.71c-1.982.976-3.592-.021-3.594-2.23l-.005-15.21c0-1.105-.899-2.008-1.998-1.905-10.768 1.007-19.195 10.069-19.195 21.1 0 11.704 9.488 21.192 21.192 21.192s21.192-9.488 21.192-21.192a21.16 21.16 0 0 0-1.37-7.515ZM1 66a1 1 0 1 0 0 2h30a1 1 0 1 0 0-2H1ZM0 71a1 1 0 0 1 1-1h22a1 1 0 1 1 0 2H1a1 1 0 0 1-1-1ZM43 66a1 1 0 1 0 0 2h30a1 1 0 1 0 0-2H43ZM42 71a1 1 0 0 1 1-1h22a1 1 0 1 1 0 2H43a1 1 0 0 1-1-1ZM85 66a1 1 0 1 0 0 2h30a1 1 0 0 0 0-2H85ZM84 71a1 1 0 0 1 1-1h22a1 1 0 0 1 0 2H85a1 1 0 0 1-1-1ZM33.36 32.964a.444.444 0 0 0 .224-.21l2.771-5.048a.445.445 0 0 0-.046-.551.43.43 0 0 0-.224-.138.35.35 0 0 0-.255.016.484.484 0 0 0-.224.227l-2.772 5.04a.468.468 0 0 0-.069.307.524.524 0 0 0 .108.252.453.453 0 0 0 .224.13.403.403 0 0 0 .263-.025Z"
          fill="currentColor"
        ></path>
        <path
          fill-rule="evenodd"
          clip-rule="evenodd"
          d="M31.568 30.08c.247.313.595.47 1.043.47.298 0 .553-.07.764-.211.211-.146.37-.349.479-.608.113-.265.17-.575.17-.932 0-.529-.127-.95-.379-1.264-.247-.318-.592-.478-1.034-.478-.294 0-.549.07-.765.211-.21.14-.373.34-.486.6-.108.259-.162.57-.162.931 0 .535.123.962.37 1.28Zm1.297-.406a.351.351 0 0 1-.254.098c-.155 0-.273-.076-.356-.227-.082-.152-.123-.4-.123-.746 0-.232.018-.415.054-.55a.608.608 0 0 1 .162-.308.379.379 0 0 1 .263-.098c.149 0 .265.076.347.227.088.146.131.39.131.73 0 .226-.02.413-.061.558a.662.662 0 0 1-.163.316ZM35.545 32.47c.247.318.594.478 1.042.478.299 0 .553-.07.764-.21.212-.147.371-.352.48-.617.112-.264.169-.575.169-.932 0-.529-.126-.95-.378-1.263-.247-.314-.592-.47-1.035-.47-.293 0-.546.07-.757.21-.21.14-.373.34-.486.6-.113.26-.17.567-.17.924 0 .534.124.961.37 1.28Zm1.297-.405a.351.351 0 0 1-.255.097c-.154 0-.273-.073-.355-.219-.082-.151-.124-.402-.124-.754 0-.226.018-.41.054-.55a.696.696 0 0 1 .163-.308.379.379 0 0 1 .262-.098c.15 0 .265.076.347.227.088.146.132.39.132.73 0 .226-.02.413-.062.559a.614.614 0 0 1-.162.316ZM24.177 32.948c-.463 0-.857-.114-1.181-.34-.324-.227-.571-.554-.741-.98-.17-.428-.255-.944-.255-1.549 0-.48.054-.907.162-1.28a2.83 2.83 0 0 1 .479-.948c.206-.259.458-.456.757-.591a2.481 2.481 0 0 1 1.019-.203c.221 0 .445.033.671.098.227.064.438.162.634.291a.414.414 0 0 1 .208.235.546.546 0 0 1 .039.3.592.592 0 0 1-.116.275.459.459 0 0 1-.24.154.495.495 0 0 1-.324-.056 1.838 1.838 0 0 0-.463-.195 1.67 1.67 0 0 0-.425-.056c-.273 0-.504.064-.695.194-.19.13-.334.324-.432.583-.093.26-.139.581-.139.965v.143c.04-.1.09-.19.147-.273.128-.184.29-.324.486-.421.196-.098.412-.146.649-.146.309 0 .581.08.818.243.242.157.433.375.572.656.139.276.208.592.208.948 0 .378-.077.716-.232 1.013-.154.291-.37.521-.648.688a1.793 1.793 0 0 1-.958.252Zm-.061-.98c.16 0 .298-.038.417-.114a.699.699 0 0 0 .277-.324c.067-.14.1-.303.1-.486 0-.184-.033-.343-.1-.478a.699.699 0 0 0-.277-.324.72.72 0 0 0-.417-.122.756.756 0 0 0-.703.446c-.067.135-.1.294-.1.478 0 .183.033.345.1.486.067.14.16.248.278.324a.797.797 0 0 0 .425.113ZM28.599 32.948c-.433 0-.803-.065-1.112-.195a1.56 1.56 0 0 1-.71-.559 1.576 1.576 0 0 1-.248-.891c0-.27.052-.51.155-.721a1.38 1.38 0 0 1 .727-.665 1.356 1.356 0 0 1-.45-.372 1.503 1.503 0 0 1-.293-.932c0-.324.078-.602.232-.834.16-.233.383-.411.672-.535a2.619 2.619 0 0 1 1.027-.187c.396 0 .738.063 1.026.187.289.124.513.302.672.535.16.232.24.51.24.834 0 .243-.047.465-.14.664a1.26 1.26 0 0 1-.604.64c.209.082.387.212.535.39.227.264.34.596.34.996 0 .346-.082.643-.247.891a1.56 1.56 0 0 1-.71.56c-.31.129-.68.194-1.112.194Zm0-.965c.319 0 .56-.064.725-.194.165-.13.247-.321.247-.575 0-.254-.082-.443-.247-.567-.164-.13-.406-.195-.725-.195-.32 0-.561.065-.726.195-.165.124-.247.313-.247.567 0 .254.082.446.247.575.165.13.406.194.726.194Zm0-2.495c.175 0 .324-.03.447-.09a.6.6 0 0 0 .286-.258.751.751 0 0 0 .1-.39c0-.226-.074-.404-.223-.534-.145-.13-.348-.194-.61-.194-.263 0-.466.064-.61.194-.145.13-.217.308-.217.535 0 .227.073.408.217.543.144.13.347.194.61.194Z"
          fill="currentColor"
        ></path>
        <path
          fill-rule="evenodd"
          clip-rule="evenodd"
          d="M30 52c12.15 0 22-9.85 22-22S42.15 8 30 8 8 17.85 8 30s9.85 22 22 22Zm0-8c7.732 0 14-6.268 14-14s-6.268-14-14-14-14 6.268-14 14 6.268 14 14 14Zm0-31c-9.389 0-17 7.611-17 17s7.611 17 17 17 17-7.611 17-17a1 1 0 1 1 2 0c0 10.493-8.507 19-19 19s-19-8.507-19-19 8.507-19 19-19a1 1 0 1 1 0 2Z"
          fill="currentColor"
        ></path>
      </svg>