      <svg
        width="116"
        height="72"
        fill="none"
        xmlns="http://www.w3.org/2000/svg"
      >
        <path
          d="M5 1a1 1 0 0 1 1-1h34a1 1 0 1 1 0 2H6a1 1 0 0 1-1-1ZM5.436 14.184C5 15.04 5 16.16 5 18.4v7.2c0 2.24 0 3.36.436 4.216a4 4 0 0 0 1.748 1.748C8.04 32 9.16 32 11.4 32h9.2c2.24 0 3.36 0 4.216-.436a4 4 0 0 0 1.748-1.748C27 28.96 27 27.84 27 25.6v-7.2c0-2.24 0-3.36-.436-4.216a4 4 0 0 0-1.748-1.748C23.96 12 22.84 12 20.6 12h-9.2c-2.24 0-3.36 0-4.216.436a4 4 0 0 0-1.748 1.748ZM7 36a1 1 0 1 0 0 2h18a1 1 0 1 0 0-2H7ZM33 18.4c0-2.24 0-3.36.436-4.216a4 4 0 0 1 1.748-1.748C36.04 12 37.16 12 39.4 12h9.2c2.24 0 3.36 0 4.216.436a4 4 0 0 1 1.748 1.748C55 15.04 55 16.16 55 18.4v7.2c0 2.24 0 3.36-.436 4.216a4 4 0 0 1-1.748 1.748C51.96 32 50.84 32 48.6 32h-9.2c-2.24 0-3.36 0-4.216-.436a4 4 0 0 1-1.748-1.748C33 28.96 33 27.84 33 25.6v-7.2ZM35 36a1 1 0 1 0 0 2h18a1 1 0 1 0 0-2H35ZM61 18.4c0-2.24 0-3.36.436-4.216a4 4 0 0 1 1.748-1.748C64.04 12 65.16 12 67.4 12h9.2c2.24 0 3.36 0 4.216.436a4 4 0 0 1 1.748 1.748C83 15.04 83 16.16 83 18.4v7.2c0 2.24 0 3.36-.436 4.216a4 4 0 0 1-1.748 1.748C79.96 32 78.84 32 76.6 32h-9.2c-2.24 0-3.36 0-4.216-.436a4 4 0 0 1-1.748-1.748C61 28.96 61 27.84 61 25.6v-7.2ZM63 36a1 1 0 1 0 0 2h18a1 1 0 1 0 0-2H63ZM89 18.4c0-2.24 0-3.36.436-4.216a4 4 0 0 1 1.748-1.748C92.04 12 93.16 12 95.4 12h9.2c2.24 0 3.36 0 4.216.436a3.996 3.996 0 0 1 1.748 1.748c.436.856.436 1.976.436 4.216v7.2c0 2.24 0 3.36-.436 4.216a3.996 3.996 0 0 1-1.748 1.748C107.96 32 106.84 32 104.6 32h-9.2c-2.24 0-3.36 0-4.216-.436a4 4 0 0 1-1.748-1.748C89 28.96 89 27.84 89 25.6v-7.2ZM91 36a1 1 0 1 0 0 2h18a1 1 0 0 0 0-2H91ZM5 50.4c0-2.24 0-3.36.436-4.216a4 4 0 0 1 1.748-1.748C8.04 44 9.16 44 11.4 44h9.2c2.24 0 3.36 0 4.216.436a4 4 0 0 1 1.748 1.748C27 47.04 27 48.16 27 50.4v7.2c0 2.24 0 3.36-.436 4.216a4 4 0 0 1-1.748 1.748C23.96 64 22.84 64 20.6 64h-9.2c-2.24 0-3.36 0-4.216-.436a4 4 0 0 1-1.748-1.748C5 60.96 5 59.84 5 57.6v-7.2ZM7 68a1 1 0 1 0 0 2h18a1 1 0 1 0 0-2H7ZM33 50.4c0-2.24 0-3.36.436-4.216a4 4 0 0 1 1.748-1.748C36.04 44 37.16 44 39.4 44h9.2c2.24 0 3.36 0 4.216.436a4 4 0 0 1 1.748 1.748C55 47.04 55 48.16 55 50.4v7.2c0 2.24 0 3.36-.436 4.216a4 4 0 0 1-1.748 1.748C51.96 64 50.84 64 48.6 64h-9.2c-2.24 0-3.36 0-4.216-.436a4 4 0 0 1-1.748-1.748C33 60.96 33 59.84 33 57.6v-7.2ZM35 68a1 1 0 1 0 0 2h18a1 1 0 1 0 0-2H35ZM61 50.4c0-2.24 0-3.36.436-4.216a4 4 0 0 1 1.748-1.748C64.04 44 65.16 44 67.4 44h9.2c2.24 0 3.36 0 4.216.436a4 4 0 0 1 1.748 1.748C83 47.04 83 48.16 83 50.4v7.2c0 2.24 0 3.36-.436 4.216a4 4 0 0 1-1.748 1.748C79.96 64 78.84 64 76.6 64h-9.2c-2.24 0-3.36 0-4.216-.436a4 4 0 0 1-1.748-1.748C61 60.96 61 59.84 61 57.6v-7.2ZM63 68a1 1 0 1 0 0 2h18a1 1 0 1 0 0-2H63ZM89 50.4c0-2.24 0-3.36.436-4.216a4 4 0 0 1 1.748-1.748C92.04 44 93.16 44 95.4 44h9.2c2.24 0 3.36 0 4.216.436a3.996 3.996 0 0 1 1.748 1.748c.436.856.436 1.976.436 4.216v7.2c0 2.24 0 3.36-.436 4.216a3.996 3.996 0 0 1-1.748 1.748C107.96 64 106.84 64 104.6 64h-9.2c-2.24 0-3.36 0-4.216-.436a4 4 0 0 1-1.748-1.748C89 60.96 89 59.84 89 57.6v-7.2ZM91 68a1 1 0 1 0 0 2h18a1 1 0 0 0 0-2H91ZM6 4a1 1 0 0 0 0 2h20a1 1 0 1 0 0-2H6Z"
          fill="currentColor"
        ></path>
      </svg>