      <svg
        width="116"
        height="72"
        fill="none"
        xmlns="http://www.w3.org/2000/svg"
      >
        <g
          clip-path="url(#pricing_svg__a)"
          fill="currentColor"
        >
          <path
            d="M50 1a1 1 0 0 1 1-1h14a1 1 0 1 1 0 2H51a1 1 0 0 1-1-1ZM58.666 30.049l.3.922a.7.7 0 0 0 .665.484h.97c.678 0 .96.868.411 1.266l-.784.57a.7.7 0 0 0-.255.783l.3.922c.21.645-.528 1.181-1.077.783l-.785-.57a.7.7 0 0 0-.822 0l-.785.57c-.549.398-1.287-.138-1.077-.783l.3-.922a.7.7 0 0 0-.255-.783l-.784-.57c-.549-.398-.267-1.266.411-1.266h.97a.7.7 0 0 0 .666-.484l.3-.922c.209-.645 1.121-.645 1.33 0Z"
          ></path>
          <path
            fill-rule="evenodd"
            clip-rule="evenodd"
            d="M40 16.4c0-2.24 0-3.36.436-4.216a4 4 0 0 1 1.748-1.748C43.04 10 44.16 10 46.4 10h23.2c2.24 0 3.36 0 4.216.436a4 4 0 0 1 1.748 1.748C76 13.04 76 14.16 76 16.4v49.2c0 2.24 0 3.36-.436 4.216a4 4 0 0 1-1.748 1.748C72.96 72 71.84 72 69.6 72H46.4c-2.24 0-3.36 0-4.216-.436a4 4 0 0 1-1.748-1.748C40 68.96 40 67.84 40 65.6V16.4ZM50 21a1 1 0 0 1 1-1h14a1 1 0 1 1 0 2H51a1 1 0 0 1-1-1Zm15 12a7 7 0 1 1-14 0 7 7 0 0 1 14 0ZM51 44a2 2 0 0 0-2 2v4a2 2 0 0 0 2 2h14a2 2 0 0 0 2-2v-4a2 2 0 0 0-2-2H51Zm-1 13a1 1 0 0 1 1-1h14a1 1 0 1 1 0 2H51a1 1 0 0 1-1-1Zm-2 3a1 1 0 1 0 0 2h20a1 1 0 1 0 0-2H48Z"
          ></path>
          <path
            d="m18.666 33.049.3.922a.7.7 0 0 0 .665.484h.97c.678 0 .96.868.411 1.266l-.784.57a.7.7 0 0 0-.255.783l.3.922c.21.645-.528 1.181-1.077.783l-.785-.57a.7.7 0 0 0-.822 0l-.785.57c-.549.398-1.287-.138-1.077-.783l.3-.922a.7.7 0 0 0-.255-.783l-.784-.57c-.549-.398-.267-1.266.411-1.266h.97a.7.7 0 0 0 .666-.484l.3-.922c.209-.645 1.121-.645 1.33 0Z"
          ></path>
          <path
            fill-rule="evenodd"
            clip-rule="evenodd"
            d="M.436 18.184C0 19.04 0 20.16 0 22.4v43.2c0 2.24 0 3.36.436 4.216a4 4 0 0 0 1.748 1.748C3.04 72 4.16 72 6.4 72h23.2c2.24 0 3.36 0 4.216-.436a4 4 0 0 0 1.748-1.748C36 68.96 36 67.84 36 65.6V22.4c0-2.24 0-3.36-.436-4.216a4 4 0 0 0-1.748-1.748C32.96 16 31.84 16 29.6 16H6.4c-2.24 0-3.36 0-4.216.436a4 4 0 0 0-1.748 1.748ZM25 36a7 7 0 1 1-14 0 7 7 0 0 1 14 0ZM10 25a1 1 0 0 1 1-1h14a1 1 0 1 1 0 2H11a1 1 0 0 1-1-1Zm1 23a2 2 0 0 0-2 2v4a2 2 0 0 0 2 2h14a2 2 0 0 0 2-2v-4a2 2 0 0 0-2-2H11Zm-1 13a1 1 0 0 1 1-1h14a1 1 0 1 1 0 2H11a1 1 0 0 1-1-1Zm-2 3a1 1 0 1 0 0 2h20a1 1 0 1 0 0-2H8Z"
          ></path>
          <path
            d="m98.965 33.971-.3-.922c-.209-.645-1.121-.645-1.33 0l-.3.922a.7.7 0 0 1-.666.484h-.97c-.678 0-.96.868-.411 1.266l.784.57a.7.7 0 0 1 .254.783l-.3.922c-.209.645.53 1.181 1.078.783l.784-.57a.7.7 0 0 1 .824 0l.784.57c.549.398 1.287-.138 1.077-.783l-.3-.922a.7.7 0 0 1 .255-.783l.784-.57c.549-.398.267-1.266-.411-1.266h-.97a.7.7 0 0 1-.666-.484Z"
          ></path>
          <path
            fill-rule="evenodd"
            clip-rule="evenodd"
            d="M80.436 18.184C80 19.04 80 20.16 80 22.4v43.2c0 2.24 0 3.36.436 4.216a4 4 0 0 0 1.748 1.748C83.04 72 84.16 72 86.4 72h23.2c2.24 0 3.36 0 4.216-.436a3.996 3.996 0 0 0 1.748-1.748C116 68.96 116 67.84 116 65.6V22.4c0-2.24 0-3.36-.436-4.216a3.996 3.996 0 0 0-1.748-1.748C112.96 16 111.84 16 109.6 16H86.4c-2.24 0-3.36 0-4.216.436a4 4 0 0 0-1.748 1.748ZM90 24a1 1 0 0 1 1-1h14a1 1 0 0 1 0 2H91a1 1 0 0 1-1-1Zm1 23a2 2 0 0 0-2 2v4a2 2 0 0 0 2 2h14a2 2 0 0 0 2-2v-4a2 2 0 0 0-2-2H91Zm-1 13a1 1 0 0 1 1-1h14a1 1 0 0 1 0 2H91a1 1 0 0 1-1-1Zm-2 3a1 1 0 1 0 0 2h20a1 1 0 0 0 0-2H88Zm10-20a7 7 0 1 0 0-14 7 7 0 0 0 0 14Z"
          ></path>
          <path d="M38 5a1 1 0 0 1 1-1h38a1 1 0 1 1 0 2H39a1 1 0 0 1-1-1Z"></path>
        </g>
        <defs>
          <clipPath id="pricing_svg__a">
            <path
              fill="#fff"
              d="M0 0h116v72H0z"
            ></path>
          </clipPath>
        </defs>
      </svg>