      <svg
        width="116"
        height="72"
        fill="none"
        xmlns="http://www.w3.org/2000/svg"
      >
        <g
          clip-path="url(#project_svg__a)"
          fill="currentColor"
        >
          <path
            d="M51 0a1 1 0 1 0 0 2h14a1 1 0 1 0 0-2H51ZM31 62a1 1 0 1 0 0 2h54a1 1 0 1 0 0-2H31ZM31 66a1 1 0 1 0 0 2h54a1 1 0 1 0 0-2H31ZM42 71a1 1 0 0 1 1-1h30a1 1 0 1 1 0 2H43a1 1 0 0 1-1-1ZM42 5a1 1 0 0 1 1-1h30a1 1 0 1 1 0 2H43a1 1 0 0 1-1-1ZM.436 12.184C0 13.04 0 14.16 0 16.4v35.2c0 2.24 0 3.36.436 4.216a4 4 0 0 0 1.748 1.748C3.04 58 4.16 58 6.4 58h103.2c2.24 0 3.36 0 4.216-.436a3.996 3.996 0 0 0 1.748-1.748C116 54.96 116 53.84 116 51.6V16.4c0-2.24 0-3.36-.436-4.216a3.996 3.996 0 0 0-1.748-1.748C112.96 10 111.84 10 109.6 10H6.4c-2.24 0-3.36 0-4.216.436a4 4 0 0 0-1.748 1.748Z"
          ></path>
        </g>
        <defs>
          <clipPath id="project_svg__a">
            <path
              fill="#fff"
              d="M0 0h116v72H0z"
            ></path>
          </clipPath>
        </defs>
      </svg>