      <svg
        width="116"
        height="72"
        fill="none"
        xmlns="http://www.w3.org/2000/svg"
      >
        <path
          d="M18 1a1 1 0 0 1 1-1h22a1 1 0 1 1 0 2H19a1 1 0 0 1-1-1ZM22 22a4 4 0 0 0-4 4v6a4 4 0 0 0 4 4h20a4 4 0 0 0 4-4v-6a4 4 0 0 0-4-4H22ZM53 24a1 1 0 1 0 0 2h22a1 1 0 1 0 0-2H53ZM52 29a1 1 0 0 1 1-1h44a1 1 0 1 1 0 2H53a1 1 0 0 1-1-1ZM53 32a1 1 0 1 0 0 2h44a1 1 0 1 0 0-2H53ZM18 44a4 4 0 0 1 4-4h20a4 4 0 0 1 4 4v6a4 4 0 0 1-4 4H22a4 4 0 0 1-4-4v-6ZM53 42a1 1 0 1 0 0 2h22a1 1 0 1 0 0-2H53ZM52 47a1 1 0 0 1 1-1h44a1 1 0 1 1 0 2H53a1 1 0 0 1-1-1ZM53 50a1 1 0 1 0 0 2h44a1 1 0 1 0 0-2H53ZM18 62a4 4 0 0 1 4-4h20a4 4 0 0 1 4 4v6a4 4 0 0 1-4 4H22a4 4 0 0 1-4-4v-6ZM53 60a1 1 0 1 0 0 2h22a1 1 0 1 0 0-2H53ZM52 65a1 1 0 0 1 1-1h44a1 1 0 1 1 0 2H53a1 1 0 0 1-1-1ZM53 68a1 1 0 1 0 0 2h44a1 1 0 1 0 0-2H53Z"
          fill="currentColor"
        ></path>
        <path
          fill-rule="evenodd"
          clip-rule="evenodd"
          d="M22 6a4 4 0 0 0-4 4v4a4 4 0 0 0 4 4h72a4 4 0 0 0 4-4v-4a4 4 0 0 0-4-4H22Zm2 5a1 1 0 1 0 0 2h38a1 1 0 1 0 0-2H24Zm69.712-.702a1 1 0 0 1-.01 1.414l-1.329 1.31a2 2 0 0 1-2.807 0l-1.268-1.25a1 1 0 0 1 1.404-1.425l1.268 1.25 1.328-1.31a1 1 0 0 1 1.414.011Z"
          fill="currentColor"
        ></path>
      </svg>