      <svg
        width="116"
        height="72"
        fill="none"
        xmlns="http://www.w3.org/2000/svg"
      >
        <g
          clip-path="url(#services_svg__a)"
          fill="currentColor"
        >
          <path
            fill-rule="evenodd"
            clip-rule="evenodd"
            d="M12 14a7 7 0 1 0 0-14 7 7 0 0 0 0 14Zm.965-9.029-.3-.922c-.209-.645-1.121-.645-1.33 0l-.3.922a.7.7 0 0 1-.666.484h-.97c-.678 0-.96.868-.411 1.266l.784.57a.7.7 0 0 1 .255.783l-.3.922c-.21.645.528 1.181 1.077.783l.785-.57a.7.7 0 0 1 .822 0l.785.57c.549.398 1.287-.138 1.077-.783l-.3-.922a.7.7 0 0 1 .255-.783l.784-.57c.549-.398.267-1.266-.411-1.266h-.97a.7.7 0 0 1-.666-.484Z"
          ></path>
          <path
            d="M5 44a1 1 0 1 0 0 2h14a1 1 0 1 0 0-2H5ZM2 48a1 1 0 1 0 0 2h20a1 1 0 1 0 0-2H2ZM50 45a1 1 0 0 1 1-1h14a1 1 0 1 1 0 2H51a1 1 0 0 1-1-1ZM48 48a1 1 0 1 0 0 2h20a1 1 0 1 0 0-2H48ZM96 45a1 1 0 0 1 1-1h14a1 1 0 0 1 0 2H97a1 1 0 0 1-1-1ZM94 48a1 1 0 1 0 0 2h20a1 1 0 0 0 0-2H94Z"
          ></path>
          <path
            fill-rule="evenodd"
            clip-rule="evenodd"
            d="M19 35a7 7 0 1 1-14 0 7 7 0 0 1 14 0Zm-6.334-2.951.3.922a.7.7 0 0 0 .665.484h.97c.678 0 .96.868.411 1.266l-.784.57a.7.7 0 0 0-.255.783l.3.922c.21.645-.528 1.181-1.077.783l-.785-.57a.7.7 0 0 0-.822 0l-.785.57c-.549.398-1.287-.138-1.077-.783l.3-.922a.7.7 0 0 0-.255-.783l-.784-.57c-.549-.398-.267-1.266.411-1.266h.97a.7.7 0 0 0 .666-.484l.3-.922c.209-.645 1.121-.645 1.33 0ZM58 14a7 7 0 1 0 0-14 7 7 0 0 0 0 14Zm.965-9.029-.3-.922c-.209-.645-1.121-.645-1.33 0l-.3.922a.7.7 0 0 1-.666.484h-.97c-.678 0-.96.868-.411 1.266l.784.57a.7.7 0 0 1 .255.783l-.3.922c-.21.645.528 1.181 1.077.783l.785-.57a.7.7 0 0 1 .822 0l.785.57c.549.398 1.287-.138 1.077-.783l-.3-.922a.7.7 0 0 1 .255-.783l.784-.57c.549-.398.267-1.266-.411-1.266h-.97a.7.7 0 0 1-.666-.484ZM65 35a7 7 0 1 1-14 0 7 7 0 0 1 14 0Zm-6.334-2.951.3.922a.7.7 0 0 0 .665.484h.97c.678 0 .96.868.411 1.266l-.784.57a.7.7 0 0 0-.255.783l.3.922c.21.645-.528 1.181-1.077.783l-.785-.57a.7.7 0 0 0-.822 0l-.785.57c-.549.398-1.287-.138-1.077-.783l.3-.922a.7.7 0 0 0-.255-.783l-.784-.57c-.549-.398-.267-1.266.411-1.266h.97a.7.7 0 0 0 .666-.484l.3-.922c.209-.645 1.121-.645 1.33 0ZM104 14a7 7 0 1 0 0-14 7 7 0 0 0 0 14Zm.965-9.029-.299-.922c-.21-.645-1.122-.645-1.332 0l-.299.922a.7.7 0 0 1-.666.484h-.97c-.678 0-.96.868-.411 1.266l.784.57a.698.698 0 0 1 .254.783l-.299.922c-.21.645.528 1.181 1.077.783l.785-.57a.699.699 0 0 1 .822 0l.785.57c.549.398 1.287-.138 1.077-.783l-.299-.922a.698.698 0 0 1 .254-.783l.784-.57c.549-.398.267-1.266-.411-1.266h-.97a.7.7 0 0 1-.666-.484ZM111 35a7 7 0 1 1-14 0 7 7 0 0 1 14 0Zm-6.334-2.951.299.922a.7.7 0 0 0 .666.484h.97c.678 0 .96.868.411 1.266l-.784.57a.699.699 0 0 0-.254.783l.299.922c.21.645-.528 1.181-1.077.783l-.785-.57a.698.698 0 0 0-.822 0l-.785.57c-.549.398-1.287-.138-1.077-.783l.299-.922a.699.699 0 0 0-.254-.783l-.784-.57c-.549-.398-.267-1.266.411-1.266h.97a.7.7 0 0 0 .666-.484l.299-.922c.21-.645 1.122-.645 1.332 0Z"
          ></path>
          <path
            d="M4 17a1 1 0 0 1 1-1h14a1 1 0 1 1 0 2H5a1 1 0 0 1-1-1ZM2 20a1 1 0 1 0 0 2h20a1 1 0 1 0 0-2H2ZM50 17a1 1 0 0 1 1-1h14a1 1 0 1 1 0 2H51a1 1 0 0 1-1-1ZM48 20a1 1 0 1 0 0 2h20a1 1 0 1 0 0-2H48ZM96 17a1 1 0 0 1 1-1h14a1 1 0 0 1 0 2H97a1 1 0 0 1-1-1ZM94 20a1 1 0 1 0 0 2h20a1 1 0 0 0 0-2H94ZM0 59a1 1 0 0 1 1-1h46a1 1 0 1 1 0 2H1a1 1 0 0 1-1-1ZM1 62a1 1 0 1 0 0 2h114a1 1 0 0 0 0-2H1ZM0 67a1 1 0 0 1 1-1h114a1 1 0 0 1 0 2H1a1 1 0 0 1-1-1ZM1 70a1 1 0 1 0 0 2h78a1 1 0 1 0 0-2H1Z"
          ></path>
        </g>
        <defs>
          <clipPath id="services_svg__a">
            <path
              fill="#fff"
              d="M0 0h116v72H0z"
            ></path>
          </clipPath>
        </defs>
      </svg>