      <svg
        width="116"
        height="72"
        fill="none"
        xmlns="http://www.w3.org/2000/svg"
      >
        <g
          clip-path="url(#lk_svg__a)"
          fill="currentColor"
        >
          <path
            d="M.436 2.184C0 3.04 0 4.16 0 6.4v7.2c0 2.24 0 3.36.436 4.216a4 4 0 0 0 1.748 1.748C3.04 20 4.16 20 6.4 20h7.65c-.033-.329-.05-.663-.05-1 0-5.523 4.477-10 10-10s10 4.477 10 10c0 .337-.017.671-.05 1h75.65c2.24 0 3.36 0 4.216-.436a3.996 3.996 0 0 0 1.748-1.748C116 16.96 116 15.84 116 13.6V6.4c0-2.24 0-3.36-.436-4.216a3.996 3.996 0 0 0-1.748-1.748C112.96 0 111.84 0 109.6 0H6.4C4.16 0 3.04 0 2.184.436A4 4 0 0 0 .436 2.184ZM19 32a1 1 0 1 0 0 2h22a1 1 0 1 0 0-2H19Z"
          ></path>
          <path
            fill-rule="evenodd"
            clip-rule="evenodd"
            d="M22 38a4 4 0 0 0-4 4v4a4 4 0 0 0 4 4h72a4 4 0 0 0 4-4v-4a4 4 0 0 0-4-4H22Zm2 5a1 1 0 1 0 0 2h38a1 1 0 1 0 0-2H24Zm69.712-.702a1 1 0 0 1-.01 1.414l-1.329 1.31a2 2 0 0 1-2.807 0l-1.268-1.25a1 1 0 0 1 1.404-1.425l1.268 1.25 1.328-1.31a1 1 0 0 1 1.414.011Z"
          ></path>
          <path d="M18 55a1 1 0 0 1 1-1h22a1 1 0 1 1 0 2H19a1 1 0 0 1-1-1Z"></path>
          <path
            fill-rule="evenodd"
            clip-rule="evenodd"
            d="M22 60a4 4 0 0 0-4 4v4a4 4 0 0 0 4 4h72a4 4 0 0 0 4-4v-4a4 4 0 0 0-4-4H22Zm2 5a1 1 0 1 0 0 2h38a1 1 0 1 0 0-2H24Zm69.712-.702a1 1 0 0 1-.01 1.414l-1.329 1.31a2 2 0 0 1-2.807 0l-1.268-1.25a1 1 0 0 1 1.404-1.425l1.268 1.25 1.328-1.31a1 1 0 0 1 1.414.011Z"
          ></path>
          <path d="M24 26a7 7 0 1 0 0-14 7 7 0 0 0 0 14Z"></path>
        </g>
        <defs>
          <clipPath id="lk_svg__a">
            <path
              fill="#fff"
              d="M0 0h116v72H0z"
            ></path>
          </clipPath>
        </defs>
      </svg>