      <svg
        width="116"
        height="72"
        fill="none"
        xmlns="http://www.w3.org/2000/svg"
      >
        <path
          fill-rule="evenodd"
          clip-rule="evenodd"
          d="M30.654 9.276C30 10.56 30 12.24 30 15.6v40.8c0 3.36 0 5.04.654 6.324a6 6 0 0 0 2.622 2.622C34.56 66 36.24 66 39.6 66h36.8c3.36 0 5.04 0 6.324-.654a6 6 0 0 0 2.622-2.622C86 61.44 86 59.76 86 56.4V15.6c0-3.36 0-5.04-.654-6.324a6 6 0 0 0-2.622-2.622C81.44 6 79.76 6 76.4 6H39.6c-3.36 0-5.04 0-6.324.654a6 6 0 0 0-2.622 2.622Zm41.053 11.017a1 1 0 0 1 0 1.414L56.414 37a2 2 0 0 1-2.828 0l-6.293-6.293a1 1 0 1 1 1.414-1.414L55 35.586l15.293-15.293a1 1 0 0 1 1.414 0ZM46 50a1 1 0 0 1 1-1h22a1 1 0 1 1 0 2H47a1 1 0 0 1-1-1Zm7 3a1 1 0 1 0 0 2h10a1 1 0 1 0 0-2H53Z"
          fill="currentColor"
        ></path>
      </svg>