      <svg
        width="116"
        height="72"
        fill="none"
        xmlns="http://www.w3.org/2000/svg"
      >
        <path
          d="M24 4a8 8 0 1 0 0 16 8 8 0 0 0 0-16ZM13 24a1 1 0 1 0 0 2h22a1 1 0 1 0 0-2H13ZM18 29a1 1 0 0 1 1-1h10a1 1 0 1 1 0 2H19a1 1 0 0 1-1-1ZM24 42a8 8 0 1 0 0 16 8 8 0 0 0 0-16ZM12 63a1 1 0 0 1 1-1h22a1 1 0 1 1 0 2H13a1 1 0 0 1-1-1ZM19 66a1 1 0 1 0 0 2h10a1 1 0 1 0 0-2H19ZM50 12a8 8 0 1 1 16 0 8 8 0 0 1-16 0ZM47 24a1 1 0 1 0 0 2h22a1 1 0 1 0 0-2H47ZM52 29a1 1 0 0 1 1-1h10a1 1 0 1 1 0 2H53a1 1 0 0 1-1-1ZM58 42a8 8 0 1 0 0 16 8 8 0 0 0 0-16ZM46 63a1 1 0 0 1 1-1h22a1 1 0 1 1 0 2H47a1 1 0 0 1-1-1ZM53 66a1 1 0 1 0 0 2h10a1 1 0 1 0 0-2H53ZM84 12a8 8 0 1 1 16 0 8 8 0 0 1-16 0ZM81 24a1 1 0 1 0 0 2h22a1 1 0 0 0 0-2H81ZM86 29a1 1 0 0 1 1-1h10a1 1 0 1 1 0 2H87a1 1 0 0 1-1-1ZM92 42a8 8 0 1 0 0 16 8 8 0 0 0 0-16ZM80 63a1 1 0 0 1 1-1h22a1 1 0 0 1 0 2H81a1 1 0 0 1-1-1ZM87 66a1 1 0 1 0 0 2h10a1 1 0 1 0 0-2H87Z"
          fill="currentColor"
        ></path>
      </svg>