      <svg
        width="116"
        height="72"
        fill="none"
        xmlns="http://www.w3.org/2000/svg"
      >
        <path
          fill-rule="evenodd"
          clip-rule="evenodd"
          d="M25 15.938A8.001 8.001 0 0 0 24 0a8 8 0 0 0-1 15.938v4.233a3.001 3.001 0 0 0 0 5.658v4.342a3.001 3.001 0 0 0 0 5.658v12.342a3.001 3.001 0 0 0 0 5.658v4.342a3.001 3.001 0 1 0 2 0v-4.342a3.001 3.001 0 0 0 0-5.658V35.829a3.001 3.001 0 0 0 0-5.658v-4.342a3.001 3.001 0 0 0 0-5.658v-4.233Zm.147-10.497-.264-.987c-.241-.905-1.525-.905-1.766 0l-.264.987c-.111.418-.5.7-.932.678l-1.02-.055c-.936-.05-1.332 1.171-.547 1.68l.858.556a.914.914 0 0 1 .356 1.096l-.367.954c-.337.874.702 1.628 1.43 1.038l.793-.644a.914.914 0 0 1 1.152 0l.794.644c.727.59 1.766-.164 1.43-1.038l-.368-.954a.914.914 0 0 1 .356-1.096l.858-.556c.785-.509.389-1.73-.546-1.68l-1.02.055a.914.914 0 0 1-.933-.678Z"
          fill="currentColor"
        ></path>
        <path
          d="M38 5a1 1 0 1 0 0 2h46a1 1 0 1 0 0-2H38ZM38 9a1 1 0 1 0 0 2h22a1 1 0 1 0 0-2H38ZM39 20a1 1 0 1 0 0 2h22a1 1 0 1 0 0-2H39ZM38 31a1 1 0 0 1 1-1h22a1 1 0 1 1 0 2H39a1 1 0 0 1-1-1ZM38 35a1 1 0 0 1 1-1h60a1 1 0 1 1 0 2H39a1 1 0 0 1-1-1ZM39 38a1 1 0 1 0 0 2h60a1 1 0 1 0 0-2H39ZM38 43a1 1 0 0 1 1-1h60a1 1 0 1 1 0 2H39a1 1 0 0 1-1-1ZM39 58a1 1 0 1 0 0 2h22a1 1 0 1 0 0-2H39ZM38 63a1 1 0 0 1 1-1h60a1 1 0 1 1 0 2H39a1 1 0 0 1-1-1ZM39 66a1 1 0 1 0 0 2h60a1 1 0 1 0 0-2H39ZM38 71a1 1 0 0 1 1-1h60a1 1 0 1 1 0 2H39a1 1 0 0 1-1-1ZM39 48a1 1 0 1 0 0 2h22a1 1 0 1 0 0-2H39ZM38 53a1 1 0 0 1 1-1h46a1 1 0 1 1 0 2H39a1 1 0 0 1-1-1ZM38 25a1 1 0 0 1 1-1h46a1 1 0 1 1 0 2H39a1 1 0 0 1-1-1Z"
          fill="currentColor"
        ></path>
      </svg>