      <svg
        width="116"
        height="72"
        fill="none"
        xmlns="http://www.w3.org/2000/svg"
      >
        <path
          fill-rule="evenodd"
          clip-rule="evenodd"
          d="M30.654 9.276C30 10.56 30 12.24 30 15.6v40.8c0 3.36 0 5.04.654 6.324a6 6 0 0 0 2.622 2.622C34.56 66 36.24 66 39.6 66h36.8c3.36 0 5.04 0 6.324-.654a6 6 0 0 0 2.622-2.622C86 61.44 86 59.76 86 56.4V15.6c0-3.36 0-5.04-.654-6.324a6 6 0 0 0-2.622-2.622C81.44 6 79.76 6 76.4 6H39.6c-3.36 0-5.04 0-6.324.654a6 6 0 0 0-2.622 2.622Zm26.639 7.017-6.364 6.364a1 1 0 0 0 1.414 1.414L57 19.414V33a1 1 0 1 0 2 0V19.414l4.657 4.657a1 1 0 0 0 1.414-1.414l-6.364-6.364a1 1 0 0 0-1.414 0ZM46 39v-4a1 1 0 1 1 2 0v3h20v-3a1 1 0 1 1 2 0v4a1 1 0 0 1-1 1H47a1 1 0 0 1-1-1Zm1.027 9.343a1.028 1.028 0 0 0 0 2.057H69.61a1.028 1.028 0 0 0 0-2.057H47.027Zm6.159 4.114a1.028 1.028 0 0 0 0 2.057h10.266a1.028 1.028 0 0 0 0-2.057H53.186Z"
          fill="currentColor"
        ></path>
      </svg>