      <svg
        width="116"
        height="72"
        fill="none"
        xmlns="http://www.w3.org/2000/svg"
      >
        <g
          clip-path="url(#video_player_svg__a)"
          fill="currentColor"
        >
          <path
            d="M1 0a1 1 0 1 0 0 2h30a1 1 0 1 0 0-2H1ZM1 4a1 1 0 0 0 0 2h46a1 1 0 1 0 0-2H1ZM0 9a1 1 0 0 1 1-1h22a1 1 0 1 1 0 2H1a1 1 0 0 1-1-1ZM62.5 41.866l-6 3.464a1 1 0 0 1-1.5-.866v-6.928a1 1 0 0 1 1.5-.866l6 3.464a1 1 0 0 1 0 1.732Z"
          ></path>
          <path
            fill-rule="evenodd"
            clip-rule="evenodd"
            d="M0 20.4c0-2.24 0-3.36.436-4.216a4 4 0 0 1 1.748-1.748C3.04 14 4.16 14 6.4 14h103.2c2.24 0 3.36 0 4.216.436a3.996 3.996 0 0 1 1.748 1.748c.436.856.436 1.976.436 4.216v45.2c0 2.24 0 3.36-.436 4.216a3.996 3.996 0 0 1-1.748 1.748C112.96 72 111.84 72 109.6 72H6.4c-2.24 0-3.36 0-4.216-.436a4 4 0 0 1-1.748-1.748C0 68.96 0 67.84 0 65.6V20.4ZM70 41c0 6.627-5.373 12-12 12s-12-5.373-12-12 5.373-12 12-12 12 5.373 12 12ZM10 65a1 1 0 1 0 0 2h62a1 1 0 1 0 0-2H10Z"
          ></path>
        </g>
        <defs>
          <clipPath id="video_player_svg__a">
            <path
              fill="#fff"
              d="M0 0h116v72H0z"
            ></path>
          </clipPath>
        </defs>
      </svg>