      <svg
        width="116"
        height="72"
        fill="none"
        xmlns="http://www.w3.org/2000/svg"
      >
        <g
          clip-path="url(#video_svg__a)"
          fill="currentColor"
        >
          <path d="m56.5 31.33 6-3.464a1 1 0 0 0 0-1.732l-6-3.464a1 1 0 0 0-1.5.866v6.928a1 1 0 0 0 1.5.866Z"></path>
          <path
            fill-rule="evenodd"
            clip-rule="evenodd"
            d="M0 6.4c0-2.24 0-3.36.436-4.216A4 4 0 0 1 2.184.436C3.04 0 4.16 0 6.4 0h103.2c2.24 0 3.36 0 4.216.436a3.996 3.996 0 0 1 1.748 1.748C116 3.04 116 4.16 116 6.4v41.2c0 2.24 0 3.36-.436 4.216a3.996 3.996 0 0 1-1.748 1.748C112.96 54 111.84 54 109.6 54H6.4c-2.24 0-3.36 0-4.216-.436a4 4 0 0 1-1.748-1.748C0 50.96 0 49.84 0 47.6V6.4ZM58 39c6.627 0 12-5.373 12-12s-5.373-12-12-12-12 5.373-12 12 5.373 12 12 12Z"
          ></path>
          <path
            d="M0 59a1 1 0 0 1 1-1h30a1 1 0 1 1 0 2H1a1 1 0 0 1-1-1ZM0 63a1 1 0 0 1 1-1h46a1 1 0 1 1 0 2H1a1 1 0 0 1-1-1ZM1 66a1 1 0 1 0 0 2h46a1 1 0 1 0 0-2H1ZM0 71a1 1 0 0 1 1-1h22a1 1 0 1 1 0 2H1a1 1 0 0 1-1-1Z"
          ></path>
        </g>
        <defs>
          <clipPath id="video_svg__a">
            <path
              fill="#fff"
              d="M0 0h116v72H0z"
            ></path>
          </clipPath>
        </defs>
      </svg>