      <svg
        width="116"
        height="72"
        fill="none"
        xmlns="http://www.w3.org/2000/svg"
      >
        <path
          d="M20.436 2.184C20 3.04 20 4.16 20 6.4v9.2c0 2.24 0 3.36.436 4.216a4 4 0 0 0 1.748 1.748C23.04 22 24.16 22 26.4 22h33.2c2.24 0 3.36 0 4.216-.436a4 4 0 0 0 1.748-1.748C66 18.96 66 17.84 66 15.6V6.4c0-2.24 0-3.36-.436-4.216A4 4 0 0 0 63.816.436C62.96 0 61.84 0 59.6 0H26.4c-2.24 0-3.36 0-4.216.436a4 4 0 0 0-1.748 1.748ZM13.56 9.56A.75.75 0 1 0 12.5 8.5l-3.293 3.293a.25.25 0 0 1-.353 0L7.56 10.5A.75.75 0 0 0 6.5 11.56l1.293 1.293a1.75 1.75 0 0 0 2.475 0l3.293-3.292ZM72 1a1 1 0 0 1 1-1h38a1 1 0 0 1 0 2H73a1 1 0 0 1-1-1ZM73 4a1 1 0 1 0 0 2h38a1 1 0 0 0 0-2H73ZM72 9a1 1 0 0 1 1-1h38a1 1 0 0 1 0 2H73a1 1 0 0 1-1-1ZM73 12a1 1 0 1 0 0 2h22a1 1 0 1 0 0-2H73ZM13.56 33.5a.75.75 0 0 1 0 1.06l-3.292 3.293a1.75 1.75 0 0 1-2.475 0L6.5 36.561A.75.75 0 1 1 7.56 35.5l1.294 1.293a.25.25 0 0 0 .353 0L12.5 33.5a.75.75 0 0 1 1.06 0ZM20.436 27.184C20 28.04 20 29.16 20 31.4v9.2c0 2.24 0 3.36.436 4.216a4 4 0 0 0 1.748 1.748C23.04 47 24.16 47 26.4 47h33.2c2.24 0 3.36 0 4.216-.436a4 4 0 0 0 1.748-1.748C66 43.96 66 42.84 66 40.6v-9.2c0-2.24 0-3.36-.436-4.216a4 4 0 0 0-1.748-1.748C62.96 25 61.84 25 59.6 25H26.4c-2.24 0-3.36 0-4.216.436a4 4 0 0 0-1.748 1.748ZM72 26a1 1 0 0 1 1-1h38a1 1 0 0 1 0 2H73a1 1 0 0 1-1-1ZM73 29a1 1 0 1 0 0 2h38a1 1 0 0 0 0-2H73ZM72 34a1 1 0 0 1 1-1h38a1 1 0 0 1 0 2H73a1 1 0 0 1-1-1ZM73 37a1 1 0 1 0 0 2h22a1 1 0 1 0 0-2H73ZM13.56 58.5a.75.75 0 0 1 0 1.06l-3.292 3.293a1.75 1.75 0 0 1-2.475 0L6.5 61.561A.75.75 0 1 1 7.56 60.5l1.294 1.293a.25.25 0 0 0 .353 0L12.5 58.5a.75.75 0 0 1 1.06 0ZM20.436 52.184C20 53.04 20 54.16 20 56.4v9.2c0 2.24 0 3.36.436 4.216a4 4 0 0 0 1.748 1.748C23.04 72 24.16 72 26.4 72h33.2c2.24 0 3.36 0 4.216-.436a4 4 0 0 0 1.748-1.748C66 68.96 66 67.84 66 65.6v-9.2c0-2.24 0-3.36-.436-4.216a4 4 0 0 0-1.748-1.748C62.96 50 61.84 50 59.6 50H26.4c-2.24 0-3.36 0-4.216.436a4 4 0 0 0-1.748 1.748ZM72 51a1 1 0 0 1 1-1h38a1 1 0 0 1 0 2H73a1 1 0 0 1-1-1ZM73 54a1 1 0 1 0 0 2h38a1 1 0 0 0 0-2H73ZM72 59a1 1 0 0 1 1-1h38a1 1 0 0 1 0 2H73a1 1 0 0 1-1-1ZM73 62a1 1 0 1 0 0 2h22a1 1 0 1 0 0-2H73Z"
          fill="currentColor"
        ></path>
      </svg>